<svg xmlns="http://www.w3.org/2000/svg" width="400.0" height="300.0" viewBox="-3 -3 106.0 81.0" style="background:#0d1117">
<rect x="0" y="0" width="100.0" height="75.0" fill="none" stroke="#ffd000" stroke-width="0.3"/>
<circle cx="4" cy="71.0" r="1.6" fill="#222" stroke="#888" stroke-width="0.2"/>
<circle cx="96.0" cy="71.0" r="1.6" fill="#222" stroke="#888" stroke-width="0.2"/>
<circle cx="96.0" cy="4.0" r="1.6" fill="#222" stroke="#888" stroke-width="0.2"/>
<circle cx="4" cy="4.0" r="1.6" fill="#222" stroke="#888" stroke-width="0.2"/>
<rect x="34.7" y="21.169999999999998" width="28.0" height="40.1" fill="#16304a" stroke="#7fd4ff" stroke-width="0.2"/>
<rect x="6.0" y="29.45" width="16.7" height="21.32" fill="#16304a" stroke="#7fd4ff" stroke-width="0.2"/>
<rect x="76.0" y="29.45" width="16.7" height="21.32" fill="#16304a" stroke="#7fd4ff" stroke-width="0.2"/>
<rect x="35.690000000000005" y="8.5" width="11.16" height="5" fill="#16304a" stroke="#7fd4ff" stroke-width="0.2"/>
<rect x="2.459999999999999" y="7.5" width="12.16" height="7" fill="#16304a" stroke="#7fd4ff" stroke-width="0.2"/>
<rect x="-2.620000000000001" y="63.5" width="22.32" height="7" fill="#16304a" stroke="#7fd4ff" stroke-width="0.2"/>
<rect x="65.38000000000001" y="63.5" width="22.32" height="7" fill="#16304a" stroke="#7fd4ff" stroke-width="0.2"/>
<rect x="63.92" y="7.5" width="17.240000000000002" height="7" fill="#16304a" stroke="#7fd4ff" stroke-width="0.2"/>
<rect x="59.0" y="14.0" width="4" height="2" fill="#16304a" stroke="#7fd4ff" stroke-width="0.2"/>
<rect x="46.5" y="8.0" width="11" height="11" fill="#16304a" stroke="#7fd4ff" stroke-width="0.2"/>
<rect x="33.92" y="63.5" width="17.240000000000002" height="7" fill="#16304a" stroke="#7fd4ff" stroke-width="0.2"/>
<circle cx="36.0" cy="59.0" r="0.85" fill="#c8a23a"/>
<circle cx="61.4" cy="59.0" r="0.85" fill="#c8a23a"/>
<circle cx="36.0" cy="56.46" r="0.85" fill="#c8a23a"/>
<circle cx="61.4" cy="56.46" r="0.85" fill="#c8a23a"/>
<circle cx="36.0" cy="53.92" r="0.85" fill="#c8a23a"/>
<circle cx="61.4" cy="53.92" r="0.85" fill="#c8a23a"/>
<circle cx="36.0" cy="51.379999999999995" r="0.85" fill="#c8a23a"/>
<circle cx="61.4" cy="51.379999999999995" r="0.85" fill="#c8a23a"/>
<circle cx="36.0" cy="48.84" r="0.85" fill="#c8a23a"/>
<circle cx="61.4" cy="48.84" r="0.85" fill="#c8a23a"/>
<circle cx="36.0" cy="46.3" r="0.85" fill="#c8a23a"/>
<circle cx="61.4" cy="46.3" r="0.85" fill="#c8a23a"/>
<circle cx="36.0" cy="43.76" r="0.85" fill="#c8a23a"/>
<circle cx="61.4" cy="43.76" r="0.85" fill="#c8a23a"/>
<circle cx="36.0" cy="41.22" r="0.85" fill="#c8a23a"/>
<circle cx="61.4" cy="41.22" r="0.85" fill="#c8a23a"/>
<circle cx="36.0" cy="38.68" r="0.85" fill="#c8a23a"/>
<circle cx="61.4" cy="38.68" r="0.85" fill="#c8a23a"/>
<circle cx="36.0" cy="36.14" r="0.85" fill="#c8a23a"/>
<circle cx="61.4" cy="36.14" r="0.85" fill="#c8a23a"/>
<circle cx="36.0" cy="33.6" r="0.85" fill="#c8a23a"/>
<circle cx="61.4" cy="33.6" r="0.85" fill="#c8a23a"/>
<circle cx="36.0" cy="31.060000000000002" r="0.85" fill="#c8a23a"/>
<circle cx="61.4" cy="31.060000000000002" r="0.85" fill="#c8a23a"/>
<circle cx="36.0" cy="28.519999999999996" r="0.85" fill="#c8a23a"/>
<circle cx="61.4" cy="28.519999999999996" r="0.85" fill="#c8a23a"/>
<circle cx="36.0" cy="25.979999999999997" r="0.85" fill="#c8a23a"/>
<circle cx="61.4" cy="25.979999999999997" r="0.85" fill="#c8a23a"/>
<circle cx="36.0" cy="23.439999999999998" r="0.85" fill="#c8a23a"/>
<circle cx="61.4" cy="23.439999999999998" r="0.85" fill="#c8a23a"/>
<circle cx="8.0" cy="49.0" r="0.85" fill="#c8a23a"/>
<circle cx="20.7" cy="49.0" r="0.85" fill="#c8a23a"/>
<circle cx="8.0" cy="46.46" r="0.85" fill="#c8a23a"/>
<circle cx="20.7" cy="46.46" r="0.85" fill="#c8a23a"/>
<circle cx="8.0" cy="43.92" r="0.85" fill="#c8a23a"/>
<circle cx="20.7" cy="43.92" r="0.85" fill="#c8a23a"/>
<circle cx="8.0" cy="41.38" r="0.85" fill="#c8a23a"/>
<circle cx="20.7" cy="41.38" r="0.85" fill="#c8a23a"/>
<circle cx="8.0" cy="38.84" r="0.85" fill="#c8a23a"/>
<circle cx="20.7" cy="38.84" r="0.85" fill="#c8a23a"/>
<circle cx="8.0" cy="36.3" r="0.85" fill="#c8a23a"/>
<circle cx="20.7" cy="36.3" r="0.85" fill="#c8a23a"/>
<circle cx="8.0" cy="33.76" r="0.85" fill="#c8a23a"/>
<circle cx="20.7" cy="33.76" r="0.85" fill="#c8a23a"/>
<circle cx="8.0" cy="31.22" r="0.85" fill="#c8a23a"/>
<circle cx="20.7" cy="31.22" r="0.85" fill="#c8a23a"/>
<circle cx="78.0" cy="49.0" r="0.85" fill="#c8a23a"/>
<circle cx="90.7" cy="49.0" r="0.85" fill="#c8a23a"/>
<circle cx="78.0" cy="46.46" r="0.85" fill="#c8a23a"/>
<circle cx="90.7" cy="46.46" r="0.85" fill="#c8a23a"/>
<circle cx="78.0" cy="43.92" r="0.85" fill="#c8a23a"/>
<circle cx="90.7" cy="43.92" r="0.85" fill="#c8a23a"/>
<circle cx="78.0" cy="41.38" r="0.85" fill="#c8a23a"/>
<circle cx="90.7" cy="41.38" r="0.85" fill="#c8a23a"/>
<circle cx="78.0" cy="38.84" r="0.85" fill="#c8a23a"/>
<circle cx="90.7" cy="38.84" r="0.85" fill="#c8a23a"/>
<circle cx="78.0" cy="36.3" r="0.85" fill="#c8a23a"/>
<circle cx="90.7" cy="36.3" r="0.85" fill="#c8a23a"/>
<circle cx="78.0" cy="33.76" r="0.85" fill="#c8a23a"/>
<circle cx="90.7" cy="33.76" r="0.85" fill="#c8a23a"/>
<circle cx="78.0" cy="31.22" r="0.85" fill="#c8a23a"/>
<circle cx="90.7" cy="31.22" r="0.85" fill="#c8a23a"/>
<circle cx="40.0" cy="11.0" r="0.85" fill="#c8a23a"/>
<circle cx="42.54" cy="11.0" r="0.85" fill="#c8a23a"/>
<circle cx="45.08" cy="11.0" r="0.85" fill="#c8a23a"/>
<circle cx="47.62" cy="11.0" r="0.85" fill="#c8a23a"/>
<circle cx="6.0" cy="11.0" r="1.2" fill="#c8a23a"/>
<circle cx="11.08" cy="11.0" r="1.2" fill="#c8a23a"/>
<circle cx="6.0" cy="67.0" r="1.2" fill="#c8a23a"/>
<circle cx="11.08" cy="67.0" r="1.2" fill="#c8a23a"/>
<circle cx="16.16" cy="67.0" r="1.2" fill="#c8a23a"/>
<circle cx="21.240000000000002" cy="67.0" r="1.2" fill="#c8a23a"/>
<circle cx="74.0" cy="67.0" r="1.2" fill="#c8a23a"/>
<circle cx="79.08" cy="67.0" r="1.2" fill="#c8a23a"/>
<circle cx="84.16" cy="67.0" r="1.2" fill="#c8a23a"/>
<circle cx="89.24" cy="67.0" r="1.2" fill="#c8a23a"/>
<circle cx="70.0" cy="11.0" r="1.2" fill="#c8a23a"/>
<circle cx="75.08" cy="11.0" r="1.2" fill="#c8a23a"/>
<circle cx="80.16" cy="11.0" r="1.2" fill="#c8a23a"/>
<circle cx="52.0" cy="11.0" r="0.85" fill="#c8a23a"/>
<circle cx="52.0" cy="16.0" r="0.85" fill="#c8a23a"/>
<circle cx="40.0" cy="67.0" r="1.2" fill="#c8a23a"/>
<circle cx="45.08" cy="67.0" r="1.2" fill="#c8a23a"/>
<circle cx="50.16" cy="67.0" r="1.2" fill="#c8a23a"/>
<rect x="59.35" y="14.5" width="1.3" height="1.0" fill="#c8a23a"/>
<rect x="61.35" y="14.5" width="1.3" height="1.0" fill="#c8a23a"/>
<rect x="18.35" y="24.5" width="1.3" height="1.0" fill="#c8a23a"/>
<rect x="20.35" y="24.5" width="1.3" height="1.0" fill="#c8a23a"/>
<rect x="88.35" y="24.5" width="1.3" height="1.0" fill="#c8a23a"/>
<rect x="90.35" y="24.5" width="1.3" height="1.0" fill="#c8a23a"/>
<text x="48.7" y="41.22" font-size="2.2" fill="#fff" text-anchor="middle" font-family="monospace">U1 ESP32</text>
<text x="14.35" y="40.11" font-size="2.2" fill="#fff" text-anchor="middle" font-family="monospace">A1 TMC(th)</text>
<text x="84.35" y="40.11" font-size="2.2" fill="#fff" text-anchor="middle" font-family="monospace">A2 TMC(rh)</text>
<text x="41.27" y="11.0" font-size="2.2" fill="#fff" text-anchor="middle" font-family="monospace">BK1 5V</text>
<text x="8.54" y="11.0" font-size="2.2" fill="#fff" text-anchor="middle" font-family="monospace">J1 12V</text>
<text x="8.54" y="67.0" font-size="2.2" fill="#fff" text-anchor="middle" font-family="monospace">J2 TH-MOT</text>
<text x="76.54" y="67.0" font-size="2.2" fill="#fff" text-anchor="middle" font-family="monospace">J3 RH-MOT (slipring)</text>
<text x="72.54" y="11.0" font-size="2.2" fill="#fff" text-anchor="middle" font-family="monospace">J4 LED</text>
<text x="61" y="13.0" font-size="2.2" fill="#fff" text-anchor="middle" font-family="monospace">R1</text>
<text x="52" y="7.0" font-size="2.2" fill="#fff" text-anchor="middle" font-family="monospace">C1</text>
<text x="42.54" y="67.0" font-size="2.2" fill="#fff" text-anchor="middle" font-family="monospace">J5 ENDSTOP</text>
</svg>