<?xml version="1.0" encoding="utf-8"?>
<svg width="105.0mm" height="80.0mm" viewBox="-2.5 -2.5 105.0 80.0" style="background-color:#101015" xmlns="http://www.w3.org/2000/svg" xmlns:xlink="http://www.w3.org/1999/xlink">
  <g transform="translate(0.5 74.5) scale(1 -1) translate(-0.5 -0.5)">
    <rect x="0.6" y="0.6" width="98.8" height="73.8" fill="#b34700"/>
    <circle cx="36.0" cy="16.0" r="1.3" fill="#101015"/>
    <circle cx="36.0" cy="18.54" r="1.3" fill="#101015"/>
    <circle cx="61.4" cy="18.54" r="1.3" fill="#101015"/>
    <circle cx="36.0" cy="21.08" r="1.3" fill="#101015"/>
    <circle cx="61.4" cy="21.08" r="1.3" fill="#101015"/>
    <circle cx="36.0" cy="23.62" r="1.3" fill="#101015"/>
    <circle cx="61.4" cy="23.62" r="1.3" fill="#101015"/>
    <circle cx="36.0" cy="26.16" r="1.3" fill="#101015"/>
    <circle cx="61.4" cy="26.16" r="1.3" fill="#101015"/>
    <circle cx="36.0" cy="28.7" r="1.3" fill="#101015"/>
    <circle cx="61.4" cy="28.7" r="1.3" fill="#101015"/>
    <circle cx="36.0" cy="31.24" r="1.3" fill="#101015"/>
    <circle cx="61.4" cy="31.24" r="1.3" fill="#101015"/>
    <circle cx="36.0" cy="33.78" r="1.3" fill="#101015"/>
    <circle cx="61.4" cy="33.78" r="1.3" fill="#101015"/>
    <circle cx="36.0" cy="36.32" r="1.3" fill="#101015"/>
    <circle cx="61.4" cy="36.32" r="1.3" fill="#101015"/>
    <circle cx="36.0" cy="38.86" r="1.3" fill="#101015"/>
    <circle cx="61.4" cy="38.86" r="1.3" fill="#101015"/>
    <circle cx="36.0" cy="41.4" r="1.3" fill="#101015"/>
    <circle cx="61.4" cy="41.4" r="1.3" fill="#101015"/>
    <circle cx="36.0" cy="43.94" r="1.3" fill="#101015"/>
    <circle cx="61.4" cy="43.94" r="1.3" fill="#101015"/>
    <circle cx="36.0" cy="46.48" r="1.3" fill="#101015"/>
    <circle cx="61.4" cy="46.48" r="1.3" fill="#101015"/>
    <circle cx="36.0" cy="49.02" r="1.3" fill="#101015"/>
    <circle cx="61.4" cy="49.02" r="1.3" fill="#101015"/>
    <circle cx="36.0" cy="51.56" r="1.3" fill="#101015"/>
    <circle cx="8.0" cy="28.54" r="1.3" fill="#101015"/>
    <circle cx="8.0" cy="31.08" r="1.3" fill="#101015"/>
    <circle cx="20.7" cy="31.08" r="1.3" fill="#101015"/>
    <circle cx="8.0" cy="33.62" r="1.3" fill="#101015"/>
    <circle cx="20.7" cy="33.62" r="1.3" fill="#101015"/>
    <circle cx="8.0" cy="36.16" r="1.3" fill="#101015"/>
    <circle cx="20.7" cy="36.16" r="1.3" fill="#101015"/>
    <circle cx="8.0" cy="38.7" r="1.3" fill="#101015"/>
    <circle cx="20.7" cy="38.7" r="1.3" fill="#101015"/>
    <circle cx="8.0" cy="41.24" r="1.3" fill="#101015"/>
    <circle cx="8.0" cy="43.78" r="1.3" fill="#101015"/>
    <circle cx="20.7" cy="43.78" r="1.3" fill="#101015"/>
    <circle cx="78.0" cy="28.54" r="1.3" fill="#101015"/>
    <circle cx="78.0" cy="31.08" r="1.3" fill="#101015"/>
    <circle cx="90.7" cy="31.08" r="1.3" fill="#101015"/>
    <circle cx="78.0" cy="33.62" r="1.3" fill="#101015"/>
    <circle cx="90.7" cy="33.62" r="1.3" fill="#101015"/>
    <circle cx="78.0" cy="36.16" r="1.3" fill="#101015"/>
    <circle cx="90.7" cy="36.16" r="1.3" fill="#101015"/>
    <circle cx="78.0" cy="38.7" r="1.3" fill="#101015"/>
    <circle cx="90.7" cy="38.7" r="1.3" fill="#101015"/>
    <circle cx="78.0" cy="41.24" r="1.3" fill="#101015"/>
    <circle cx="78.0" cy="43.78" r="1.3" fill="#101015"/>
    <circle cx="90.7" cy="43.78" r="1.3" fill="#101015"/>
    <circle cx="40.0" cy="64.0" r="1.3" fill="#101015"/>
    <circle cx="45.08" cy="64.0" r="1.3" fill="#101015"/>
    <circle cx="6.0" cy="64.0" r="1.65" fill="#101015"/>
    <circle cx="6.0" cy="8.0" r="1.65" fill="#101015"/>
    <circle cx="11.08" cy="8.0" r="1.65" fill="#101015"/>
    <circle cx="16.16" cy="8.0" r="1.65" fill="#101015"/>
    <circle cx="21.24" cy="8.0" r="1.65" fill="#101015"/>
    <circle cx="74.0" cy="8.0" r="1.65" fill="#101015"/>
    <circle cx="79.08" cy="8.0" r="1.65" fill="#101015"/>
    <circle cx="84.16" cy="8.0" r="1.65" fill="#101015"/>
    <circle cx="89.24" cy="8.0" r="1.65" fill="#101015"/>
    <circle cx="70.0" cy="64.0" r="1.65" fill="#101015"/>
    <circle cx="75.08" cy="64.0" r="1.65" fill="#101015"/>
    <circle cx="52.0" cy="64.0" r="1.3" fill="#101015"/>
    <circle cx="40.0" cy="8.0" r="1.65" fill="#101015"/>
    <circle cx="45.08" cy="8.0" r="1.65" fill="#101015"/>
    <path d="M 36.0 16.0 L 40.0 8.0" fill="none" stroke="#101015" stroke-linecap="round" stroke-linejoin="round" stroke-width="1.5"/>
    <path d="M 20.7 43.78 L 6.0 64.0 L 40.0 64.0 L 90.7 43.78" fill="none" stroke="#101015" stroke-linecap="round" stroke-linejoin="round" stroke-width="1.5"/>
    <path d="M 61.4 26.16 L 78.0 28.54" fill="none" stroke="#101015" stroke-linecap="round" stroke-linejoin="round" stroke-width="1.5"/>
    <path d="M 89.0 50.0 L 70.0 64.0 L 52.0 64.0 L 45.08 64.0" fill="none" stroke="#101015" stroke-linecap="round" stroke-linejoin="round" stroke-width="1.5"/>
    <path d="M 36.0 28.7 L 8.0 31.08" fill="none" stroke="#101015" stroke-linecap="round" stroke-linejoin="round" stroke-width="1.2"/>
    <path d="M 61.4 28.7 L 8.0 33.62" fill="none" stroke="#101015" stroke-linecap="round" stroke-linejoin="round" stroke-width="1.2"/>
    <path d="M 8.0 38.7 L 78.0 38.7" fill="none" stroke="#101015" stroke-linecap="round" stroke-linejoin="round" stroke-width="1.2"/>
    <path d="M 8.0 41.24 L 78.0 41.24" fill="none" stroke="#101015" stroke-linecap="round" stroke-linejoin="round" stroke-width="1.2"/>
    <path d="M 90.7 33.62 L 79.08 8.0" fill="none" stroke="#101015" stroke-linecap="round" stroke-linejoin="round" stroke-width="1.2"/>
    <path d="M 36.0 33.78 L 8.0 36.16 L 78.0 36.16" fill="none" stroke="#101015" stroke-linecap="round" stroke-linejoin="round" stroke-width="1.2"/>
    <path d="M 8.0 43.78 L 78.0 43.78" fill="none" stroke="#101015" stroke-linecap="round" stroke-linejoin="round" stroke-width="1.2"/>
    <circle cx="4.0" cy="4.0" r="3.5" fill="#101015"/>
    <circle cx="96.0" cy="4.0" r="3.5" fill="#101015"/>
    <circle cx="96.0" cy="71.0" r="3.5" fill="#101015"/>
    <circle cx="4.0" cy="71.0" r="3.5" fill="#101015"/>
    <rect x="35.15" y="15.15" width="1.7" height="1.7" fill="#b34700"/>
    <circle cx="61.4" cy="16.0" r="0.85" fill="#b34700"/>
    <circle cx="36.0" cy="18.54" r="0.85" fill="#b34700"/>
    <circle cx="61.4" cy="18.54" r="0.85" fill="#b34700"/>
    <circle cx="36.0" cy="21.08" r="0.85" fill="#b34700"/>
    <circle cx="61.4" cy="21.08" r="0.85" fill="#b34700"/>
    <circle cx="36.0" cy="23.62" r="0.85" fill="#b34700"/>
    <circle cx="61.4" cy="23.62" r="0.85" fill="#b34700"/>
    <circle cx="36.0" cy="26.16" r="0.85" fill="#b34700"/>
    <circle cx="61.4" cy="26.16" r="0.85" fill="#b34700"/>
    <circle cx="36.0" cy="28.7" r="0.85" fill="#b34700"/>
    <circle cx="61.4" cy="28.7" r="0.85" fill="#b34700"/>
    <circle cx="36.0" cy="31.24" r="0.85" fill="#b34700"/>
    <circle cx="61.4" cy="31.24" r="0.85" fill="#b34700"/>
    <circle cx="36.0" cy="33.78" r="0.85" fill="#b34700"/>
    <circle cx="61.4" cy="33.78" r="0.85" fill="#b34700"/>
    <circle cx="36.0" cy="36.32" r="0.85" fill="#b34700"/>
    <circle cx="61.4" cy="36.32" r="0.85" fill="#b34700"/>
    <circle cx="36.0" cy="38.86" r="0.85" fill="#b34700"/>
    <circle cx="61.4" cy="38.86" r="0.85" fill="#b34700"/>
    <circle cx="36.0" cy="41.4" r="0.85" fill="#b34700"/>
    <circle cx="61.4" cy="41.4" r="0.85" fill="#b34700"/>
    <circle cx="36.0" cy="43.94" r="0.85" fill="#b34700"/>
    <circle cx="61.4" cy="43.94" r="0.85" fill="#b34700"/>
    <circle cx="36.0" cy="46.48" r="0.85" fill="#b34700"/>
    <circle cx="61.4" cy="46.48" r="0.85" fill="#b34700"/>
    <circle cx="36.0" cy="49.02" r="0.85" fill="#b34700"/>
    <circle cx="61.4" cy="49.02" r="0.85" fill="#b34700"/>
    <circle cx="36.0" cy="51.56" r="0.85" fill="#b34700"/>
    <circle cx="61.4" cy="51.56" r="0.85" fill="#b34700"/>
    <rect x="7.15" y="25.15" width="1.7" height="1.7" fill="#b34700"/>
    <circle cx="20.7" cy="26.0" r="0.85" fill="#b34700"/>
    <circle cx="8.0" cy="28.54" r="0.85" fill="#b34700"/>
    <circle cx="20.7" cy="28.54" r="0.85" fill="#b34700"/>
    <circle cx="8.0" cy="31.08" r="0.85" fill="#b34700"/>
    <circle cx="20.7" cy="31.08" r="0.85" fill="#b34700"/>
    <circle cx="8.0" cy="33.62" r="0.85" fill="#b34700"/>
    <circle cx="20.7" cy="33.62" r="0.85" fill="#b34700"/>
    <circle cx="8.0" cy="36.16" r="0.85" fill="#b34700"/>
    <circle cx="20.7" cy="36.16" r="0.85" fill="#b34700"/>
    <circle cx="8.0" cy="38.7" r="0.85" fill="#b34700"/>
    <circle cx="20.7" cy="38.7" r="0.85" fill="#b34700"/>
    <circle cx="8.0" cy="41.24" r="0.85" fill="#b34700"/>
    <circle cx="20.7" cy="41.24" r="0.85" fill="#b34700"/>
    <circle cx="8.0" cy="43.78" r="0.85" fill="#b34700"/>
    <circle cx="20.7" cy="43.78" r="0.85" fill="#b34700"/>
    <rect x="77.15" y="25.15" width="1.7" height="1.7" fill="#b34700"/>
    <circle cx="90.7" cy="26.0" r="0.85" fill="#b34700"/>
    <circle cx="78.0" cy="28.54" r="0.85" fill="#b34700"/>
    <circle cx="90.7" cy="28.54" r="0.85" fill="#b34700"/>
    <circle cx="78.0" cy="31.08" r="0.85" fill="#b34700"/>
    <circle cx="90.7" cy="31.08" r="0.85" fill="#b34700"/>
    <circle cx="78.0" cy="33.62" r="0.85" fill="#b34700"/>
    <circle cx="90.7" cy="33.62" r="0.85" fill="#b34700"/>
    <circle cx="78.0" cy="36.16" r="0.85" fill="#b34700"/>
    <circle cx="90.7" cy="36.16" r="0.85" fill="#b34700"/>
    <circle cx="78.0" cy="38.7" r="0.85" fill="#b34700"/>
    <circle cx="90.7" cy="38.7" r="0.85" fill="#b34700"/>
    <circle cx="78.0" cy="41.24" r="0.85" fill="#b34700"/>
    <circle cx="90.7" cy="41.24" r="0.85" fill="#b34700"/>
    <circle cx="78.0" cy="43.78" r="0.85" fill="#b34700"/>
    <circle cx="90.7" cy="43.78" r="0.85" fill="#b34700"/>
    <rect x="39.15" y="63.15" width="1.7" height="1.7" fill="#b34700"/>
    <circle cx="42.54" cy="64.0" r="0.85" fill="#b34700"/>
    <circle cx="45.08" cy="64.0" r="0.85" fill="#b34700"/>
    <circle cx="47.62" cy="64.0" r="0.85" fill="#b34700"/>
    <rect x="4.8" y="62.8" width="2.4" height="2.4" fill="#b34700"/>
    <circle cx="11.08" cy="64.0" r="1.2" fill="#b34700"/>
    <rect x="4.8" y="6.8" width="2.4" height="2.4" fill="#b34700"/>
    <circle cx="11.08" cy="8.0" r="1.2" fill="#b34700"/>
    <circle cx="16.16" cy="8.0" r="1.2" fill="#b34700"/>
    <circle cx="21.24" cy="8.0" r="1.2" fill="#b34700"/>
    <rect x="72.8" y="6.8" width="2.4" height="2.4" fill="#b34700"/>
    <circle cx="79.08" cy="8.0" r="1.2" fill="#b34700"/>
    <circle cx="84.16" cy="8.0" r="1.2" fill="#b34700"/>
    <circle cx="89.24" cy="8.0" r="1.2" fill="#b34700"/>
    <rect x="68.8" y="62.8" width="2.4" height="2.4" fill="#b34700"/>
    <circle cx="75.08" cy="64.0" r="1.2" fill="#b34700"/>
    <circle cx="80.16" cy="64.0" r="1.2" fill="#b34700"/>
    <circle cx="52.0" cy="64.0" r="0.85" fill="#b34700"/>
    <circle cx="52.0" cy="59.0" r="0.85" fill="#b34700"/>
    <rect x="38.8" y="6.8" width="2.4" height="2.4" fill="#b34700"/>
    <circle cx="45.08" cy="8.0" r="1.2" fill="#b34700"/>
    <circle cx="50.16" cy="8.0" r="1.2" fill="#b34700"/>
    <path d="M 36.0 16.0 L 40.0 8.0" fill="none" stroke="#b34700" stroke-linecap="round" stroke-linejoin="round" stroke-width="0.6"/>
    <path d="M 20.7 43.78 L 6.0 64.0 L 40.0 64.0 L 90.7 43.78" fill="none" stroke="#b34700" stroke-linecap="round" stroke-linejoin="round" stroke-width="0.6"/>
    <path d="M 61.4 26.16 L 78.0 28.54" fill="none" stroke="#b34700" stroke-linecap="round" stroke-linejoin="round" stroke-width="0.6"/>
    <path d="M 89.0 50.0 L 70.0 64.0 L 52.0 64.0 L 45.08 64.0" fill="none" stroke="#b34700" stroke-linecap="round" stroke-linejoin="round" stroke-width="0.6"/>
    <path d="M 36.0 28.7 L 8.0 31.08" fill="none" stroke="#b34700" stroke-linecap="round" stroke-linejoin="round" stroke-width="0.3"/>
    <path d="M 61.4 28.7 L 8.0 33.62" fill="none" stroke="#b34700" stroke-linecap="round" stroke-linejoin="round" stroke-width="0.3"/>
    <path d="M 8.0 38.7 L 78.0 38.7" fill="none" stroke="#b34700" stroke-linecap="round" stroke-linejoin="round" stroke-width="0.3"/>
    <path d="M 8.0 41.24 L 78.0 41.24" fill="none" stroke="#b34700" stroke-linecap="round" stroke-linejoin="round" stroke-width="0.3"/>
    <path d="M 90.7 33.62 L 79.08 8.0" fill="none" stroke="#b34700" stroke-linecap="round" stroke-linejoin="round" stroke-width="0.3"/>
    <path d="M 36.0 33.78 L 8.0 36.16 L 78.0 36.16" fill="none" stroke="#b34700" stroke-linecap="round" stroke-linejoin="round" stroke-width="0.3"/>
    <path d="M 8.0 43.78 L 78.0 43.78" fill="none" stroke="#b34700" stroke-linecap="round" stroke-linejoin="round" stroke-width="0.3"/>
    <circle cx="21.0" cy="50.0" r="0.4" fill="#b34700"/>
    <circle cx="91.0" cy="50.0" r="0.4" fill="#b34700"/>
  </g>
</svg>