<?xml version="1.0" encoding="utf-8"?>
<svg width="92.85000000000001mm" height="64.5mm" viewBox="1.75 3.75 92.85000000000001 64.5" style="background-color:#101015" xmlns="http://www.w3.org/2000/svg" xmlns:xlink="http://www.w3.org/1999/xlink">
  <g transform="translate(4.75 65.25) scale(1 -1) translate(-4.75 -6.75)">
    <rect x="35.1" y="15.1" width="1.8" height="1.8" fill="#0b5"/>
    <circle cx="61.4" cy="16.0" r="0.9" fill="#0b5"/>
    <circle cx="36.0" cy="18.54" r="0.9" fill="#0b5"/>
    <circle cx="61.4" cy="18.54" r="0.9" fill="#0b5"/>
    <circle cx="36.0" cy="21.08" r="0.9" fill="#0b5"/>
    <circle cx="61.4" cy="21.08" r="0.9" fill="#0b5"/>
    <circle cx="36.0" cy="23.62" r="0.9" fill="#0b5"/>
    <circle cx="61.4" cy="23.62" r="0.9" fill="#0b5"/>
    <circle cx="36.0" cy="26.16" r="0.9" fill="#0b5"/>
    <circle cx="61.4" cy="26.16" r="0.9" fill="#0b5"/>
    <circle cx="36.0" cy="28.7" r="0.9" fill="#0b5"/>
    <circle cx="61.4" cy="28.7" r="0.9" fill="#0b5"/>
    <circle cx="36.0" cy="31.24" r="0.9" fill="#0b5"/>
    <circle cx="61.4" cy="31.24" r="0.9" fill="#0b5"/>
    <circle cx="36.0" cy="33.78" r="0.9" fill="#0b5"/>
    <circle cx="61.4" cy="33.78" r="0.9" fill="#0b5"/>
    <circle cx="36.0" cy="36.32" r="0.9" fill="#0b5"/>
    <circle cx="61.4" cy="36.32" r="0.9" fill="#0b5"/>
    <circle cx="36.0" cy="38.86" r="0.9" fill="#0b5"/>
    <circle cx="61.4" cy="38.86" r="0.9" fill="#0b5"/>
    <circle cx="36.0" cy="41.4" r="0.9" fill="#0b5"/>
    <circle cx="61.4" cy="41.4" r="0.9" fill="#0b5"/>
    <circle cx="36.0" cy="43.94" r="0.9" fill="#0b5"/>
    <circle cx="61.4" cy="43.94" r="0.9" fill="#0b5"/>
    <circle cx="36.0" cy="46.48" r="0.9" fill="#0b5"/>
    <circle cx="61.4" cy="46.48" r="0.9" fill="#0b5"/>
    <circle cx="36.0" cy="49.02" r="0.9" fill="#0b5"/>
    <circle cx="61.4" cy="49.02" r="0.9" fill="#0b5"/>
    <circle cx="36.0" cy="51.56" r="0.9" fill="#0b5"/>
    <circle cx="61.4" cy="51.56" r="0.9" fill="#0b5"/>
    <rect x="7.1" y="25.1" width="1.8" height="1.8" fill="#0b5"/>
    <circle cx="20.7" cy="26.0" r="0.9" fill="#0b5"/>
    <circle cx="8.0" cy="28.54" r="0.9" fill="#0b5"/>
    <circle cx="20.7" cy="28.54" r="0.9" fill="#0b5"/>
    <circle cx="8.0" cy="31.08" r="0.9" fill="#0b5"/>
    <circle cx="20.7" cy="31.08" r="0.9" fill="#0b5"/>
    <circle cx="8.0" cy="33.62" r="0.9" fill="#0b5"/>
    <circle cx="20.7" cy="33.62" r="0.9" fill="#0b5"/>
    <circle cx="8.0" cy="36.16" r="0.9" fill="#0b5"/>
    <circle cx="20.7" cy="36.16" r="0.9" fill="#0b5"/>
    <circle cx="8.0" cy="38.7" r="0.9" fill="#0b5"/>
    <circle cx="20.7" cy="38.7" r="0.9" fill="#0b5"/>
    <circle cx="8.0" cy="41.24" r="0.9" fill="#0b5"/>
    <circle cx="20.7" cy="41.24" r="0.9" fill="#0b5"/>
    <circle cx="8.0" cy="43.78" r="0.9" fill="#0b5"/>
    <circle cx="20.7" cy="43.78" r="0.9" fill="#0b5"/>
    <rect x="77.1" y="25.1" width="1.8" height="1.8" fill="#0b5"/>
    <circle cx="90.7" cy="26.0" r="0.9" fill="#0b5"/>
    <circle cx="78.0" cy="28.54" r="0.9" fill="#0b5"/>
    <circle cx="90.7" cy="28.54" r="0.9" fill="#0b5"/>
    <circle cx="78.0" cy="31.08" r="0.9" fill="#0b5"/>
    <circle cx="90.7" cy="31.08" r="0.9" fill="#0b5"/>
    <circle cx="78.0" cy="33.62" r="0.9" fill="#0b5"/>
    <circle cx="90.7" cy="33.62" r="0.9" fill="#0b5"/>
    <circle cx="78.0" cy="36.16" r="0.9" fill="#0b5"/>
    <circle cx="90.7" cy="36.16" r="0.9" fill="#0b5"/>
    <circle cx="78.0" cy="38.7" r="0.9" fill="#0b5"/>
    <circle cx="90.7" cy="38.7" r="0.9" fill="#0b5"/>
    <circle cx="78.0" cy="41.24" r="0.9" fill="#0b5"/>
    <circle cx="90.7" cy="41.24" r="0.9" fill="#0b5"/>
    <circle cx="78.0" cy="43.78" r="0.9" fill="#0b5"/>
    <circle cx="90.7" cy="43.78" r="0.9" fill="#0b5"/>
    <rect x="39.1" y="63.1" width="1.8" height="1.8" fill="#0b5"/>
    <circle cx="42.54" cy="64.0" r="0.9" fill="#0b5"/>
    <circle cx="45.08" cy="64.0" r="0.9" fill="#0b5"/>
    <circle cx="47.62" cy="64.0" r="0.9" fill="#0b5"/>
    <rect x="4.75" y="62.75" width="2.5" height="2.5" fill="#0b5"/>
    <circle cx="11.08" cy="64.0" r="1.25" fill="#0b5"/>
    <rect x="4.75" y="6.75" width="2.5" height="2.5" fill="#0b5"/>
    <circle cx="11.08" cy="8.0" r="1.25" fill="#0b5"/>
    <circle cx="16.16" cy="8.0" r="1.25" fill="#0b5"/>
    <circle cx="21.24" cy="8.0" r="1.25" fill="#0b5"/>
    <rect x="72.75" y="6.75" width="2.5" height="2.5" fill="#0b5"/>
    <circle cx="79.08" cy="8.0" r="1.25" fill="#0b5"/>
    <circle cx="84.16" cy="8.0" r="1.25" fill="#0b5"/>
    <circle cx="89.24" cy="8.0" r="1.25" fill="#0b5"/>
    <rect x="68.75" y="62.75" width="2.5" height="2.5" fill="#0b5"/>
    <circle cx="75.08" cy="64.0" r="1.25" fill="#0b5"/>
    <circle cx="80.16" cy="64.0" r="1.25" fill="#0b5"/>
    <circle cx="52.0" cy="64.0" r="0.9" fill="#0b5"/>
    <circle cx="52.0" cy="59.0" r="0.9" fill="#0b5"/>
    <rect x="38.75" y="6.75" width="2.5" height="2.5" fill="#0b5"/>
    <circle cx="45.08" cy="8.0" r="1.25" fill="#0b5"/>
    <circle cx="50.16" cy="8.0" r="1.25" fill="#0b5"/>
  </g>
</svg>