<?xml version="1.0" encoding="utf-8"?>
<svg width="92.85000000000001mm" height="64.4mm" viewBox="1.7999999999999998 3.8 92.85000000000001 64.4" style="background-color:#101015" xmlns="http://www.w3.org/2000/svg" xmlns:xlink="http://www.w3.org/1999/xlink">
  <g transform="translate(4.8 65.2) scale(1 -1) translate(-4.8 -6.8)">
    <rect x="35.15" y="15.15" width="1.7" height="1.7" fill="#1f7a1f"/>
    <circle cx="61.4" cy="16.0" r="0.85" fill="#1f7a1f"/>
    <circle cx="36.0" cy="18.54" r="0.85" fill="#1f7a1f"/>
    <circle cx="61.4" cy="18.54" r="0.85" fill="#1f7a1f"/>
    <circle cx="36.0" cy="21.08" r="0.85" fill="#1f7a1f"/>
    <circle cx="61.4" cy="21.08" r="0.85" fill="#1f7a1f"/>
    <circle cx="36.0" cy="23.62" r="0.85" fill="#1f7a1f"/>
    <circle cx="61.4" cy="23.62" r="0.85" fill="#1f7a1f"/>
    <circle cx="36.0" cy="26.16" r="0.85" fill="#1f7a1f"/>
    <circle cx="61.4" cy="26.16" r="0.85" fill="#1f7a1f"/>
    <circle cx="36.0" cy="28.7" r="0.85" fill="#1f7a1f"/>
    <circle cx="61.4" cy="28.7" r="0.85" fill="#1f7a1f"/>
    <circle cx="36.0" cy="31.24" r="0.85" fill="#1f7a1f"/>
    <circle cx="61.4" cy="31.24" r="0.85" fill="#1f7a1f"/>
    <circle cx="36.0" cy="33.78" r="0.85" fill="#1f7a1f"/>
    <circle cx="61.4" cy="33.78" r="0.85" fill="#1f7a1f"/>
    <circle cx="36.0" cy="36.32" r="0.85" fill="#1f7a1f"/>
    <circle cx="61.4" cy="36.32" r="0.85" fill="#1f7a1f"/>
    <circle cx="36.0" cy="38.86" r="0.85" fill="#1f7a1f"/>
    <circle cx="61.4" cy="38.86" r="0.85" fill="#1f7a1f"/>
    <circle cx="36.0" cy="41.4" r="0.85" fill="#1f7a1f"/>
    <circle cx="61.4" cy="41.4" r="0.85" fill="#1f7a1f"/>
    <circle cx="36.0" cy="43.94" r="0.85" fill="#1f7a1f"/>
    <circle cx="61.4" cy="43.94" r="0.85" fill="#1f7a1f"/>
    <circle cx="36.0" cy="46.48" r="0.85" fill="#1f7a1f"/>
    <circle cx="61.4" cy="46.48" r="0.85" fill="#1f7a1f"/>
    <circle cx="36.0" cy="49.02" r="0.85" fill="#1f7a1f"/>
    <circle cx="61.4" cy="49.02" r="0.85" fill="#1f7a1f"/>
    <circle cx="36.0" cy="51.56" r="0.85" fill="#1f7a1f"/>
    <circle cx="61.4" cy="51.56" r="0.85" fill="#1f7a1f"/>
    <rect x="7.15" y="25.15" width="1.7" height="1.7" fill="#1f7a1f"/>
    <circle cx="20.7" cy="26.0" r="0.85" fill="#1f7a1f"/>
    <circle cx="8.0" cy="28.54" r="0.85" fill="#1f7a1f"/>
    <circle cx="20.7" cy="28.54" r="0.85" fill="#1f7a1f"/>
    <circle cx="8.0" cy="31.08" r="0.85" fill="#1f7a1f"/>
    <circle cx="20.7" cy="31.08" r="0.85" fill="#1f7a1f"/>
    <circle cx="8.0" cy="33.62" r="0.85" fill="#1f7a1f"/>
    <circle cx="20.7" cy="33.62" r="0.85" fill="#1f7a1f"/>
    <circle cx="8.0" cy="36.16" r="0.85" fill="#1f7a1f"/>
    <circle cx="20.7" cy="36.16" r="0.85" fill="#1f7a1f"/>
    <circle cx="8.0" cy="38.7" r="0.85" fill="#1f7a1f"/>
    <circle cx="20.7" cy="38.7" r="0.85" fill="#1f7a1f"/>
    <circle cx="8.0" cy="41.24" r="0.85" fill="#1f7a1f"/>
    <circle cx="20.7" cy="41.24" r="0.85" fill="#1f7a1f"/>
    <circle cx="8.0" cy="43.78" r="0.85" fill="#1f7a1f"/>
    <circle cx="20.7" cy="43.78" r="0.85" fill="#1f7a1f"/>
    <rect x="77.15" y="25.15" width="1.7" height="1.7" fill="#1f7a1f"/>
    <circle cx="90.7" cy="26.0" r="0.85" fill="#1f7a1f"/>
    <circle cx="78.0" cy="28.54" r="0.85" fill="#1f7a1f"/>
    <circle cx="90.7" cy="28.54" r="0.85" fill="#1f7a1f"/>
    <circle cx="78.0" cy="31.08" r="0.85" fill="#1f7a1f"/>
    <circle cx="90.7" cy="31.08" r="0.85" fill="#1f7a1f"/>
    <circle cx="78.0" cy="33.62" r="0.85" fill="#1f7a1f"/>
    <circle cx="90.7" cy="33.62" r="0.85" fill="#1f7a1f"/>
    <circle cx="78.0" cy="36.16" r="0.85" fill="#1f7a1f"/>
    <circle cx="90.7" cy="36.16" r="0.85" fill="#1f7a1f"/>
    <circle cx="78.0" cy="38.7" r="0.85" fill="#1f7a1f"/>
    <circle cx="90.7" cy="38.7" r="0.85" fill="#1f7a1f"/>
    <circle cx="78.0" cy="41.24" r="0.85" fill="#1f7a1f"/>
    <circle cx="90.7" cy="41.24" r="0.85" fill="#1f7a1f"/>
    <circle cx="78.0" cy="43.78" r="0.85" fill="#1f7a1f"/>
    <circle cx="90.7" cy="43.78" r="0.85" fill="#1f7a1f"/>
    <rect x="39.15" y="63.15" width="1.7" height="1.7" fill="#1f7a1f"/>
    <circle cx="42.54" cy="64.0" r="0.85" fill="#1f7a1f"/>
    <circle cx="45.08" cy="64.0" r="0.85" fill="#1f7a1f"/>
    <circle cx="47.62" cy="64.0" r="0.85" fill="#1f7a1f"/>
    <rect x="4.8" y="62.8" width="2.4" height="2.4" fill="#1f7a1f"/>
    <circle cx="11.08" cy="64.0" r="1.2" fill="#1f7a1f"/>
    <rect x="4.8" y="6.8" width="2.4" height="2.4" fill="#1f7a1f"/>
    <circle cx="11.08" cy="8.0" r="1.2" fill="#1f7a1f"/>
    <circle cx="16.16" cy="8.0" r="1.2" fill="#1f7a1f"/>
    <circle cx="21.24" cy="8.0" r="1.2" fill="#1f7a1f"/>
    <rect x="72.8" y="6.8" width="2.4" height="2.4" fill="#1f7a1f"/>
    <circle cx="79.08" cy="8.0" r="1.2" fill="#1f7a1f"/>
    <circle cx="84.16" cy="8.0" r="1.2" fill="#1f7a1f"/>
    <circle cx="89.24" cy="8.0" r="1.2" fill="#1f7a1f"/>
    <rect x="68.8" y="62.8" width="2.4" height="2.4" fill="#1f7a1f"/>
    <circle cx="75.08" cy="64.0" r="1.2" fill="#1f7a1f"/>
    <circle cx="80.16" cy="64.0" r="1.2" fill="#1f7a1f"/>
    <rect x="59.35" y="59.5" width="1.3" height="1.0" fill="#1f7a1f"/>
    <rect x="61.35" y="59.5" width="1.3" height="1.0" fill="#1f7a1f"/>
    <circle cx="52.0" cy="64.0" r="0.85" fill="#1f7a1f"/>
    <circle cx="52.0" cy="59.0" r="0.85" fill="#1f7a1f"/>
    <rect x="38.8" y="6.8" width="2.4" height="2.4" fill="#1f7a1f"/>
    <circle cx="45.08" cy="8.0" r="1.2" fill="#1f7a1f"/>
    <circle cx="50.16" cy="8.0" r="1.2" fill="#1f7a1f"/>
    <rect x="18.35" y="49.5" width="1.3" height="1.0" fill="#1f7a1f"/>
    <rect x="20.35" y="49.5" width="1.3" height="1.0" fill="#1f7a1f"/>
    <rect x="88.35" y="49.5" width="1.3" height="1.0" fill="#1f7a1f"/>
    <rect x="90.35" y="49.5" width="1.3" height="1.0" fill="#1f7a1f"/>
    <path d="M 78.0 28.54 L 89.0 50.0" fill="none" stroke="#1f7a1f" stroke-linecap="round" stroke-linejoin="round" stroke-width="0.6"/>
    <path d="M 45.08 64.0 L 19.0 50.0 L 8.0 28.54" fill="none" stroke="#1f7a1f" stroke-linecap="round" stroke-linejoin="round" stroke-width="0.6"/>
    <path d="M 36.0 31.24 L 78.0 31.08" fill="none" stroke="#1f7a1f" stroke-linecap="round" stroke-linejoin="round" stroke-width="0.3"/>
    <path d="M 61.4 31.24 L 78.0 33.62" fill="none" stroke="#1f7a1f" stroke-linecap="round" stroke-linejoin="round" stroke-width="0.3"/>
    <path d="M 36.0 38.86 L 60.0 60.0" fill="none" stroke="#1f7a1f" stroke-linecap="round" stroke-linejoin="round" stroke-width="0.3"/>
    <path d="M 20.7 31.08 L 6.0 8.0" fill="none" stroke="#1f7a1f" stroke-linecap="round" stroke-linejoin="round" stroke-width="0.3"/>
    <path d="M 20.7 38.7 L 21.24 8.0" fill="none" stroke="#1f7a1f" stroke-linecap="round" stroke-linejoin="round" stroke-width="0.3"/>
    <path d="M 90.7 31.08 L 74.0 8.0" fill="none" stroke="#1f7a1f" stroke-linecap="round" stroke-linejoin="round" stroke-width="0.3"/>
    <path d="M 75.08 64.0 L 62.0 60.0" fill="none" stroke="#1f7a1f" stroke-linecap="round" stroke-linejoin="round" stroke-width="0.3"/>
    <circle cx="21.0" cy="50.0" r="0.4" fill="#1f7a1f"/>
    <circle cx="91.0" cy="50.0" r="0.4" fill="#1f7a1f"/>
  </g>
</svg>