<?xml version="1.0" encoding="utf-8"?>
<svg width="107.94500000000001mm" height="79.5mm" viewBox="-5.695000000000001 -2.25 107.94500000000001 79.5" style="background-color:#101015" xmlns="http://www.w3.org/2000/svg" xmlns:xlink="http://www.w3.org/1999/xlink">
  <g transform="translate(-2.695 74.25) scale(1 -1) translate(2.695 -0.75)">
    <path d="M 34.7 13.73 L 62.7 13.73 L 62.7 53.83 L 34.7 53.83 L 34.7 13.73" fill="none" stroke="#ffffff" stroke-linecap="round" stroke-linejoin="round" stroke-width="0.15"/>
    <circle cx="34.6" cy="14.6" r="0.25" fill="#ffffff"/>
    <path d="M 6.0 24.23 L 22.7 24.23 L 22.7 45.55 L 6.0 45.55 L 6.0 24.23" fill="none" stroke="#ffffff" stroke-linecap="round" stroke-linejoin="round" stroke-width="0.15"/>
    <circle cx="6.6" cy="24.6" r="0.25" fill="#ffffff"/>
    <path d="M 76.0 24.23 L 92.7 24.23 L 92.7 45.55 L 76.0 45.55 L 76.0 24.23" fill="none" stroke="#ffffff" stroke-linecap="round" stroke-linejoin="round" stroke-width="0.15"/>
    <circle cx="76.6" cy="24.6" r="0.25" fill="#ffffff"/>
    <path d="M 35.69 61.5 L 46.85 61.5 L 46.85 66.5 L 35.69 66.5 L 35.69 61.5" fill="none" stroke="#ffffff" stroke-linecap="round" stroke-linejoin="round" stroke-width="0.15"/>
    <circle cx="38.6" cy="62.6" r="0.25" fill="#ffffff"/>
    <path d="M 2.46 60.5 L 14.62 60.5 L 14.62 67.5 L 2.46 67.5 L 2.46 60.5" fill="none" stroke="#ffffff" stroke-linecap="round" stroke-linejoin="round" stroke-width="0.15"/>
    <circle cx="4.6" cy="62.6" r="0.25" fill="#ffffff"/>
    <path d="M -2.62 4.5 L 19.7 4.5 L 19.7 11.5 L -2.62 11.5 L -2.62 4.5" fill="none" stroke="#ffffff" stroke-linecap="round" stroke-linejoin="round" stroke-width="0.15"/>
    <circle cx="4.6" cy="6.6" r="0.25" fill="#ffffff"/>
    <path d="M 65.38 4.5 L 87.7 4.5 L 87.7 11.5 L 65.38 11.5 L 65.38 4.5" fill="none" stroke="#ffffff" stroke-linecap="round" stroke-linejoin="round" stroke-width="0.15"/>
    <circle cx="72.6" cy="6.6" r="0.25" fill="#ffffff"/>
    <path d="M 63.92 60.5 L 81.16 60.5 L 81.16 67.5 L 63.92 67.5 L 63.92 60.5" fill="none" stroke="#ffffff" stroke-linecap="round" stroke-linejoin="round" stroke-width="0.15"/>
    <circle cx="68.6" cy="62.6" r="0.25" fill="#ffffff"/>
    <path d="M 59.0 59.0 L 63.0 59.0 L 63.0 61.0 L 59.0 61.0 L 59.0 59.0" fill="none" stroke="#ffffff" stroke-linecap="round" stroke-linejoin="round" stroke-width="0.15"/>
    <path d="M 46.5 56.0 L 57.5 56.0 L 57.5 67.0 L 46.5 67.0 L 46.5 56.0" fill="none" stroke="#ffffff" stroke-linecap="round" stroke-linejoin="round" stroke-width="0.15"/>
    <path d="M 33.92 4.5 L 51.16 4.5 L 51.16 11.5 L 33.92 11.5 L 33.92 4.5" fill="none" stroke="#ffffff" stroke-linecap="round" stroke-linejoin="round" stroke-width="0.15"/>
    <circle cx="38.6" cy="6.6" r="0.25" fill="#ffffff"/>
    <path d="M 18.0 49.0 L 22.0 49.0 L 22.0 51.0 L 18.0 51.0 L 18.0 49.0" fill="none" stroke="#ffffff" stroke-linecap="round" stroke-linejoin="round" stroke-width="0.15"/>
    <path d="M 88.0 49.0 L 92.0 49.0 L 92.0 51.0 L 88.0 51.0 L 88.0 49.0" fill="none" stroke="#ffffff" stroke-linecap="round" stroke-linejoin="round" stroke-width="0.15"/>
    <circle cx="4.0" cy="4.0" r="3.25" fill="#ffffff"/>
    <circle cx="96.0" cy="4.0" r="3.25" fill="#ffffff"/>
    <circle cx="96.0" cy="71.0" r="3.25" fill="#ffffff"/>
    <circle cx="4.0" cy="71.0" r="3.25" fill="#ffffff"/>
    <path d="M 61.4 36.32 L 45.08 8.0" fill="none" stroke="#ffffff" stroke-linecap="round" stroke-linejoin="round" stroke-width="0.1"/>
    <path d="M 20.7 33.62 L 11.08 8.0" fill="none" stroke="#ffffff" stroke-linecap="round" stroke-linejoin="round" stroke-width="0.1"/>
    <path d="M 20.7 36.16 L 16.16 8.0" fill="none" stroke="#ffffff" stroke-linecap="round" stroke-linejoin="round" stroke-width="0.1"/>
    <path d="M 90.7 36.16 L 84.16 8.0" fill="none" stroke="#ffffff" stroke-linecap="round" stroke-linejoin="round" stroke-width="0.1"/>
    <path d="M 90.7 38.7 L 89.24 8.0" fill="none" stroke="#ffffff" stroke-linecap="round" stroke-linejoin="round" stroke-width="0.1"/>
    <path d="M 36.0 36.32 L 8.0 43.78" fill="none" stroke="#ffffff" stroke-linecap="round" stroke-linejoin="round" stroke-width="0.1"/>
  </g>
</svg>