<svg xmlns="http://www.w3.org/2000/svg" viewBox="0 0 64 64">
  <circle cx="32.0" cy="32.0" r="29.4" fill="none" stroke="#e3a55b" stroke-width="2.0" opacity="0.5"/>
  <path d="M 32.00 32.00 L 32.15 32.02 L 32.28 32.07 L 32.41 32.16 L 32.52 32.27 L 32.61 32.41 L 32.66 32.58 L 32.69 32.76 L 32.67 32.96 L 32.62 33.16 L 32.53 33.37 L 32.40 33.56 L 32.23 33.75 L 32.02 33.91 L 31.78 34.04 L 31.50 34.14 L 31.20 34.21 L 30.87 34.22 L 30.53 34.20 L 30.19 34.11 L 29.84 33.98 L 29.50 33.79 L 29.17 33.55 L 28.87 33.26 L 28.60 32.91 L 28.37 32.52 L 28.19 32.08 L 28.06 31.61 L 27.99 31.11 L 27.99 30.59 L 28.05 30.05 L 28.19 29.51 L 28.41 28.98 L 28.69 28.47 L 29.05 27.98 L 29.48 27.53 L 29.98 27.12 L 30.54 26.77 L 31.15 26.49 L 31.81 26.28 L 32.51 26.16 L 33.24 26.12 L 33.98 26.17 L 34.73 26.31 L 35.47 26.56 L 36.19 26.90 L 36.88 27.34 L 37.52 27.87 L 38.10 28.48 L 38.61 29.18 L 39.04 29.95 L 39.38 30.78 L 39.62 31.67 L 39.75 32.60 L 39.77 33.55 L 39.67 34.51 L 39.44 35.47 L 39.10 36.42 L 38.63 37.33 L 38.05 38.19 L 37.35 38.98 L 36.55 39.70 L 35.66 40.33 L 34.68 40.84 L 33.62 41.25 L 32.51 41.52 L 31.36 41.66 L 30.18 41.66 L 29.00 41.51 L 27.82 41.22 L 26.67 40.77 L 25.57 40.19 L 24.53 39.46 L 23.57 38.61 L 22.72 37.62 L 21.98 36.53 L 21.37 35.35 L 20.90 34.08 L 20.58 32.74 L 20.43 31.36 L 20.45 29.95 L 20.63 28.54 L 20.99 27.15 L 21.53 25.79 L 22.23 24.49 L 23.09 23.27 L 24.11 22.16 L 25.27 21.16 L 26.55 20.30 L 27.95 19.59 L 29.43 19.05 L 30.99 18.69 L 32.60 18.52 L 34.23 18.54 L 35.87 18.77 L 37.48 19.19 L 39.05 19.81 L 40.55 20.63 L 41.95 21.62 L 43.23 22.80 L 44.38 24.13 L 45.36 25.60 L 46.17 27.20 L 46.79 28.90 L 47.20 30.68 L 47.39 32.52 L 47.36 34.38 L 47.11 36.24 L 46.63 38.08 L 45.92 39.86 L 45.00 41.55 L 43.87 43.14 L 42.55 44.59 L 41.04 45.89 L 39.38 47.00 L 37.58 47.92 L 35.67 48.61 L 33.66 49.08 L 31.60 49.30 L 29.52 49.28 L 27.43 49.00 L 25.37 48.46 L 23.38 47.68 L 21.48 46.65 L 19.70 45.40 L 18.07 43.92 L 16.62 42.25 L 15.37 40.40 L 14.35 38.40 L 13.57 36.28 L 13.04 34.05 L 12.79 31.77 L 12.81 29.45 L 13.11 27.14 L 13.69 24.86 L 14.55 22.65 L 15.67 20.54 L 17.05 18.57 L 18.67 16.77 L 20.51 15.16 L 22.54 13.77 L 24.74 12.64 L 27.07 11.76 L 29.51 11.17 L 32.03 10.88 L 34.57 10.89 L 37.12 11.21 L 39.62 11.83 L 42.05 12.76 L 44.36 13.98 L 46.53 15.48 L 48.51 17.24 L 50.28 19.24 L 51.81 21.45 L 53.06 23.84 L 54.03 26.39 L 54.69 29.04 L 55.03 31.78" fill="none" stroke="#e3a55b" stroke-width="3.0" stroke-linecap="round"/>
  <circle cx="55.04" cy="32.00" r="3.0" fill="#f0c389"/>
</svg>