%TF.GenerationSoftware,KiCad,Pcbnew,9.0.9*%
%TF.CreationDate,2026-06-12T02:05:15+03:00*%
%TF.ProjectId,controller,636f6e74-726f-46c6-9c65-722e6b696361,rev?*%
%TF.SameCoordinates,Original*%
%TF.FileFunction,Copper,L2,Bot*%
%TF.FilePolarity,Positive*%
%FSLAX46Y46*%
G04 Gerber Fmt 4.6, Leading zero omitted, Abs format (unit mm)*
G04 Created by KiCad (PCBNEW 9.0.9) date 2026-06-12 02:05:15*
%MOMM*%
%LPD*%
G01*
G04 APERTURE LIST*
G04 Aperture macros list*
%AMRoundRect*
0 Rectangle with rounded corners*
0 $1 Rounding radius*
0 $2 $3 $4 $5 $6 $7 $8 $9 X,Y pos of 4 corners*
0 Add a 4 corners polygon primitive as box body*
4,1,4,$2,$3,$4,$5,$6,$7,$8,$9,$2,$3,0*
0 Add four circle primitives for the rounded corners*
1,1,$1+$1,$2,$3*
1,1,$1+$1,$4,$5*
1,1,$1+$1,$6,$7*
1,1,$1+$1,$8,$9*
0 Add four rect primitives between the rounded corners*
20,1,$1+$1,$2,$3,$4,$5,0*
20,1,$1+$1,$4,$5,$6,$7,0*
20,1,$1+$1,$6,$7,$8,$9,0*
20,1,$1+$1,$8,$9,$2,$3,0*%
G04 Aperture macros list end*
%TA.AperFunction,ComponentPad*%
%ADD10R,1.700000X1.700000*%
%TD*%
%TA.AperFunction,ComponentPad*%
%ADD11C,1.700000*%
%TD*%
%TA.AperFunction,ComponentPad*%
%ADD12RoundRect,0.250001X-1.149999X-1.149999X1.149999X-1.149999X1.149999X1.149999X-1.149999X1.149999X0*%
%TD*%
%TA.AperFunction,ComponentPad*%
%ADD13C,2.800000*%
%TD*%
%TA.AperFunction,ComponentPad*%
%ADD14RoundRect,0.250000X-0.550000X-0.550000X0.550000X-0.550000X0.550000X0.550000X-0.550000X0.550000X0*%
%TD*%
%TA.AperFunction,ComponentPad*%
%ADD15C,1.600000*%
%TD*%
%TA.AperFunction,ComponentPad*%
%ADD16RoundRect,0.250000X-0.750000X-0.750000X0.750000X-0.750000X0.750000X0.750000X-0.750000X0.750000X0*%
%TD*%
%TA.AperFunction,ComponentPad*%
%ADD17C,2.000000*%
%TD*%
%TA.AperFunction,ViaPad*%
%ADD18C,0.800000*%
%TD*%
%TA.AperFunction,Conductor*%
%ADD19C,0.250000*%
%TD*%
G04 APERTURE END LIST*
D10*
%TO.P,U1R,1*%
%TO.N,N_GND*%
X55400000Y-12000000D03*
D11*
%TO.P,U1R,2*%
%TO.N,N/C*%
X55400000Y-14540000D03*
%TO.P,U1R,3*%
X55400000Y-17080000D03*
%TO.P,U1R,4*%
X55400000Y-19620000D03*
%TO.P,U1R,5*%
%TO.N,N_5V*%
X55400000Y-22160000D03*
%TO.P,U1R,6*%
%TO.N,N_THSTEP*%
X55400000Y-24700000D03*
%TO.P,U1R,7*%
%TO.N,N_RHSTEP*%
X55400000Y-27240000D03*
%TO.P,U1R,8*%
%TO.N,N_PDN*%
X55400000Y-29780000D03*
%TO.P,U1R,9*%
%TO.N,N_ENDSTOP*%
X55400000Y-32320000D03*
%TO.P,U1R,10*%
%TO.N,N/C*%
X55400000Y-34860000D03*
%TO.P,U1R,11*%
X55400000Y-37400000D03*
%TO.P,U1R,12*%
X55400000Y-39940000D03*
%TO.P,U1R,13*%
X55400000Y-42480000D03*
%TO.P,U1R,14*%
X55400000Y-45020000D03*
%TO.P,U1R,15*%
%TO.N,N_GND*%
X55400000Y-47560000D03*
%TD*%
D10*
%TO.P,A1,1*%
%TO.N,N_GND*%
X10000000Y-20000000D03*
D11*
%TO.P,A1,2*%
X7460000Y-20000000D03*
%TO.P,A1,3*%
%TO.N,N_5V*%
X10000000Y-22540000D03*
%TO.P,A1,4*%
%TO.N,N_GND*%
X7460000Y-22540000D03*
%TO.P,A1,5*%
%TO.N,N_THDIR*%
X10000000Y-25080000D03*
%TO.P,A1,6*%
%TO.N,THM_A1*%
X7460000Y-25080000D03*
%TO.P,A1,7*%
%TO.N,N_THSTEP*%
X10000000Y-27620000D03*
%TO.P,A1,8*%
%TO.N,THM_A2*%
X7460000Y-27620000D03*
%TO.P,A1,9*%
%TO.N,N_PDN*%
X10000000Y-30160000D03*
%TO.P,A1,10*%
%TO.N,THM_B1*%
X7460000Y-30160000D03*
%TO.P,A1,11*%
%TO.N,N_GND*%
X10000000Y-32700000D03*
%TO.P,A1,12*%
%TO.N,THM_B2*%
X7460000Y-32700000D03*
%TO.P,A1,13*%
%TO.N,N_GND*%
X10000000Y-35240000D03*
%TO.P,A1,14*%
X7460000Y-35240000D03*
%TO.P,A1,15*%
%TO.N,N_EN*%
X10000000Y-37780000D03*
%TO.P,A1,16*%
%TO.N,N_12V*%
X7460000Y-37780000D03*
%TD*%
D12*
%TO.P,J3,1*%
%TO.N,RHM_A1*%
X72000000Y-6000000D03*
D13*
%TO.P,J3,2*%
%TO.N,RHM_A2*%
X77000000Y-6000000D03*
%TO.P,J3,3*%
%TO.N,RHM_B1*%
X82000000Y-6000000D03*
%TO.P,J3,4*%
%TO.N,RHM_B2*%
X87000000Y-6000000D03*
%TD*%
D10*
%TO.P,A2,1*%
%TO.N,N_GND*%
X80000000Y-20000000D03*
D11*
%TO.P,A2,2*%
X77460000Y-20000000D03*
%TO.P,A2,3*%
%TO.N,N_5V*%
X80000000Y-22540000D03*
%TO.P,A2,4*%
%TO.N,N_GND*%
X77460000Y-22540000D03*
%TO.P,A2,5*%
%TO.N,N_RHDIR*%
X80000000Y-25080000D03*
%TO.P,A2,6*%
%TO.N,RHM_A1*%
X77460000Y-25080000D03*
%TO.P,A2,7*%
%TO.N,N_RHSTEP*%
X80000000Y-27620000D03*
%TO.P,A2,8*%
%TO.N,RHM_A2*%
X77460000Y-27620000D03*
%TO.P,A2,9*%
%TO.N,N_PDN*%
X80000000Y-30160000D03*
%TO.P,A2,10*%
%TO.N,RHM_B1*%
X77460000Y-30160000D03*
%TO.P,A2,11*%
%TO.N,N_GND*%
X80000000Y-32700000D03*
%TO.P,A2,12*%
%TO.N,RHM_B2*%
X77460000Y-32700000D03*
%TO.P,A2,13*%
%TO.N,N_5V*%
X80000000Y-35240000D03*
%TO.P,A2,14*%
%TO.N,N_GND*%
X77460000Y-35240000D03*
%TO.P,A2,15*%
%TO.N,N_EN*%
X80000000Y-37780000D03*
%TO.P,A2,16*%
%TO.N,N_12V*%
X77460000Y-37780000D03*
%TD*%
D10*
%TO.P,BK1,1*%
%TO.N,N_12V*%
X36000000Y-56000000D03*
D11*
%TO.P,BK1,2*%
%TO.N,N_GND*%
X36000000Y-58540000D03*
%TO.P,BK1,3*%
%TO.N,N_5V*%
X36000000Y-61080000D03*
%TO.P,BK1,4*%
%TO.N,N_GND*%
X36000000Y-63620000D03*
%TD*%
D10*
%TO.P,U1L,1*%
%TO.N,N_3V3*%
X30000000Y-12000000D03*
D11*
%TO.P,U1L,2*%
%TO.N,N_EN_BTN*%
X30000000Y-14540000D03*
%TO.P,U1L,3*%
%TO.N,N/C*%
X30000000Y-17080000D03*
%TO.P,U1L,4*%
X30000000Y-19620000D03*
%TO.P,U1L,5*%
X30000000Y-22160000D03*
%TO.P,U1L,6*%
%TO.N,N_THDIR*%
X30000000Y-24700000D03*
%TO.P,U1L,7*%
%TO.N,N_RHDIR*%
X30000000Y-27240000D03*
%TO.P,U1L,8*%
%TO.N,N_UART_TX*%
X30000000Y-29780000D03*
%TO.P,U1L,9*%
%TO.N,N_EN*%
X30000000Y-32320000D03*
%TO.P,U1L,10*%
%TO.N,N_LEDG*%
X30000000Y-34860000D03*
%TO.P,U1L,11*%
%TO.N,N/C*%
X30000000Y-37400000D03*
%TO.P,U1L,12*%
X30000000Y-39940000D03*
%TO.P,U1L,13*%
X30000000Y-42480000D03*
%TO.P,U1L,14*%
X30000000Y-45020000D03*
%TO.P,U1L,15*%
X30000000Y-47560000D03*
%TD*%
D12*
%TO.P,J2,1*%
%TO.N,THM_A1*%
X6000000Y-6000000D03*
D13*
%TO.P,J2,2*%
%TO.N,THM_A2*%
X11000000Y-6000000D03*
%TO.P,J2,3*%
%TO.N,THM_B1*%
X16000000Y-6000000D03*
%TO.P,J2,4*%
%TO.N,THM_B2*%
X21000000Y-6000000D03*
%TD*%
D12*
%TO.P,J1,1*%
%TO.N,N_12VIN*%
X6000000Y-60000000D03*
D13*
%TO.P,J1,2*%
%TO.N,N_GND*%
X11000000Y-60000000D03*
%TD*%
D14*
%TO.P,C6,1*%
%TO.N,N_12V*%
X46000000Y-67000000D03*
D15*
%TO.P,C6,2*%
%TO.N,N_GND*%
X49500000Y-67000000D03*
%TD*%
D12*
%TO.P,J5,1*%
%TO.N,N_3V3*%
X40000000Y-6000000D03*
D13*
%TO.P,J5,2*%
%TO.N,N_ENDSTOP*%
X45000000Y-6000000D03*
%TO.P,J5,3*%
%TO.N,N_GND*%
X50000000Y-6000000D03*
%TD*%
D16*
%TO.P,C1,1*%
%TO.N,N_5V*%
X52000000Y-47000000D03*
D17*
%TO.P,C1,2*%
%TO.N,N_GND*%
X57000000Y-47000000D03*
%TD*%
D12*
%TO.P,J4,1*%
%TO.N,N_5V*%
X66000000Y-60000000D03*
D13*
%TO.P,J4,2*%
%TO.N,N_LEDDIN*%
X71000000Y-60000000D03*
%TO.P,J4,3*%
%TO.N,N_GND*%
X76000000Y-60000000D03*
%TD*%
D18*
%TO.N,N_EN*%
X56607000Y-65593999D03*
%TO.N,N_GND*%
X75471000Y-50841000D03*
X24950000Y-42000000D03*
X76862500Y-49050000D03*
X72950000Y-34000000D03*
X86129000Y-51938000D03*
X32066000Y-64279000D03*
X76862500Y-50950000D03*
X84950000Y-52000000D03*
X18950000Y-34000000D03*
X74116000Y-33247999D03*
X30912500Y-64000000D03*
X26135000Y-42000000D03*
X88950000Y-40616000D03*
X20099000Y-33713000D03*
X88950000Y-42000000D03*
X75559000Y-48771000D03*
%TO.N,N_PDN*%
X50071000Y-58672000D03*
%TO.N,N_UART_TX*%
X30935000Y-60025000D03*
%TO.N,RHM_B1*%
X81656000Y-30009000D03*
%TD*%
D19*
%TO.N,N_12V*%
X74220000Y-37780000D02*
X77460000Y-37780000D01*
X46000000Y-66000000D02*
X74220000Y-37780000D01*
X46000000Y-66000000D02*
X36000000Y-56000000D01*
X46000000Y-67000000D02*
X46000000Y-66000000D01*
%TO.N,N_5V*%
X52000000Y-47000000D02*
X52000000Y-38872000D01*
X56544000Y-36115000D02*
X57407000Y-35252000D01*
X54757000Y-36115000D02*
X56544000Y-36115000D01*
X57407000Y-32540999D02*
X55862000Y-30996000D01*
X52000000Y-38872000D02*
X54757000Y-36115000D01*
X78730000Y-33970000D02*
X78730000Y-23810000D01*
X78730000Y-23810000D02*
X80000000Y-22540000D01*
X57407000Y-35252000D02*
X57407000Y-32540999D01*
X54061000Y-23499000D02*
X55400000Y-22160000D01*
X54830000Y-30996000D02*
X54061000Y-30227000D01*
X55862000Y-30996000D02*
X54830000Y-30996000D01*
X80000000Y-35240000D02*
X78730000Y-33970000D01*
X54061000Y-30227000D02*
X54061000Y-23499000D01*
%TO.N,N_EN*%
X56607000Y-61173000D02*
X56607000Y-65593999D01*
X80000000Y-37780000D02*
X56607000Y-61173000D01*
%TO.N,N_ENDSTOP*%
X55400000Y-32320000D02*
X45000000Y-21920000D01*
X45000000Y-21920000D02*
X45000000Y-6000000D01*
%TO.N,N_PDN*%
X58465000Y-50278000D02*
X50071000Y-58672000D01*
X55400000Y-29780000D02*
X58465000Y-32845000D01*
X58465000Y-32845000D02*
X58465000Y-50278000D01*
%TO.N,N_UART_TX*%
X31319000Y-31099000D02*
X31319000Y-59641000D01*
X30000000Y-29780000D02*
X31319000Y-31099000D01*
X31319000Y-59641000D02*
X30935000Y-60025000D01*
%TO.N,RHM_A1*%
X72000000Y-6000000D02*
X72000000Y-19620000D01*
X72000000Y-19620000D02*
X77460000Y-25080000D01*
%TO.N,RHM_A2*%
X69755000Y-4437000D02*
X70752000Y-3440000D01*
X74440000Y-3440000D02*
X77000000Y-6000000D01*
X77460000Y-27620000D02*
X69755000Y-19915000D01*
X69755000Y-19915000D02*
X69755000Y-4437000D01*
X70752000Y-3440000D02*
X74440000Y-3440000D01*
%TO.N,RHM_B1*%
X81656000Y-30009000D02*
X81656000Y-6344000D01*
X81656000Y-6344000D02*
X82000000Y-6000000D01*
%TO.N,RHM_B2*%
X87000000Y-6000000D02*
X87000000Y-30685000D01*
X77460000Y-33454000D02*
X77460000Y-32700000D01*
X81175000Y-36510000D02*
X78799000Y-36510000D01*
X78799000Y-36510000D02*
X78676000Y-36387000D01*
X87000000Y-30685000D02*
X81175000Y-36510000D01*
X78676000Y-34670000D02*
X77460000Y-33454000D01*
X78676000Y-36387000D02*
X78676000Y-34670000D01*
%TO.N,THM_A1*%
X7460000Y-25080000D02*
X6000000Y-23620000D01*
X6000000Y-23620000D02*
X6000000Y-6000000D01*
%TO.N,THM_A2*%
X10823000Y-23810000D02*
X8799000Y-23810000D01*
X8676000Y-23933000D02*
X8676000Y-25685000D01*
X7460000Y-26901000D02*
X7460000Y-27620000D01*
X11967000Y-6967000D02*
X11967000Y-22666000D01*
X8676000Y-25685000D02*
X7460000Y-26901000D01*
X8799000Y-23810000D02*
X8676000Y-23933000D01*
X11967000Y-22666000D02*
X10823000Y-23810000D01*
X11000000Y-6000000D02*
X11967000Y-6967000D01*
%TO.N,THM_B1*%
X7460000Y-30160000D02*
X7460000Y-29502000D01*
X8799000Y-26350000D02*
X11429000Y-26350000D01*
X16000000Y-21779000D02*
X16000000Y-6000000D01*
X8730000Y-28232000D02*
X8730000Y-26419000D01*
X7460000Y-29502000D02*
X8730000Y-28232000D01*
X8730000Y-26419000D02*
X8799000Y-26350000D01*
X11429000Y-26350000D02*
X16000000Y-21779000D01*
%TO.N,THM_B2*%
X8730000Y-28959000D02*
X8799000Y-28890000D01*
X7460000Y-32700000D02*
X8730000Y-31430000D01*
X11037000Y-28890000D02*
X21000000Y-18927000D01*
X8799000Y-28890000D02*
X11037000Y-28890000D01*
X21000000Y-18927000D02*
X21000000Y-6000000D01*
X8730000Y-31430000D02*
X8730000Y-28959000D01*
%TD*%
%TA.AperFunction,Conductor*%
%TO.N,N_GND*%
G36*
X882308Y-72800000D02*
G01*
X1454415Y-73545584D01*
X2200000Y-74117691D01*
X2881555Y-74400000D01*
X600000Y-74400000D01*
X600000Y-72118446D01*
X882308Y-72800000D01*
G37*
%TD.AperFunction*%
%TA.AperFunction,Conductor*%
G36*
X80931000Y-29057192D02*
G01*
X80727056Y-28900701D01*
X80701220Y-28889999D01*
X80727056Y-28879298D01*
X80931000Y-28722806D01*
X80931000Y-29057192D01*
G37*
%TD.AperFunction*%
%TA.AperFunction,Conductor*%
G36*
X80931000Y-26517192D02*
G01*
X80727056Y-26360701D01*
X80701220Y-26349999D01*
X80727056Y-26339298D01*
X80931000Y-26182806D01*
X80931000Y-26517192D01*
G37*
%TD.AperFunction*%
%TA.AperFunction,Conductor*%
G36*
X70759378Y-8148819D02*
G01*
X71275000Y-8362396D01*
X71275000Y-19620000D01*
X71372131Y-19982500D01*
X71504814Y-20115183D01*
X71487347Y-20132652D01*
X76056285Y-24701590D01*
X76055434Y-24703647D01*
X76005886Y-25080000D01*
X76015070Y-25149765D01*
X70479999Y-19614694D01*
X70479999Y-7934443D01*
X70759378Y-8148819D01*
G37*
%TD.AperFunction*%
%TA.AperFunction,Conductor*%
G36*
X80931000Y-23977192D02*
G01*
X80727056Y-23820701D01*
X80701220Y-23809999D01*
X80727056Y-23799298D01*
X80931000Y-23642806D01*
X80931000Y-23977192D01*
G37*
%TD.AperFunction*%
%TA.AperFunction,Conductor*%
G36*
X56681999Y-34187747D02*
G01*
X56659298Y-34132943D01*
X56428213Y-33831786D01*
X56127056Y-33600701D01*
X56101220Y-33589999D01*
X56127056Y-33579298D01*
X56428213Y-33348213D01*
X56659298Y-33047056D01*
X56681999Y-32992251D01*
X56681999Y-34187747D01*
G37*
%TD.AperFunction*%
%TA.AperFunction,Conductor*%
G36*
X78227986Y-49959513D02*
G01*
X78280749Y-49999999D01*
X78227986Y-50040486D01*
X78125900Y-50173527D01*
X78148746Y-50000000D01*
X78125900Y-49826472D01*
X78227986Y-49959513D01*
G37*
%TD.AperFunction*%
%TA.AperFunction,Conductor*%
G36*
X94200000Y-882308D02*
G01*
X93454415Y-1454415D01*
X92882308Y-2200000D01*
X92522667Y-3068251D01*
X92400000Y-4000000D01*
X92522667Y-4931748D01*
X92882308Y-5800000D01*
X93454415Y-6545584D01*
X94200000Y-7117691D01*
X95068251Y-7477332D01*
X96000000Y-7600000D01*
X96931748Y-7477332D01*
X97800000Y-7117691D01*
X98545584Y-6545584D01*
X99117691Y-5800000D01*
X99400000Y-5118444D01*
X99400000Y-69881554D01*
X99117691Y-69200000D01*
X98545584Y-68454415D01*
X97800000Y-67882308D01*
X96931748Y-67522667D01*
X96000000Y-67400000D01*
X95068251Y-67522667D01*
X94200000Y-67882308D01*
X93454415Y-68454415D01*
X92882308Y-69200000D01*
X92522667Y-70068251D01*
X92400000Y-71000000D01*
X92522667Y-71931748D01*
X92882308Y-72800000D01*
X93454415Y-73545584D01*
X94200000Y-74117691D01*
X94881555Y-74400000D01*
X5118444Y-74400000D01*
X5800000Y-74117691D01*
X6545584Y-73545584D01*
X7117691Y-72800000D01*
X7477332Y-71931748D01*
X7600000Y-71000000D01*
X7477332Y-70068251D01*
X7117691Y-69200000D01*
X6545584Y-68454415D01*
X5800000Y-67882308D01*
X4931748Y-67522667D01*
X3999999Y-67400000D01*
X3068251Y-67522667D01*
X2199999Y-67882308D01*
X1454415Y-68454415D01*
X882308Y-69200000D01*
X600000Y-69881552D01*
X600000Y-66000000D01*
X13018291Y-66000000D01*
X13072187Y-66409376D01*
X13230200Y-66790853D01*
X13481563Y-67118436D01*
X13809146Y-67369799D01*
X14190623Y-67527812D01*
X14600000Y-67581708D01*
X15009376Y-67527812D01*
X15390854Y-67369799D01*
X15718436Y-67118436D01*
X15969799Y-66790853D01*
X15999999Y-66717942D01*
X16030200Y-66790853D01*
X16281563Y-67118436D01*
X16609146Y-67369799D01*
X16990623Y-67527812D01*
X17400000Y-67581708D01*
X17809376Y-67527812D01*
X18190853Y-67369799D01*
X18518436Y-67118436D01*
X18769799Y-66790853D01*
X18927812Y-66409376D01*
X18981707Y-66000000D01*
X18927812Y-65590623D01*
X18769799Y-65209146D01*
X18647682Y-65050000D01*
X21704457Y-65050000D01*
X21750731Y-65401487D01*
X21886400Y-65729021D01*
X22094328Y-65999999D01*
X21886400Y-66270978D01*
X21750731Y-66598512D01*
X21704457Y-66950000D01*
X21750731Y-67301487D01*
X21886400Y-67629021D01*
X22102218Y-67910281D01*
X22383478Y-68126099D01*
X22711012Y-68261768D01*
X23062500Y-68308043D01*
X23413987Y-68261768D01*
X23741521Y-68126099D01*
X23905857Y-68000000D01*
X28017456Y-68000000D01*
X28049231Y-68241360D01*
X28142393Y-68466272D01*
X28290591Y-68659408D01*
X28483728Y-68807606D01*
X28708639Y-68900768D01*
X28950000Y-68932544D01*
X29191360Y-68900768D01*
X29416272Y-68807606D01*
X29609408Y-68659408D01*
X29757606Y-68466272D01*
X29850768Y-68241360D01*
X29882544Y-68000000D01*
X30117456Y-68000000D01*
X30149231Y-68241360D01*
X30242393Y-68466272D01*
X30390591Y-68659408D01*
X30583728Y-68807606D01*
X30808639Y-68900768D01*
X31050000Y-68932544D01*
X31291360Y-68900768D01*
X31516272Y-68807606D01*
X31709408Y-68659408D01*
X31857606Y-68466272D01*
X31950768Y-68241360D01*
X31982544Y-68000000D01*
X31950768Y-67758639D01*
X31857606Y-67533728D01*
X31709408Y-67340591D01*
X31516272Y-67192393D01*
X31291360Y-67099231D01*
X31050000Y-67067455D01*
X30808639Y-67099231D01*
X30583728Y-67192393D01*
X30390591Y-67340591D01*
X30242393Y-67533728D01*
X30149231Y-67758639D01*
X30117456Y-68000000D01*
X29882544Y-68000000D01*
X29850768Y-67758639D01*
X29757606Y-67533728D01*
X29609408Y-67340591D01*
X29416272Y-67192393D01*
X29191360Y-67099231D01*
X28950000Y-67067455D01*
X28708639Y-67099231D01*
X28483728Y-67192393D01*
X28290591Y-67340591D01*
X28142393Y-67533728D01*
X28049231Y-67758639D01*
X28017456Y-68000000D01*
X23905857Y-68000000D01*
X24022781Y-67910281D01*
X24238599Y-67629021D01*
X24374268Y-67301487D01*
X24383934Y-67228064D01*
X24586012Y-67311768D01*
X24937500Y-67358043D01*
X25288987Y-67311768D01*
X25616521Y-67176099D01*
X25897781Y-66960281D01*
X26113599Y-66679021D01*
X26249268Y-66351487D01*
X26295543Y-66000000D01*
X26249268Y-65648512D01*
X26113599Y-65320978D01*
X25897781Y-65039718D01*
X25616521Y-64823900D01*
X25288987Y-64688231D01*
X24937500Y-64641957D01*
X24586012Y-64688231D01*
X24383934Y-64771934D01*
X24374268Y-64698512D01*
X24238599Y-64370978D01*
X24022781Y-64089718D01*
X23905858Y-64000000D01*
X27713203Y-64000000D01*
X27760031Y-64355694D01*
X27897323Y-64687148D01*
X28115725Y-64971774D01*
X28400351Y-65190176D01*
X28731805Y-65327468D01*
X29087500Y-65374297D01*
X29443194Y-65327468D01*
X29774648Y-65190176D01*
X30059274Y-64971774D01*
X30277676Y-64687148D01*
X30414968Y-64355694D01*
X30461796Y-64000000D01*
X30414968Y-63644305D01*
X30277676Y-63312851D01*
X30059274Y-63028225D01*
X29774648Y-62809823D01*
X29443194Y-62672531D01*
X29087500Y-62625703D01*
X28731805Y-62672531D01*
X28400351Y-62809823D01*
X28115725Y-63028225D01*
X27897323Y-63312851D01*
X27760031Y-63644305D01*
X27713203Y-64000000D01*
X23905858Y-64000000D01*
X23741521Y-63873900D01*
X23413987Y-63738231D01*
X23062500Y-63691956D01*
X22711012Y-63738231D01*
X22383478Y-63873900D01*
X22102218Y-64089718D01*
X21886400Y-64370978D01*
X21750731Y-64698512D01*
X21704457Y-65050000D01*
X18647682Y-65050000D01*
X18518436Y-64881563D01*
X18190853Y-64630200D01*
X17809376Y-64472187D01*
X17400000Y-64418291D01*
X16990623Y-64472187D01*
X16609146Y-64630200D01*
X16281563Y-64881563D01*
X16030200Y-65209146D01*
X15999999Y-65282056D01*
X15969799Y-65209146D01*
X15718436Y-64881563D01*
X15390854Y-64630200D01*
X15009376Y-64472187D01*
X14600000Y-64418291D01*
X14190623Y-64472187D01*
X13809145Y-64630200D01*
X13481563Y-64881563D01*
X13230200Y-65209146D01*
X13072187Y-65590623D01*
X13018291Y-66000000D01*
X600000Y-66000000D01*
X600000Y-60000000D01*
X3518757Y-60000000D01*
X3603303Y-60642192D01*
X3851180Y-61240621D01*
X4245496Y-61754503D01*
X4759378Y-62148819D01*
X5357807Y-62396696D01*
X6000000Y-62481243D01*
X6642192Y-62396696D01*
X7240621Y-62148819D01*
X7754503Y-61754503D01*
X8148819Y-61240621D01*
X8215350Y-61080000D01*
X34545887Y-61080000D01*
X34595434Y-61456352D01*
X34740701Y-61807056D01*
X34971786Y-62108213D01*
X35272943Y-62339298D01*
X35623647Y-62484565D01*
X36000000Y-62534113D01*
X36376352Y-62484565D01*
X36727056Y-62339298D01*
X37028213Y-62108213D01*
X37259298Y-61807056D01*
X37404565Y-61456352D01*
X37454113Y-61080000D01*
X37404565Y-60703647D01*
X37259298Y-60352943D01*
X37028213Y-60051786D01*
X36727056Y-59820701D01*
X36376352Y-59675434D01*
X36000000Y-59625887D01*
X35623647Y-59675434D01*
X35272943Y-59820701D01*
X34971786Y-60051786D01*
X34740701Y-60352943D01*
X34595434Y-60703647D01*
X34545887Y-61080000D01*
X8215350Y-61080000D01*
X8396696Y-60642192D01*
X8481243Y-60000000D01*
X8396696Y-59357807D01*
X8148819Y-58759378D01*
X7754503Y-58245496D01*
X7240621Y-57851180D01*
X6642192Y-57603303D01*
X5999999Y-57518757D01*
X5357807Y-57603303D01*
X4759378Y-57851180D01*
X4245496Y-58245496D01*
X3851180Y-58759378D01*
X3603303Y-59357807D01*
X3518757Y-60000000D01*
X600000Y-60000000D01*
X600000Y-42000000D01*
X21659057Y-42000000D01*
X21706452Y-42360002D01*
X21845408Y-42695471D01*
X22066454Y-42983545D01*
X22354528Y-43204591D01*
X22689997Y-43343547D01*
X23050000Y-43390943D01*
X23410002Y-43343547D01*
X23745471Y-43204591D01*
X24033545Y-42983545D01*
X24254591Y-42695471D01*
X24393547Y-42360002D01*
X24440943Y-42000000D01*
X24393547Y-41639997D01*
X24254591Y-41304528D01*
X24033545Y-41016454D01*
X23745471Y-40795408D01*
X23410002Y-40656452D01*
X23050000Y-40609057D01*
X22689997Y-40656452D01*
X22354528Y-40795408D01*
X22066454Y-41016454D01*
X21845408Y-41304528D01*
X21706452Y-41639997D01*
X21659057Y-42000000D01*
X600000Y-42000000D01*
X600000Y-37780000D01*
X6005886Y-37780000D01*
X6055434Y-38156352D01*
X6200701Y-38507056D01*
X6431786Y-38808213D01*
X6732943Y-39039298D01*
X7083647Y-39184565D01*
X7460000Y-39234113D01*
X7836352Y-39184565D01*
X8187056Y-39039298D01*
X8488213Y-38808213D01*
X8719298Y-38507056D01*
X8729999Y-38481220D01*
X8740701Y-38507056D01*
X8971786Y-38808213D01*
X9272943Y-39039298D01*
X9623647Y-39184565D01*
X10000000Y-39234113D01*
X10376352Y-39184565D01*
X10727056Y-39039298D01*
X11028213Y-38808213D01*
X11259298Y-38507056D01*
X11404565Y-38156352D01*
X11454113Y-37780000D01*
X11404565Y-37403647D01*
X11259298Y-37052943D01*
X11028213Y-36751786D01*
X10727056Y-36520701D01*
X10376352Y-36375434D01*
X10000000Y-36325887D01*
X9623647Y-36375434D01*
X9272943Y-36520701D01*
X8971786Y-36751786D01*
X8740701Y-37052943D01*
X8729999Y-37078778D01*
X8719298Y-37052943D01*
X8488213Y-36751786D01*
X8187056Y-36520701D01*
X7836352Y-36375434D01*
X7460000Y-36325887D01*
X7083647Y-36375434D01*
X6732943Y-36520701D01*
X6431786Y-36751786D01*
X6200701Y-37052943D01*
X6055434Y-37403647D01*
X6005886Y-37780000D01*
X600000Y-37780000D01*
X600000Y-5118446D01*
X882308Y-5800000D01*
X1454415Y-6545584D01*
X2200000Y-7117691D01*
X3068251Y-7477332D01*
X4000000Y-7600000D01*
X4115294Y-7584821D01*
X4245496Y-7754503D01*
X4759378Y-8148819D01*
X5275000Y-8362396D01*
X5275000Y-23620000D01*
X5372131Y-23982500D01*
X5504814Y-24115183D01*
X5487347Y-24132652D01*
X6056285Y-24701590D01*
X6055434Y-24703647D01*
X6005886Y-25080000D01*
X6055434Y-25456352D01*
X6200701Y-25807056D01*
X6431786Y-26108213D01*
X6732943Y-26339298D01*
X6758778Y-26349999D01*
X6732943Y-26360701D01*
X6431786Y-26591786D01*
X6200701Y-26892943D01*
X6055434Y-27243647D01*
X6005886Y-27620000D01*
X6055434Y-27996352D01*
X6200701Y-28347056D01*
X6431786Y-28648213D01*
X6732943Y-28879298D01*
X6758778Y-28889999D01*
X6732943Y-28900701D01*
X6431786Y-29131786D01*
X6200701Y-29432943D01*
X6055434Y-29783647D01*
X6005886Y-30160000D01*
X6055434Y-30536352D01*
X6200701Y-30887056D01*
X6431786Y-31188213D01*
X6732943Y-31419298D01*
X6758778Y-31429999D01*
X6732943Y-31440701D01*
X6431786Y-31671786D01*
X6200701Y-31972943D01*
X6055434Y-32323647D01*
X6005886Y-32700000D01*
X6055434Y-33076352D01*
X6200701Y-33427056D01*
X6431786Y-33728213D01*
X6732943Y-33959298D01*
X7083647Y-34104565D01*
X7460000Y-34154113D01*
X7836352Y-34104565D01*
X8088793Y-34000000D01*
X15659057Y-34000000D01*
X15706452Y-34360002D01*
X15845408Y-34695471D01*
X16066454Y-34983545D01*
X16354528Y-35204591D01*
X16689997Y-35343547D01*
X17050000Y-35390943D01*
X17410002Y-35343547D01*
X17745471Y-35204591D01*
X18033545Y-34983545D01*
X18254591Y-34695471D01*
X18393547Y-34360002D01*
X18440943Y-34000000D01*
X18393547Y-33639997D01*
X18254591Y-33304528D01*
X18033545Y-33016454D01*
X17745471Y-32795408D01*
X17410002Y-32656452D01*
X17050000Y-32609057D01*
X16689997Y-32656452D01*
X16354528Y-32795408D01*
X16066454Y-33016454D01*
X15845408Y-33304528D01*
X15706452Y-33639997D01*
X15659057Y-34000000D01*
X8088793Y-34000000D01*
X8187056Y-33959298D01*
X8488213Y-33728213D01*
X8719298Y-33427056D01*
X8864565Y-33076352D01*
X8914113Y-32700000D01*
X8864565Y-32323647D01*
X8863713Y-32321590D01*
X9242652Y-31942652D01*
X9225184Y-31925184D01*
X9357868Y-31792500D01*
X9437661Y-31494708D01*
X9439393Y-31488244D01*
X9623647Y-31564565D01*
X10000000Y-31614113D01*
X10376352Y-31564565D01*
X10727056Y-31419298D01*
X11028213Y-31188213D01*
X11259298Y-30887056D01*
X11404565Y-30536352D01*
X11454113Y-30160000D01*
X11404565Y-29783647D01*
X11304967Y-29543198D01*
X11399500Y-29517868D01*
X11532184Y-29385184D01*
X11549652Y-29402652D01*
X21512652Y-19439652D01*
X21495184Y-19422184D01*
X21627868Y-19289500D01*
X21725000Y-18927000D01*
X21725000Y-12000000D01*
X28197918Y-12000000D01*
X28259322Y-12466413D01*
X28439351Y-12901041D01*
X28725735Y-13274264D01*
X29003533Y-13487425D01*
X28971786Y-13511786D01*
X28740701Y-13812943D01*
X28595434Y-14163647D01*
X28545887Y-14540000D01*
X28595434Y-14916352D01*
X28740701Y-15267056D01*
X28971786Y-15568213D01*
X29272943Y-15799298D01*
X29298778Y-15809999D01*
X29272943Y-15820701D01*
X28971786Y-16051786D01*
X28740701Y-16352943D01*
X28595434Y-16703647D01*
X28545887Y-17080000D01*
X28595434Y-17456352D01*
X28740701Y-17807056D01*
X28971786Y-18108213D01*
X29272943Y-18339298D01*
X29298778Y-18349999D01*
X29272943Y-18360701D01*
X28971786Y-18591786D01*
X28740701Y-18892943D01*
X28595434Y-19243647D01*
X28545887Y-19620000D01*
X28595434Y-19996352D01*
X28740701Y-20347056D01*
X28971786Y-20648213D01*
X29272943Y-20879298D01*
X29298778Y-20889999D01*
X29272943Y-20900701D01*
X28971786Y-21131786D01*
X28740701Y-21432943D01*
X28595434Y-21783647D01*
X28545887Y-22160000D01*
X28595434Y-22536352D01*
X28740701Y-22887056D01*
X28971786Y-23188213D01*
X29272943Y-23419298D01*
X29298778Y-23429999D01*
X29272943Y-23440701D01*
X28971786Y-23671786D01*
X28740701Y-23972943D01*
X28595434Y-24323647D01*
X28545887Y-24700000D01*
X28595434Y-25076352D01*
X28740701Y-25427056D01*
X28971786Y-25728213D01*
X29272943Y-25959298D01*
X29298778Y-25969999D01*
X29272943Y-25980701D01*
X28971786Y-26211786D01*
X28740701Y-26512943D01*
X28595434Y-26863647D01*
X28545887Y-27240000D01*
X28595434Y-27616352D01*
X28740701Y-27967056D01*
X28971786Y-28268213D01*
X29272943Y-28499298D01*
X29298778Y-28509999D01*
X29272943Y-28520701D01*
X28971786Y-28751786D01*
X28740701Y-29052943D01*
X28595434Y-29403647D01*
X28545887Y-29780000D01*
X28595434Y-30156352D01*
X28740701Y-30507056D01*
X28971786Y-30808213D01*
X29272943Y-31039298D01*
X29298778Y-31049999D01*
X29272943Y-31060701D01*
X28971786Y-31291786D01*
X28740701Y-31592943D01*
X28595434Y-31943647D01*
X28545887Y-32320000D01*
X28595434Y-32696352D01*
X28740701Y-33047056D01*
X28971786Y-33348213D01*
X29272943Y-33579298D01*
X29298778Y-33589999D01*
X29272943Y-33600701D01*
X28971786Y-33831786D01*
X28740701Y-34132943D01*
X28595434Y-34483647D01*
X28545887Y-34860000D01*
X28595434Y-35236352D01*
X28740701Y-35587056D01*
X28971786Y-35888213D01*
X29272943Y-36119298D01*
X29298778Y-36129999D01*
X29272943Y-36140701D01*
X28971786Y-36371786D01*
X28740701Y-36672943D01*
X28595434Y-37023647D01*
X28545887Y-37400000D01*
X28595434Y-37776352D01*
X28740701Y-38127056D01*
X28971786Y-38428213D01*
X29272943Y-38659298D01*
X29298778Y-38669999D01*
X29272943Y-38680701D01*
X28971786Y-38911786D01*
X28740701Y-39212943D01*
X28595434Y-39563647D01*
X28545887Y-39940000D01*
X28595434Y-40316352D01*
X28740701Y-40667056D01*
X28971786Y-40968213D01*
X29272943Y-41199298D01*
X29298778Y-41209999D01*
X29272943Y-41220701D01*
X28971786Y-41451786D01*
X28740701Y-41752943D01*
X28595434Y-42103647D01*
X28545887Y-42480000D01*
X28595434Y-42856352D01*
X28740701Y-43207056D01*
X28971786Y-43508213D01*
X29272943Y-43739298D01*
X29298778Y-43749999D01*
X29272943Y-43760701D01*
X28971786Y-43991786D01*
X28740701Y-44292943D01*
X28595434Y-44643647D01*
X28545887Y-45020000D01*
X28595434Y-45396352D01*
X28740701Y-45747056D01*
X28971786Y-46048213D01*
X29272943Y-46279298D01*
X29298778Y-46289999D01*
X29272943Y-46300701D01*
X28971786Y-46531786D01*
X28740701Y-46832943D01*
X28595434Y-47183647D01*
X28545887Y-47560000D01*
X28595434Y-47936352D01*
X28740701Y-48287056D01*
X28971786Y-48588213D01*
X29272943Y-48819298D01*
X29623647Y-48964565D01*
X30000000Y-49014113D01*
X30376352Y-48964565D01*
X30593999Y-48874412D01*
X30593999Y-59116370D01*
X30435000Y-59158974D01*
X30068974Y-59525000D01*
X29935000Y-60025000D01*
X30068974Y-60525000D01*
X30435000Y-60891025D01*
X30935000Y-61025000D01*
X31435000Y-60891025D01*
X31801025Y-60525000D01*
X31935000Y-60025000D01*
X31932964Y-60017402D01*
X31946868Y-60003499D01*
X32043999Y-59641000D01*
X32043999Y-56000000D01*
X34197918Y-56000000D01*
X34259322Y-56466413D01*
X34439351Y-56901041D01*
X34725735Y-57274264D01*
X35098959Y-57560648D01*
X35533586Y-57740677D01*
X36000000Y-57802082D01*
X36466413Y-57740677D01*
X36642453Y-57667758D01*
X44834509Y-65859814D01*
X44586027Y-66183642D01*
X44422918Y-66577422D01*
X44367285Y-67000000D01*
X44422918Y-67422577D01*
X44586027Y-67816357D01*
X44845496Y-68154503D01*
X45183642Y-68413972D01*
X45577422Y-68577081D01*
X46000000Y-68632715D01*
X46422577Y-68577081D01*
X46816357Y-68413972D01*
X47154503Y-68154503D01*
X47413972Y-67816357D01*
X47577081Y-67422577D01*
X47632715Y-67000000D01*
X47577081Y-66577422D01*
X47413972Y-66183642D01*
X47165489Y-65859814D01*
X49025303Y-64000000D01*
X49713203Y-64000000D01*
X49760031Y-64355694D01*
X49897323Y-64687148D01*
X50115725Y-64971774D01*
X50400351Y-65190176D01*
X50731805Y-65327468D01*
X51087500Y-65374297D01*
X51443194Y-65327468D01*
X51774648Y-65190176D01*
X51999999Y-65017257D01*
X52225351Y-65190176D01*
X52556805Y-65327468D01*
X52912500Y-65374297D01*
X53268194Y-65327468D01*
X53599648Y-65190176D01*
X53884274Y-64971774D01*
X54102676Y-64687148D01*
X54239968Y-64355694D01*
X54286797Y-64000000D01*
X54239968Y-63644305D01*
X54102676Y-63312851D01*
X53884274Y-63028225D01*
X53599648Y-62809823D01*
X53268194Y-62672531D01*
X52912500Y-62625703D01*
X52556805Y-62672531D01*
X52225351Y-62809823D01*
X51999999Y-62982741D01*
X51774648Y-62809823D01*
X51443194Y-62672531D01*
X51087500Y-62625703D01*
X50731805Y-62672531D01*
X50400351Y-62809823D01*
X50115725Y-63028225D01*
X49897323Y-63312851D01*
X49760031Y-63644305D01*
X49713203Y-64000000D01*
X49025303Y-64000000D01*
X64681428Y-48343875D01*
X64912499Y-48374297D01*
X65268194Y-48327468D01*
X65599648Y-48190176D01*
X65884274Y-47971774D01*
X66102676Y-47687148D01*
X66239968Y-47355694D01*
X66286796Y-47000000D01*
X66256375Y-46768928D01*
X74520304Y-38505000D01*
X76199849Y-38505000D01*
X76200701Y-38507056D01*
X76431786Y-38808213D01*
X76732943Y-39039298D01*
X77083647Y-39184565D01*
X77460000Y-39234113D01*
X77529765Y-39224928D01*
X56094347Y-60660347D01*
X56111815Y-60677815D01*
X55979131Y-60810500D01*
X55882000Y-61173000D01*
X55882000Y-64952973D01*
X55740974Y-65093999D01*
X55607000Y-65593999D01*
X55740974Y-66093999D01*
X56107000Y-66460025D01*
X56607000Y-66593999D01*
X57107000Y-66460025D01*
X57473025Y-66093999D01*
X57498212Y-66000000D01*
X57713203Y-66000000D01*
X57760031Y-66355694D01*
X57897323Y-66687148D01*
X58115725Y-66971774D01*
X58400351Y-67190176D01*
X58731805Y-67327468D01*
X59087500Y-67374297D01*
X59443194Y-67327468D01*
X59774648Y-67190176D01*
X59999999Y-67017257D01*
X60225351Y-67190176D01*
X60556805Y-67327468D01*
X60912500Y-67374297D01*
X61268194Y-67327468D01*
X61599648Y-67190176D01*
X61884274Y-66971774D01*
X62102676Y-66687148D01*
X62239968Y-66355694D01*
X62286797Y-66000000D01*
X62239968Y-65644305D01*
X62102676Y-65312851D01*
X61884274Y-65028225D01*
X61599648Y-64809823D01*
X61268194Y-64672531D01*
X60912500Y-64625703D01*
X60556805Y-64672531D01*
X60225351Y-64809823D01*
X59999999Y-64982741D01*
X59774648Y-64809823D01*
X59443194Y-64672531D01*
X59087500Y-64625703D01*
X58731805Y-64672531D01*
X58400351Y-64809823D01*
X58115725Y-65028225D01*
X57897323Y-65312851D01*
X57760031Y-65644305D01*
X57713203Y-66000000D01*
X57498212Y-66000000D01*
X57607000Y-65593999D01*
X57473025Y-65093999D01*
X57332000Y-64952974D01*
X57332000Y-61473303D01*
X58805303Y-60000000D01*
X63518757Y-60000000D01*
X63603303Y-60642192D01*
X63851180Y-61240621D01*
X64245496Y-61754503D01*
X64759378Y-62148819D01*
X65357807Y-62396696D01*
X66000000Y-62481243D01*
X66642192Y-62396696D01*
X67240621Y-62148819D01*
X67754503Y-61754503D01*
X68148819Y-61240621D01*
X68396696Y-60642192D01*
X68481243Y-60000000D01*
X68995671Y-60000000D01*
X69063966Y-60518758D01*
X69264200Y-61002164D01*
X69582725Y-61417274D01*
X69997835Y-61735799D01*
X70481241Y-61936033D01*
X71000000Y-62004329D01*
X71518758Y-61936033D01*
X72002164Y-61735799D01*
X72417274Y-61417274D01*
X72735799Y-61002164D01*
X72936033Y-60518758D01*
X73004329Y-60000000D01*
X72936033Y-59481241D01*
X72735799Y-58997835D01*
X72417274Y-58582725D01*
X72002164Y-58264200D01*
X71518758Y-58063966D01*
X71000000Y-57995671D01*
X70481241Y-58063966D01*
X69997835Y-58264200D01*
X69582725Y-58582725D01*
X69264200Y-58997835D01*
X69063966Y-59481241D01*
X68995671Y-60000000D01*
X68481243Y-60000000D01*
X68396696Y-59357807D01*
X68148819Y-58759378D01*
X67754503Y-58245496D01*
X67240621Y-57851180D01*
X66642192Y-57603303D01*
X66000000Y-57518757D01*
X65357807Y-57603303D01*
X64759378Y-57851180D01*
X64245496Y-58245496D01*
X63851180Y-58759378D01*
X63603303Y-59357807D01*
X63518757Y-60000000D01*
X58805303Y-60000000D01*
X68805303Y-50000000D01*
X75576253Y-50000000D01*
X75620081Y-50332904D01*
X75748578Y-50643123D01*
X75952986Y-50909513D01*
X76219377Y-51113921D01*
X76529595Y-51242418D01*
X76862500Y-51286246D01*
X77195404Y-51242418D01*
X77505623Y-51113921D01*
X77772013Y-50909513D01*
X77874099Y-50776471D01*
X77851254Y-50950000D01*
X77895081Y-51282904D01*
X78023578Y-51593123D01*
X78227986Y-51859513D01*
X78494377Y-52063921D01*
X78804595Y-52192418D01*
X79137500Y-52236246D01*
X79470404Y-52192418D01*
X79780623Y-52063921D01*
X79863927Y-52000000D01*
X81659056Y-52000000D01*
X81706452Y-52360002D01*
X81845408Y-52695471D01*
X82066454Y-52983545D01*
X82354528Y-53204591D01*
X82689997Y-53343547D01*
X83050000Y-53390943D01*
X83410002Y-53343547D01*
X83745471Y-53204591D01*
X84033545Y-52983545D01*
X84254591Y-52695471D01*
X84393547Y-52360002D01*
X84440943Y-52000000D01*
X84393547Y-51639997D01*
X84254591Y-51304528D01*
X84033545Y-51016454D01*
X83745471Y-50795408D01*
X83410002Y-50656452D01*
X83050000Y-50609057D01*
X82689997Y-50656452D01*
X82354528Y-50795408D01*
X82066454Y-51016454D01*
X81845408Y-51304528D01*
X81706452Y-51639997D01*
X81659056Y-52000000D01*
X79863927Y-52000000D01*
X80047013Y-51859513D01*
X80251421Y-51593123D01*
X80379918Y-51282904D01*
X80423746Y-50950000D01*
X80379918Y-50617095D01*
X80251421Y-50306877D01*
X80047013Y-50040486D01*
X79994249Y-49999999D01*
X80047013Y-49959513D01*
X80251421Y-49693123D01*
X80379918Y-49382904D01*
X80423746Y-49050000D01*
X80379918Y-48717095D01*
X80251421Y-48406876D01*
X80047013Y-48140486D01*
X79780623Y-47936078D01*
X79470404Y-47807581D01*
X79137500Y-47763754D01*
X78804595Y-47807581D01*
X78494377Y-47936078D01*
X78227986Y-48140486D01*
X78023578Y-48406876D01*
X77895081Y-48717095D01*
X77851254Y-49050000D01*
X77874099Y-49223527D01*
X77772013Y-49090486D01*
X77505623Y-48886078D01*
X77195404Y-48757581D01*
X76862500Y-48713754D01*
X76529595Y-48757581D01*
X76219377Y-48886078D01*
X75952986Y-49090486D01*
X75748578Y-49356877D01*
X75620081Y-49667095D01*
X75576253Y-50000000D01*
X68805303Y-50000000D01*
X76805303Y-42000000D01*
X85659056Y-42000000D01*
X85706452Y-42360002D01*
X85845408Y-42695471D01*
X86066454Y-42983545D01*
X86354528Y-43204591D01*
X86689997Y-43343547D01*
X87050000Y-43390943D01*
X87410002Y-43343547D01*
X87745471Y-43204591D01*
X88033545Y-42983545D01*
X88254591Y-42695471D01*
X88393547Y-42360002D01*
X88440943Y-42000000D01*
X88393547Y-41639997D01*
X88254591Y-41304528D01*
X88033545Y-41016454D01*
X87745471Y-40795408D01*
X87410002Y-40656452D01*
X87050000Y-40609057D01*
X86689997Y-40656452D01*
X86354528Y-40795408D01*
X86066454Y-41016454D01*
X85845408Y-41304528D01*
X85706452Y-41639997D01*
X85659056Y-42000000D01*
X76805303Y-42000000D01*
X79621590Y-39183713D01*
X79623647Y-39184565D01*
X80000000Y-39234113D01*
X80376352Y-39184565D01*
X80727056Y-39039298D01*
X81028213Y-38808213D01*
X81259298Y-38507056D01*
X81404565Y-38156352D01*
X81454113Y-37780000D01*
X81404565Y-37403647D01*
X81318753Y-37196481D01*
X81537500Y-37137868D01*
X81670183Y-37005183D01*
X81687652Y-37022652D01*
X87512652Y-31197652D01*
X87495184Y-31180184D01*
X87627868Y-31047500D01*
X87725000Y-30685000D01*
X87725000Y-7850604D01*
X88002164Y-7735799D01*
X88417274Y-7417274D01*
X88735799Y-7002164D01*
X88936033Y-6518758D01*
X89004329Y-6000000D01*
X88936033Y-5481241D01*
X88735799Y-4997835D01*
X88417274Y-4582725D01*
X88002164Y-4264200D01*
X87518758Y-4063966D01*
X87000000Y-3995671D01*
X86481241Y-4063966D01*
X85997835Y-4264200D01*
X85582725Y-4582725D01*
X85264200Y-4997835D01*
X85063966Y-5481241D01*
X84995671Y-6000000D01*
X85063966Y-6518758D01*
X85264200Y-7002164D01*
X85582725Y-7417274D01*
X85997835Y-7735799D01*
X86275000Y-7850604D01*
X86275000Y-30384694D01*
X81450108Y-35209585D01*
X81404565Y-34863647D01*
X81259298Y-34512943D01*
X81028213Y-34211786D01*
X80727056Y-33980701D01*
X80376352Y-33835434D01*
X80000000Y-33785887D01*
X79623647Y-33835434D01*
X79621590Y-33836285D01*
X79455000Y-33669695D01*
X79455000Y-31494708D01*
X79623647Y-31564565D01*
X80000000Y-31614113D01*
X80376352Y-31564565D01*
X80727056Y-31419298D01*
X81028213Y-31188213D01*
X81249338Y-30900035D01*
X81656000Y-31009000D01*
X82156000Y-30875025D01*
X82522025Y-30509000D01*
X82656000Y-30009000D01*
X82522025Y-29509000D01*
X82381000Y-29367974D01*
X82381000Y-7954169D01*
X82518758Y-7936033D01*
X83002164Y-7735799D01*
X83417274Y-7417274D01*
X83735799Y-7002164D01*
X83936033Y-6518758D01*
X84004329Y-6000000D01*
X83936033Y-5481241D01*
X83735799Y-4997835D01*
X83417274Y-4582725D01*
X83002164Y-4264200D01*
X82518758Y-4063966D01*
X82000000Y-3995671D01*
X81481241Y-4063966D01*
X80997835Y-4264200D01*
X80582725Y-4582725D01*
X80264200Y-4997835D01*
X80063966Y-5481241D01*
X79995671Y-6000000D01*
X80063966Y-6518758D01*
X80264200Y-7002164D01*
X80582725Y-7417274D01*
X80931000Y-7684514D01*
X80931000Y-21437192D01*
X80727056Y-21280701D01*
X80376352Y-21135434D01*
X80000000Y-21085887D01*
X79623647Y-21135434D01*
X79272943Y-21280701D01*
X78971786Y-21511786D01*
X78740701Y-21812943D01*
X78595434Y-22163647D01*
X78545887Y-22540000D01*
X78595434Y-22916352D01*
X78596285Y-22918408D01*
X78217347Y-23297347D01*
X78234815Y-23314815D01*
X78102131Y-23447499D01*
X78020606Y-23751754D01*
X77836352Y-23675434D01*
X77460000Y-23625887D01*
X77083647Y-23675434D01*
X77081590Y-23676285D01*
X72725000Y-19319695D01*
X72725000Y-8362395D01*
X73240621Y-8148819D01*
X73754503Y-7754503D01*
X74148819Y-7240621D01*
X74396696Y-6642192D01*
X74481243Y-6000000D01*
X74396696Y-5357807D01*
X74148819Y-4759378D01*
X73754503Y-4245496D01*
X73649599Y-4165000D01*
X74139695Y-4165000D01*
X75178771Y-5204076D01*
X75063966Y-5481241D01*
X74995671Y-6000000D01*
X75063966Y-6518758D01*
X75264200Y-7002164D01*
X75582725Y-7417274D01*
X75997835Y-7735799D01*
X76481241Y-7936033D01*
X77000000Y-8004329D01*
X77518758Y-7936033D01*
X78002164Y-7735799D01*
X78417274Y-7417274D01*
X78735799Y-7002164D01*
X78936033Y-6518758D01*
X79004329Y-6000000D01*
X78936033Y-5481241D01*
X78735799Y-4997835D01*
X78417274Y-4582725D01*
X78002164Y-4264200D01*
X77518758Y-4063966D01*
X77000000Y-3995671D01*
X76481241Y-4063966D01*
X76204076Y-4178771D01*
X74952652Y-2927347D01*
X74935184Y-2944815D01*
X74802500Y-2812131D01*
X74440000Y-2715000D01*
X70752000Y-2715000D01*
X70389500Y-2812131D01*
X70256815Y-2944815D01*
X70239347Y-2927347D01*
X69242347Y-3924347D01*
X69259815Y-3941815D01*
X69127131Y-4074500D01*
X69030000Y-4437000D01*
X69030000Y-19915000D01*
X69127131Y-20277500D01*
X69259814Y-20410183D01*
X69242347Y-20427652D01*
X76056285Y-27241590D01*
X76055434Y-27243647D01*
X76005886Y-27620000D01*
X76055434Y-27996352D01*
X76200701Y-28347056D01*
X76431786Y-28648213D01*
X76732943Y-28879298D01*
X76758778Y-28889999D01*
X76732943Y-28900701D01*
X76431786Y-29131786D01*
X76200701Y-29432943D01*
X76055434Y-29783647D01*
X76005886Y-30160000D01*
X76055434Y-30536352D01*
X76200701Y-30887056D01*
X76431786Y-31188213D01*
X76732943Y-31419298D01*
X76758778Y-31429999D01*
X76732943Y-31440701D01*
X76431786Y-31671786D01*
X76200701Y-31972943D01*
X76055434Y-32323647D01*
X76005886Y-32700000D01*
X76055434Y-33076352D01*
X76200701Y-33427056D01*
X76431786Y-33728213D01*
X76732943Y-33959298D01*
X77083647Y-34104565D01*
X77085504Y-34104809D01*
X77951000Y-34970305D01*
X77951000Y-36387000D01*
X77961827Y-36427407D01*
X77836352Y-36375434D01*
X77460000Y-36325887D01*
X77083647Y-36375434D01*
X76732943Y-36520701D01*
X76431786Y-36751786D01*
X76200701Y-37052943D01*
X76199849Y-37055000D01*
X74220000Y-37055000D01*
X73857500Y-37152131D01*
X73724815Y-37284815D01*
X73707347Y-37267347D01*
X65292213Y-45682480D01*
X65268194Y-45672531D01*
X64912499Y-45625703D01*
X64556805Y-45672531D01*
X64225351Y-45809823D01*
X63999999Y-45982741D01*
X63774648Y-45809823D01*
X63443194Y-45672531D01*
X63087500Y-45625703D01*
X62731805Y-45672531D01*
X62400351Y-45809823D01*
X62115725Y-46028225D01*
X61897323Y-46312851D01*
X61760031Y-46644305D01*
X61713203Y-47000000D01*
X61760031Y-47355694D01*
X61897323Y-47687148D01*
X62115725Y-47971774D01*
X62400351Y-48190176D01*
X62671998Y-48302695D01*
X45999999Y-64974694D01*
X37667758Y-56642453D01*
X37740677Y-56466413D01*
X37802082Y-56000000D01*
X37740677Y-55533586D01*
X37560648Y-55098959D01*
X37274264Y-54725735D01*
X36901041Y-54439351D01*
X36466413Y-54259322D01*
X36000000Y-54197918D01*
X35533586Y-54259322D01*
X35098959Y-54439351D01*
X34725735Y-54725735D01*
X34439351Y-55098959D01*
X34259322Y-55533586D01*
X34197918Y-56000000D01*
X32043999Y-56000000D01*
X32043999Y-31099000D01*
X31946868Y-30736500D01*
X31814183Y-30603814D01*
X31831652Y-30586347D01*
X31403713Y-30158408D01*
X31404565Y-30156352D01*
X31454113Y-29780000D01*
X31404565Y-29403647D01*
X31259298Y-29052943D01*
X31028213Y-28751786D01*
X30727056Y-28520701D01*
X30701220Y-28509999D01*
X30727056Y-28499298D01*
X31028213Y-28268213D01*
X31259298Y-27967056D01*
X31404565Y-27616352D01*
X31454113Y-27240000D01*
X31404565Y-26863647D01*
X31259298Y-26512943D01*
X31028213Y-26211786D01*
X30727056Y-25980701D01*
X30701220Y-25969999D01*
X30727056Y-25959298D01*
X31028213Y-25728213D01*
X31259298Y-25427056D01*
X31404565Y-25076352D01*
X31454113Y-24700000D01*
X31404565Y-24323647D01*
X31259298Y-23972943D01*
X31028213Y-23671786D01*
X30727056Y-23440701D01*
X30701220Y-23429999D01*
X30727056Y-23419298D01*
X31028213Y-23188213D01*
X31259298Y-22887056D01*
X31404565Y-22536352D01*
X31454113Y-22160000D01*
X31404565Y-21783647D01*
X31259298Y-21432943D01*
X31028213Y-21131786D01*
X30727056Y-20900701D01*
X30701220Y-20889999D01*
X30727056Y-20879298D01*
X31028213Y-20648213D01*
X31259298Y-20347056D01*
X31404565Y-19996352D01*
X31454113Y-19620000D01*
X31404565Y-19243647D01*
X31259298Y-18892943D01*
X31028213Y-18591786D01*
X30727056Y-18360701D01*
X30701220Y-18349999D01*
X30727056Y-18339298D01*
X31028213Y-18108213D01*
X31259298Y-17807056D01*
X31404565Y-17456352D01*
X31454113Y-17080000D01*
X31404565Y-16703647D01*
X31259298Y-16352943D01*
X31028213Y-16051786D01*
X30727056Y-15820701D01*
X30701220Y-15809999D01*
X30727056Y-15799298D01*
X31028213Y-15568213D01*
X31259298Y-15267056D01*
X31404565Y-14916352D01*
X31454113Y-14540000D01*
X31404565Y-14163647D01*
X31259298Y-13812943D01*
X31028213Y-13511786D01*
X30996466Y-13487425D01*
X31274264Y-13274264D01*
X31560648Y-12901041D01*
X31740677Y-12466413D01*
X31802082Y-12000000D01*
X31740677Y-11533586D01*
X31560648Y-11098958D01*
X31274264Y-10725735D01*
X30901041Y-10439351D01*
X30466413Y-10259322D01*
X30000000Y-10197918D01*
X29533586Y-10259322D01*
X29098959Y-10439351D01*
X28725735Y-10725735D01*
X28439351Y-11098959D01*
X28259322Y-11533586D01*
X28197918Y-12000000D01*
X21725000Y-12000000D01*
X21725000Y-7850604D01*
X22002164Y-7735799D01*
X22417274Y-7417274D01*
X22735799Y-7002164D01*
X22936033Y-6518758D01*
X23004329Y-6000000D01*
X37518757Y-6000000D01*
X37603303Y-6642192D01*
X37851180Y-7240621D01*
X38245496Y-7754503D01*
X38759378Y-8148819D01*
X39357807Y-8396696D01*
X40000000Y-8481243D01*
X40642192Y-8396696D01*
X41240621Y-8148819D01*
X41754503Y-7754503D01*
X42148819Y-7240621D01*
X42396696Y-6642192D01*
X42481243Y-6000000D01*
X42995671Y-6000000D01*
X43063966Y-6518758D01*
X43264200Y-7002164D01*
X43582725Y-7417274D01*
X43997835Y-7735799D01*
X44275000Y-7850604D01*
X44275000Y-21920000D01*
X44372131Y-22282500D01*
X44504814Y-22415183D01*
X44487347Y-22432652D01*
X53996285Y-31941590D01*
X53995434Y-31943647D01*
X53945887Y-32320000D01*
X53995434Y-32696352D01*
X54140701Y-33047056D01*
X54371786Y-33348213D01*
X54672943Y-33579298D01*
X54698778Y-33589999D01*
X54672943Y-33600701D01*
X54371786Y-33831786D01*
X54140701Y-34132943D01*
X53995434Y-34483647D01*
X53945887Y-34860000D01*
X53995434Y-35236352D01*
X54140701Y-35587056D01*
X54192340Y-35654353D01*
X51487347Y-38359347D01*
X51504815Y-38376815D01*
X51372131Y-38509500D01*
X51275000Y-38872000D01*
X51275000Y-45244657D01*
X51042221Y-45341078D01*
X50645495Y-45645495D01*
X50341078Y-46042221D01*
X50149713Y-46504217D01*
X50084442Y-47000000D01*
X50149713Y-47495782D01*
X50341078Y-47957779D01*
X50645495Y-48354504D01*
X51042221Y-48658921D01*
X51504217Y-48850286D01*
X52000000Y-48915558D01*
X52495782Y-48850286D01*
X52957779Y-48658921D01*
X53354504Y-48354504D01*
X53658921Y-47957779D01*
X53850286Y-47495782D01*
X53915558Y-47000000D01*
X53850286Y-46504217D01*
X53658921Y-46042221D01*
X53354504Y-45645495D01*
X52957779Y-45341078D01*
X52725000Y-45244657D01*
X52725000Y-39172304D01*
X54032197Y-37865106D01*
X54140701Y-38127056D01*
X54371786Y-38428213D01*
X54672943Y-38659298D01*
X54698778Y-38669999D01*
X54672943Y-38680701D01*
X54371786Y-38911786D01*
X54140701Y-39212943D01*
X53995434Y-39563647D01*
X53945887Y-39940000D01*
X53995434Y-40316352D01*
X54140701Y-40667056D01*
X54371786Y-40968213D01*
X54672943Y-41199298D01*
X54698778Y-41209999D01*
X54672943Y-41220701D01*
X54371786Y-41451786D01*
X54140701Y-41752943D01*
X53995434Y-42103647D01*
X53945887Y-42480000D01*
X53995434Y-42856352D01*
X54140701Y-43207056D01*
X54371786Y-43508213D01*
X54672943Y-43739298D01*
X54698778Y-43749999D01*
X54672943Y-43760701D01*
X54371786Y-43991786D01*
X54140701Y-44292943D01*
X53995434Y-44643647D01*
X53945887Y-45020000D01*
X53995434Y-45396352D01*
X54140701Y-45747056D01*
X54371786Y-46048213D01*
X54672943Y-46279298D01*
X55023647Y-46424565D01*
X55400000Y-46474113D01*
X55776352Y-46424565D01*
X56127056Y-46279298D01*
X56428213Y-46048213D01*
X56659298Y-45747056D01*
X56804565Y-45396352D01*
X56854113Y-45020000D01*
X56804565Y-44643647D01*
X56659298Y-44292943D01*
X56428213Y-43991786D01*
X56127056Y-43760701D01*
X56101220Y-43749999D01*
X56127056Y-43739298D01*
X56428213Y-43508213D01*
X56659298Y-43207056D01*
X56804565Y-42856352D01*
X56854113Y-42480000D01*
X56804565Y-42103647D01*
X56659298Y-41752943D01*
X56428213Y-41451786D01*
X56127056Y-41220701D01*
X56101220Y-41209999D01*
X56127056Y-41199298D01*
X56428213Y-40968213D01*
X56659298Y-40667056D01*
X56804565Y-40316352D01*
X56854113Y-39940000D01*
X56804565Y-39563647D01*
X56659298Y-39212943D01*
X56428213Y-38911786D01*
X56127056Y-38680701D01*
X56101220Y-38669999D01*
X56127056Y-38659298D01*
X56428213Y-38428213D01*
X56659298Y-38127056D01*
X56804565Y-37776352D01*
X56854113Y-37400000D01*
X56804565Y-37023647D01*
X56710064Y-36795502D01*
X56906499Y-36742868D01*
X57039183Y-36610183D01*
X57056652Y-36627652D01*
X57740000Y-35944304D01*
X57740000Y-49977694D01*
X50036431Y-57681262D01*
X49571000Y-57805974D01*
X49204974Y-58172000D01*
X49071000Y-58672000D01*
X49204974Y-59172000D01*
X49571000Y-59538025D01*
X50071000Y-59672000D01*
X50571000Y-59538025D01*
X50937025Y-59172000D01*
X51061738Y-58706565D01*
X58977652Y-50790652D01*
X58960183Y-50773183D01*
X59092868Y-50640499D01*
X59190000Y-50278000D01*
X59190000Y-34000000D01*
X69659056Y-34000000D01*
X69706452Y-34360002D01*
X69845408Y-34695471D01*
X70066454Y-34983545D01*
X70354528Y-35204591D01*
X70689997Y-35343547D01*
X71050000Y-35390943D01*
X71410002Y-35343547D01*
X71745471Y-35204591D01*
X72033545Y-34983545D01*
X72254591Y-34695471D01*
X72393547Y-34360002D01*
X72440943Y-34000000D01*
X72393547Y-33639997D01*
X72254591Y-33304528D01*
X72033545Y-33016454D01*
X71745471Y-32795408D01*
X71410002Y-32656452D01*
X71050000Y-32609057D01*
X70689997Y-32656452D01*
X70354528Y-32795408D01*
X70066454Y-33016454D01*
X69845408Y-33304528D01*
X69706452Y-33639997D01*
X69659056Y-34000000D01*
X59190000Y-34000000D01*
X59190000Y-32845000D01*
X59092868Y-32482500D01*
X58960183Y-32349814D01*
X58977652Y-32332347D01*
X56803713Y-30158408D01*
X56804565Y-30156352D01*
X56854113Y-29780000D01*
X56804565Y-29403647D01*
X56659298Y-29052943D01*
X56428213Y-28751786D01*
X56127056Y-28520701D01*
X56101220Y-28509999D01*
X56127056Y-28499298D01*
X56428213Y-28268213D01*
X56659298Y-27967056D01*
X56804565Y-27616352D01*
X56854113Y-27240000D01*
X56804565Y-26863647D01*
X56659298Y-26512943D01*
X56428213Y-26211786D01*
X56127056Y-25980701D01*
X56101220Y-25969999D01*
X56127056Y-25959298D01*
X56428213Y-25728213D01*
X56659298Y-25427056D01*
X56804565Y-25076352D01*
X56854113Y-24700000D01*
X56804565Y-24323647D01*
X56659298Y-23972943D01*
X56428213Y-23671786D01*
X56127056Y-23440701D01*
X56101220Y-23429999D01*
X56127056Y-23419298D01*
X56428213Y-23188213D01*
X56659298Y-22887056D01*
X56804565Y-22536352D01*
X56854113Y-22160000D01*
X56804565Y-21783647D01*
X56659298Y-21432943D01*
X56428213Y-21131786D01*
X56127056Y-20900701D01*
X56101220Y-20889999D01*
X56127056Y-20879298D01*
X56428213Y-20648213D01*
X56659298Y-20347056D01*
X56804565Y-19996352D01*
X56854113Y-19620000D01*
X56804565Y-19243647D01*
X56659298Y-18892943D01*
X56428213Y-18591786D01*
X56127056Y-18360701D01*
X56101220Y-18349999D01*
X56127056Y-18339298D01*
X56428213Y-18108213D01*
X56659298Y-17807056D01*
X56804565Y-17456352D01*
X56854113Y-17080000D01*
X56804565Y-16703647D01*
X56659298Y-16352943D01*
X56428213Y-16051786D01*
X56127056Y-15820701D01*
X56101220Y-15809999D01*
X56127056Y-15799298D01*
X56428213Y-15568213D01*
X56659298Y-15267056D01*
X56804565Y-14916352D01*
X56854113Y-14540000D01*
X56804565Y-14163647D01*
X56659298Y-13812943D01*
X56428213Y-13511786D01*
X56127056Y-13280701D01*
X55776352Y-13135434D01*
X55400000Y-13085887D01*
X55023647Y-13135434D01*
X54672943Y-13280701D01*
X54371786Y-13511786D01*
X54140701Y-13812943D01*
X53995434Y-14163647D01*
X53945887Y-14540000D01*
X53995434Y-14916352D01*
X54140701Y-15267056D01*
X54371786Y-15568213D01*
X54672943Y-15799298D01*
X54698778Y-15809999D01*
X54672943Y-15820701D01*
X54371786Y-16051786D01*
X54140701Y-16352943D01*
X53995434Y-16703647D01*
X53945887Y-17080000D01*
X53995434Y-17456352D01*
X54140701Y-17807056D01*
X54371786Y-18108213D01*
X54672943Y-18339298D01*
X54698778Y-18349999D01*
X54672943Y-18360701D01*
X54371786Y-18591786D01*
X54140701Y-18892943D01*
X53995434Y-19243647D01*
X53945887Y-19620000D01*
X53995434Y-19996352D01*
X54140701Y-20347056D01*
X54371786Y-20648213D01*
X54672943Y-20879298D01*
X54698778Y-20889999D01*
X54672943Y-20900701D01*
X54371786Y-21131786D01*
X54140701Y-21432943D01*
X53995434Y-21783647D01*
X53945887Y-22160000D01*
X53995434Y-22536352D01*
X53996285Y-22538408D01*
X53548347Y-22986347D01*
X53565815Y-23003815D01*
X53433131Y-23136499D01*
X53336000Y-23499000D01*
X53336000Y-29230695D01*
X45725000Y-21619695D01*
X45725000Y-7850604D01*
X46002164Y-7735799D01*
X46417274Y-7417274D01*
X46735799Y-7002164D01*
X46936033Y-6518758D01*
X47004329Y-6000000D01*
X46936033Y-5481241D01*
X46735799Y-4997835D01*
X46417274Y-4582725D01*
X46002164Y-4264200D01*
X45518758Y-4063966D01*
X45000000Y-3995671D01*
X44481241Y-4063966D01*
X43997835Y-4264200D01*
X43582725Y-4582725D01*
X43264200Y-4997835D01*
X43063966Y-5481241D01*
X42995671Y-6000000D01*
X42481243Y-6000000D01*
X42396696Y-5357807D01*
X42148819Y-4759378D01*
X41754503Y-4245496D01*
X41240621Y-3851180D01*
X40642192Y-3603303D01*
X40000000Y-3518757D01*
X39357807Y-3603303D01*
X38759378Y-3851180D01*
X38245496Y-4245496D01*
X37851180Y-4759378D01*
X37603303Y-5357807D01*
X37518757Y-6000000D01*
X23004329Y-6000000D01*
X22936033Y-5481241D01*
X22735799Y-4997835D01*
X22417274Y-4582725D01*
X22002164Y-4264200D01*
X21518758Y-4063966D01*
X21000000Y-3995671D01*
X20481241Y-4063966D01*
X19997835Y-4264200D01*
X19582725Y-4582725D01*
X19264200Y-4997835D01*
X19063966Y-5481241D01*
X18995671Y-6000000D01*
X19063966Y-6518758D01*
X19264200Y-7002164D01*
X19582725Y-7417274D01*
X19997835Y-7735799D01*
X20275000Y-7850604D01*
X20275000Y-18626693D01*
X11434054Y-27467639D01*
X11404565Y-27243647D01*
X11334709Y-27075000D01*
X11429000Y-27075000D01*
X11791500Y-26977868D01*
X11924184Y-26845184D01*
X11941652Y-26862652D01*
X16512652Y-22291652D01*
X16495184Y-22274184D01*
X16627868Y-22141500D01*
X16725000Y-21779000D01*
X16725000Y-7850604D01*
X17002164Y-7735799D01*
X17417274Y-7417274D01*
X17735799Y-7002164D01*
X17936033Y-6518758D01*
X18004329Y-6000000D01*
X17936033Y-5481241D01*
X17735799Y-4997835D01*
X17417274Y-4582725D01*
X17002164Y-4264200D01*
X16518758Y-4063966D01*
X16000000Y-3995671D01*
X15481241Y-4063966D01*
X14997835Y-4264200D01*
X14582725Y-4582725D01*
X14264200Y-4997835D01*
X14063966Y-5481241D01*
X13995671Y-6000000D01*
X14063966Y-6518758D01*
X14264200Y-7002164D01*
X14582725Y-7417274D01*
X14997835Y-7735799D01*
X15275000Y-7850604D01*
X15275000Y-21478693D01*
X11420821Y-25332872D01*
X11454113Y-25080000D01*
X11404565Y-24703647D01*
X11262557Y-24360810D01*
X11318184Y-24305184D01*
X11335652Y-24322652D01*
X12479652Y-23178652D01*
X12462184Y-23161184D01*
X12594868Y-23028500D01*
X12692000Y-22666000D01*
X12692000Y-7059243D01*
X12735799Y-7002164D01*
X12936033Y-6518758D01*
X13004329Y-6000000D01*
X12936033Y-5481241D01*
X12735799Y-4997835D01*
X12417274Y-4582725D01*
X12002164Y-4264200D01*
X11518758Y-4063966D01*
X11000000Y-3995671D01*
X10481241Y-4063966D01*
X9997835Y-4264200D01*
X9582725Y-4582725D01*
X9264200Y-4997835D01*
X9063966Y-5481241D01*
X8995671Y-6000000D01*
X9063966Y-6518758D01*
X9264200Y-7002164D01*
X9582725Y-7417274D01*
X9997835Y-7735799D01*
X10481241Y-7936033D01*
X11000000Y-8004329D01*
X11242000Y-7972468D01*
X11242000Y-21790399D01*
X11028213Y-21511786D01*
X10727056Y-21280701D01*
X10376352Y-21135434D01*
X10000000Y-21085887D01*
X9623647Y-21135434D01*
X9272943Y-21280701D01*
X8971786Y-21511786D01*
X8740701Y-21812943D01*
X8595434Y-22163647D01*
X8545887Y-22540000D01*
X8595434Y-22916352D01*
X8678647Y-23117247D01*
X8436499Y-23182131D01*
X8303815Y-23314815D01*
X8286347Y-23297347D01*
X8163347Y-23420347D01*
X8180815Y-23437815D01*
X8171131Y-23447499D01*
X8171130Y-23447499D01*
X8048131Y-23570500D01*
X8001666Y-23743909D01*
X7836352Y-23675434D01*
X7460000Y-23625887D01*
X7083647Y-23675434D01*
X7081590Y-23676285D01*
X6725000Y-23319695D01*
X6725000Y-8362395D01*
X7240621Y-8148819D01*
X7754503Y-7754503D01*
X8148819Y-7240621D01*
X8396696Y-6642192D01*
X8481243Y-6000000D01*
X8396696Y-5357807D01*
X8148819Y-4759378D01*
X7754503Y-4245496D01*
X7584821Y-4115294D01*
X7600000Y-4000000D01*
X7477332Y-3068251D01*
X7117691Y-2199999D01*
X6545584Y-1454415D01*
X5800000Y-882308D01*
X5118447Y-600000D01*
X94881552Y-600000D01*
X94200000Y-882308D01*
G37*
%TD.AperFunction*%
%TA.AperFunction,Conductor*%
G36*
X99400000Y-74400000D02*
G01*
X97118444Y-74400000D01*
X97800000Y-74117691D01*
X98545584Y-73545584D01*
X99117691Y-72800000D01*
X99400000Y-72118444D01*
X99400000Y-74400000D01*
G37*
%TD.AperFunction*%
%TA.AperFunction,Conductor*%
G36*
X99400000Y-2881554D02*
G01*
X99117691Y-2199999D01*
X98545584Y-1454415D01*
X97800000Y-882308D01*
X97118447Y-600000D01*
X99400000Y-600000D01*
X99400000Y-2881554D01*
G37*
%TD.AperFunction*%
%TA.AperFunction,Conductor*%
G36*
X2199999Y-882308D02*
G01*
X1454415Y-1454415D01*
X882308Y-2200000D01*
X600000Y-2881552D01*
X600000Y-600000D01*
X2881552Y-600000D01*
X2199999Y-882308D01*
G37*
%TD.AperFunction*%
%TD*%
M02*
