%TF.GenerationSoftware,KiCad,Pcbnew,9.0.9*%
%TF.CreationDate,2026-06-12T02:05:31+03:00*%
%TF.ProjectId,controller,636f6e74-726f-46c6-9c65-722e6b696361,rev?*%
%TF.SameCoordinates,Original*%
%TF.FileFunction,Other,User*%
%FSLAX46Y46*%
G04 Gerber Fmt 4.6, Leading zero omitted, Abs format (unit mm)*
G04 Created by KiCad (PCBNEW 9.0.9) date 2026-06-12 02:05:31*
%MOMM*%
%LPD*%
G01*
G04 APERTURE LIST*
%ADD10C,0.050000*%
G04 APERTURE END LIST*
D10*
%TO.C,U1R*%
X53600000Y-10200000D02*
X57150000Y-10200000D01*
X53600000Y-49300000D02*
X53600000Y-10200000D01*
X57150000Y-10200000D02*
X57150000Y-49300000D01*
X57150000Y-49300000D02*
X53600000Y-49300000D01*
%TO.C,C7*%
X16300000Y-33020000D02*
X19700000Y-33020000D01*
X19700000Y-34980000D01*
X16300000Y-34980000D01*
X16300000Y-33020000D01*
%TO.C,A1*%
X5660000Y-18200000D02*
X11760000Y-18200000D01*
X5660000Y-39550000D02*
X5660000Y-18200000D01*
X11760000Y-18200000D02*
X11760000Y-39550000D01*
X11760000Y-39550000D02*
X5660000Y-39550000D01*
%TO.C,J3*%
X68500000Y-1500000D02*
X90000000Y-1500000D01*
X90000000Y-10310000D01*
X68500000Y-10310000D01*
X68500000Y-1500000D01*
%TO.C,A2*%
X75660000Y-18200000D02*
X81760000Y-18200000D01*
X75660000Y-39550000D02*
X75660000Y-18200000D01*
X81760000Y-18200000D02*
X81760000Y-39550000D01*
X81760000Y-39550000D02*
X75660000Y-39550000D01*
%TO.C,C2*%
X22300000Y-41020000D02*
X25700000Y-41020000D01*
X25700000Y-42980000D01*
X22300000Y-42980000D01*
X22300000Y-41020000D01*
%TO.C,BK1*%
X34200000Y-54200000D02*
X37750000Y-54200000D01*
X34200000Y-65400000D02*
X34200000Y-54200000D01*
X37750000Y-54200000D02*
X37750000Y-65400000D01*
X37750000Y-65400000D02*
X34200000Y-65400000D01*
%TO.C,R3*%
X58320000Y-65050000D02*
X61680000Y-65050000D01*
X61680000Y-66950000D01*
X58320000Y-66950000D01*
X58320000Y-65050000D01*
%TO.C,D1*%
X28400000Y-67050000D02*
X28400000Y-68950000D01*
X28400000Y-67050000D02*
X31600000Y-67050000D01*
X28400000Y-68950000D02*
X31600000Y-68950000D01*
X31600000Y-67050000D02*
X31600000Y-68950000D01*
%TO.C,C5*%
X82300000Y-51020000D02*
X85700000Y-51020000D01*
X85700000Y-52980000D01*
X82300000Y-52980000D01*
X82300000Y-51020000D01*
%TO.C,U1L*%
X28200000Y-10200000D02*
X31750000Y-10200000D01*
X28200000Y-49300000D02*
X28200000Y-10200000D01*
X31750000Y-10200000D02*
X31750000Y-49300000D01*
X31750000Y-49300000D02*
X28200000Y-49300000D01*
%TO.C,R2*%
X28320000Y-63050000D02*
X31680000Y-63050000D01*
X31680000Y-64950000D01*
X28320000Y-64950000D01*
X28320000Y-63050000D01*
%TO.C,J2*%
X2500000Y-1500000D02*
X24000000Y-1500000D01*
X24000000Y-10310000D01*
X2500000Y-10310000D01*
X2500000Y-1500000D01*
%TO.C,REF\u002A\u002A*%
X99450000Y-71000000D02*
G75*
G02*
X92550000Y-71000000I-3450000J0D01*
G01*
X92550000Y-71000000D02*
G75*
G02*
X99450000Y-71000000I3450000J0D01*
G01*
%TO.C,R1*%
X62320000Y-46050000D02*
X65680000Y-46050000D01*
X65680000Y-47950000D01*
X62320000Y-47950000D01*
X62320000Y-46050000D01*
%TO.C,J1*%
X2500000Y-55500000D02*
X14000000Y-55500000D01*
X14000000Y-64310000D01*
X2500000Y-64310000D01*
X2500000Y-55500000D01*
%TO.C,C8*%
X70300000Y-33020000D02*
X73700000Y-33020000D01*
X73700000Y-34980000D01*
X70300000Y-34980000D01*
X70300000Y-33020000D01*
%TO.C,REF\u002A\u002A*%
X7450000Y-4000000D02*
G75*
G02*
X550000Y-4000000I-3450000J0D01*
G01*
X550000Y-4000000D02*
G75*
G02*
X7450000Y-4000000I3450000J0D01*
G01*
%TO.C,C6*%
X52000000Y-67000000D02*
G75*
G02*
X43500000Y-67000000I-4250000J0D01*
G01*
X43500000Y-67000000D02*
G75*
G02*
X52000000Y-67000000I4250000J0D01*
G01*
%TO.C,R4*%
X50320000Y-63050000D02*
X53680000Y-63050000D01*
X53680000Y-64950000D01*
X50320000Y-64950000D01*
X50320000Y-63050000D01*
%TO.C,J5*%
X36500000Y-1500000D02*
X53000000Y-1500000D01*
X53000000Y-10310000D01*
X36500000Y-10310000D01*
X36500000Y-1500000D01*
%TO.C,U2*%
X75950000Y-48500000D02*
X76950000Y-48500000D01*
X75950000Y-51500000D02*
X75950000Y-48500000D01*
X76950000Y-48300000D02*
X79050000Y-48300000D01*
X76950000Y-48500000D02*
X76950000Y-48300000D01*
X76950000Y-51500000D02*
X75950000Y-51500000D01*
X76950000Y-51700000D02*
X76950000Y-51500000D01*
X79050000Y-48300000D02*
X79050000Y-48500000D01*
X79050000Y-48500000D02*
X80050000Y-48500000D01*
X79050000Y-49610000D02*
X79050000Y-50390000D01*
X79050000Y-50390000D02*
X80050000Y-50390000D01*
X79050000Y-51500000D02*
X79050000Y-51700000D01*
X79050000Y-51700000D02*
X76950000Y-51700000D01*
X80050000Y-48500000D02*
X80050000Y-49610000D01*
X80050000Y-49610000D02*
X79050000Y-49610000D01*
X80050000Y-50390000D02*
X80050000Y-51500000D01*
X80050000Y-51500000D02*
X79050000Y-51500000D01*
%TO.C,REF\u002A\u002A*%
X99450000Y-4000000D02*
G75*
G02*
X92550000Y-4000000I-3450000J0D01*
G01*
X92550000Y-4000000D02*
G75*
G02*
X99450000Y-4000000I3450000J0D01*
G01*
%TO.C,F1*%
X13720000Y-64870000D02*
X18280000Y-64870000D01*
X18280000Y-67130000D01*
X13720000Y-67130000D01*
X13720000Y-64870000D01*
%TO.C,REF\u002A\u002A*%
X7450000Y-71000000D02*
G75*
G02*
X550000Y-71000000I-3450000J0D01*
G01*
X550000Y-71000000D02*
G75*
G02*
X7450000Y-71000000I3450000J0D01*
G01*
%TO.C,C3*%
X86300000Y-41020000D02*
X89700000Y-41020000D01*
X89700000Y-42980000D01*
X86300000Y-42980000D01*
X86300000Y-41020000D01*
%TO.C,C1*%
X59750000Y-47000000D02*
G75*
G02*
X49250000Y-47000000I-5250000J0D01*
G01*
X49250000Y-47000000D02*
G75*
G02*
X59750000Y-47000000I5250000J0D01*
G01*
%TO.C,J4*%
X62500000Y-55500000D02*
X79000000Y-55500000D01*
X79000000Y-64310000D01*
X62500000Y-64310000D01*
X62500000Y-55500000D01*
%TO.C,Q1*%
X22070000Y-64500000D02*
X23100000Y-64500000D01*
X22070000Y-65610000D02*
X22070000Y-64500000D01*
X22070000Y-66390000D02*
X23100000Y-66390000D01*
X22070000Y-67500000D02*
X22070000Y-66390000D01*
X23100000Y-64300000D02*
X24900000Y-64300000D01*
X23100000Y-64500000D02*
X23100000Y-64300000D01*
X23100000Y-65610000D02*
X22070000Y-65610000D01*
X23100000Y-66390000D02*
X23100000Y-65610000D01*
X23100000Y-67500000D02*
X22070000Y-67500000D01*
X23100000Y-67700000D02*
X23100000Y-67500000D01*
X24900000Y-64300000D02*
X24900000Y-65450000D01*
X24900000Y-65450000D02*
X25930000Y-65450000D01*
X24900000Y-66550000D02*
X24900000Y-67700000D01*
X24900000Y-67700000D02*
X23100000Y-67700000D01*
X25930000Y-65450000D02*
X25930000Y-66550000D01*
X25930000Y-66550000D02*
X24900000Y-66550000D01*
%TD*%
M02*
