%TF.GenerationSoftware,KiCad,Pcbnew,9.0.9*%
%TF.CreationDate,2026-06-12T02:05:22+03:00*%
%TF.ProjectId,controller,636f6e74-726f-46c6-9c65-722e6b696361,rev?*%
%TF.SameCoordinates,Original*%
%TF.FileFunction,Soldermask,Top*%
%TF.FilePolarity,Negative*%
%FSLAX46Y46*%
G04 Gerber Fmt 4.6, Leading zero omitted, Abs format (unit mm)*
G04 Created by KiCad (PCBNEW 9.0.9) date 2026-06-12 02:05:22*
%MOMM*%
%LPD*%
G01*
G04 APERTURE LIST*
G04 Aperture macros list*
%AMRoundRect*
0 Rectangle with rounded corners*
0 $1 Rounding radius*
0 $2 $3 $4 $5 $6 $7 $8 $9 X,Y pos of 4 corners*
0 Add a 4 corners polygon primitive as box body*
4,1,4,$2,$3,$4,$5,$6,$7,$8,$9,$2,$3,0*
0 Add four circle primitives for the rounded corners*
1,1,$1+$1,$2,$3*
1,1,$1+$1,$4,$5*
1,1,$1+$1,$6,$7*
1,1,$1+$1,$8,$9*
0 Add four rect primitives between the rounded corners*
20,1,$1+$1,$2,$3,$4,$5,0*
20,1,$1+$1,$4,$5,$6,$7,0*
20,1,$1+$1,$6,$7,$8,$9,0*
20,1,$1+$1,$8,$9,$2,$3,0*%
G04 Aperture macros list end*
%ADD10R,1.700000X1.700000*%
%ADD11C,1.700000*%
%ADD12RoundRect,0.250000X-0.250000X-0.475000X0.250000X-0.475000X0.250000X0.475000X-0.250000X0.475000X0*%
%ADD13RoundRect,0.250001X-1.149999X-1.149999X1.149999X-1.149999X1.149999X1.149999X-1.149999X1.149999X0*%
%ADD14C,2.800000*%
%ADD15RoundRect,0.250000X-0.262500X-0.450000X0.262500X-0.450000X0.262500X0.450000X-0.262500X0.450000X0*%
%ADD16RoundRect,0.112500X-0.187500X-0.112500X0.187500X-0.112500X0.187500X0.112500X-0.187500X0.112500X0*%
%ADD17C,3.200000*%
%ADD18RoundRect,0.250000X-0.550000X-0.550000X0.550000X-0.550000X0.550000X0.550000X-0.550000X0.550000X0*%
%ADD19C,1.600000*%
%ADD20RoundRect,0.150000X-0.512500X-0.150000X0.512500X-0.150000X0.512500X0.150000X-0.512500X0.150000X0*%
%ADD21RoundRect,0.250000X-0.375000X-0.625000X0.375000X-0.625000X0.375000X0.625000X-0.375000X0.625000X0*%
%ADD22RoundRect,0.250000X-0.750000X-0.750000X0.750000X-0.750000X0.750000X0.750000X-0.750000X0.750000X0*%
%ADD23C,2.000000*%
%ADD24RoundRect,0.150000X-0.587500X-0.150000X0.587500X-0.150000X0.587500X0.150000X-0.587500X0.150000X0*%
G04 APERTURE END LIST*
D10*
%TO.C,U1R*%
X55400000Y-12000000D03*
D11*
X55400000Y-14540000D03*
X55400000Y-17080000D03*
X55400000Y-19620000D03*
X55400000Y-22160000D03*
X55400000Y-24700000D03*
X55400000Y-27240000D03*
X55400000Y-29780000D03*
X55400000Y-32320000D03*
X55400000Y-34860000D03*
X55400000Y-37400000D03*
X55400000Y-39940000D03*
X55400000Y-42480000D03*
X55400000Y-45020000D03*
X55400000Y-47560000D03*
%TD*%
D12*
%TO.C,C7*%
X17050000Y-34000000D03*
X18950000Y-34000000D03*
%TD*%
D10*
%TO.C,A1*%
X10000000Y-20000000D03*
D11*
X7460000Y-20000000D03*
X10000000Y-22540000D03*
X7460000Y-22540000D03*
X10000000Y-25080000D03*
X7460000Y-25080000D03*
X10000000Y-27620000D03*
X7460000Y-27620000D03*
X10000000Y-30160000D03*
X7460000Y-30160000D03*
X10000000Y-32700000D03*
X7460000Y-32700000D03*
X10000000Y-35240000D03*
X7460000Y-35240000D03*
X10000000Y-37780000D03*
X7460000Y-37780000D03*
%TD*%
D13*
%TO.C,J3*%
X72000000Y-6000000D03*
D14*
X77000000Y-6000000D03*
X82000000Y-6000000D03*
X87000000Y-6000000D03*
%TD*%
D10*
%TO.C,A2*%
X80000000Y-20000000D03*
D11*
X77460000Y-20000000D03*
X80000000Y-22540000D03*
X77460000Y-22540000D03*
X80000000Y-25080000D03*
X77460000Y-25080000D03*
X80000000Y-27620000D03*
X77460000Y-27620000D03*
X80000000Y-30160000D03*
X77460000Y-30160000D03*
X80000000Y-32700000D03*
X77460000Y-32700000D03*
X80000000Y-35240000D03*
X77460000Y-35240000D03*
X80000000Y-37780000D03*
X77460000Y-37780000D03*
%TD*%
D12*
%TO.C,C2*%
X23050000Y-42000000D03*
X24950000Y-42000000D03*
%TD*%
D10*
%TO.C,BK1*%
X36000000Y-56000000D03*
D11*
X36000000Y-58540000D03*
X36000000Y-61080000D03*
X36000000Y-63620000D03*
%TD*%
D15*
%TO.C,R3*%
X59087500Y-66000000D03*
X60912500Y-66000000D03*
%TD*%
D16*
%TO.C,D1*%
X28950000Y-68000000D03*
X31050000Y-68000000D03*
%TD*%
D12*
%TO.C,C5*%
X83050000Y-52000000D03*
X84950000Y-52000000D03*
%TD*%
D10*
%TO.C,U1L*%
X30000000Y-12000000D03*
D11*
X30000000Y-14540000D03*
X30000000Y-17080000D03*
X30000000Y-19620000D03*
X30000000Y-22160000D03*
X30000000Y-24700000D03*
X30000000Y-27240000D03*
X30000000Y-29780000D03*
X30000000Y-32320000D03*
X30000000Y-34860000D03*
X30000000Y-37400000D03*
X30000000Y-39940000D03*
X30000000Y-42480000D03*
X30000000Y-45020000D03*
X30000000Y-47560000D03*
%TD*%
D15*
%TO.C,R2*%
X29087500Y-64000000D03*
X30912500Y-64000000D03*
%TD*%
D13*
%TO.C,J2*%
X6000000Y-6000000D03*
D14*
X11000000Y-6000000D03*
X16000000Y-6000000D03*
X21000000Y-6000000D03*
%TD*%
D17*
%TO.C,REF\u002A\u002A*%
X96000000Y-71000000D03*
%TD*%
D15*
%TO.C,R1*%
X63087500Y-47000000D03*
X64912500Y-47000000D03*
%TD*%
D13*
%TO.C,J1*%
X6000000Y-60000000D03*
D14*
X11000000Y-60000000D03*
%TD*%
D12*
%TO.C,C8*%
X71050000Y-34000000D03*
X72950000Y-34000000D03*
%TD*%
D17*
%TO.C,REF\u002A\u002A*%
X4000000Y-4000000D03*
%TD*%
D18*
%TO.C,C6*%
X46000000Y-67000000D03*
D19*
X49500000Y-67000000D03*
%TD*%
D15*
%TO.C,R4*%
X51087500Y-64000000D03*
X52912500Y-64000000D03*
%TD*%
D13*
%TO.C,J5*%
X40000000Y-6000000D03*
D14*
X45000000Y-6000000D03*
X50000000Y-6000000D03*
%TD*%
D20*
%TO.C,U2*%
X76862500Y-49050000D03*
X76862500Y-50000000D03*
X76862500Y-50950000D03*
X79137500Y-50950000D03*
X79137500Y-49050000D03*
%TD*%
D17*
%TO.C,REF\u002A\u002A*%
X96000000Y-4000000D03*
%TD*%
D21*
%TO.C,F1*%
X14600000Y-66000000D03*
X17400000Y-66000000D03*
%TD*%
D17*
%TO.C,REF\u002A\u002A*%
X4000000Y-71000000D03*
%TD*%
D12*
%TO.C,C3*%
X87050000Y-42000000D03*
X88950000Y-42000000D03*
%TD*%
D22*
%TO.C,C1*%
X52000000Y-47000000D03*
D23*
X57000000Y-47000000D03*
%TD*%
D13*
%TO.C,J4*%
X66000000Y-60000000D03*
D14*
X71000000Y-60000000D03*
X76000000Y-60000000D03*
%TD*%
D24*
%TO.C,Q1*%
X23062500Y-65050000D03*
X23062500Y-66950000D03*
X24937500Y-66000000D03*
%TD*%
M02*
