M48
; DRILL file {KiCad 9.0.9} date 2026-06-10T08:34:21+0300
; FORMAT={-:-/ absolute / metric / decimal}
; #@! TF.CreationDate,2026-06-10T08:34:21+03:00
; #@! TF.GenerationSoftware,Kicad,Pcbnew,9.0.9
; #@! TF.FileFunction,MixedPlating,1,2
FMAT,2
METRIC
; #@! TA.AperFunction,Plated,PTH,ViaDrill
T1C0.400
; #@! TA.AperFunction,Plated,PTH,ComponentDrill
T2C1.000
; #@! TA.AperFunction,Plated,PTH,ComponentDrill
T3C1.300
; #@! TA.AperFunction,NonPlated,NPTH,ComponentDrill
T4C3.200
%
G90
G05
T1
X24.95Y-42.0
X26.135Y-42.0
X53.642Y-45.068
X88.95Y-42.0
X90.129Y-42.0
T2
X7.46Y-20.0
X7.46Y-22.54
X7.46Y-25.08
X7.46Y-27.62
X7.46Y-30.16
X7.46Y-32.7
X7.46Y-35.24
X7.46Y-37.78
X10.0Y-20.0
X10.0Y-22.54
X10.0Y-25.08
X10.0Y-27.62
X10.0Y-30.16
X10.0Y-32.7
X10.0Y-35.24
X10.0Y-37.78
X30.0Y-12.0
X30.0Y-14.54
X30.0Y-17.08
X30.0Y-19.62
X30.0Y-22.16
X30.0Y-24.7
X30.0Y-27.24
X30.0Y-29.78
X30.0Y-32.32
X30.0Y-34.86
X30.0Y-37.4
X30.0Y-39.94
X30.0Y-42.48
X30.0Y-45.02
X30.0Y-47.56
X36.0Y-56.0
X36.0Y-58.54
X36.0Y-61.08
X36.0Y-63.62
X52.0Y-47.0
X55.4Y-12.0
X55.4Y-14.54
X55.4Y-17.08
X55.4Y-19.62
X55.4Y-22.16
X55.4Y-24.7
X55.4Y-27.24
X55.4Y-29.78
X55.4Y-32.32
X55.4Y-34.86
X55.4Y-37.4
X55.4Y-39.94
X55.4Y-42.48
X55.4Y-45.02
X55.4Y-47.56
X57.0Y-47.0
X77.46Y-20.0
X77.46Y-22.54
X77.46Y-25.08
X77.46Y-27.62
X77.46Y-30.16
X77.46Y-32.7
X77.46Y-35.24
X77.46Y-37.78
X80.0Y-20.0
X80.0Y-22.54
X80.0Y-25.08
X80.0Y-27.62
X80.0Y-30.16
X80.0Y-32.7
X80.0Y-35.24
X80.0Y-37.78
T3
X6.0Y-6.0
X6.0Y-60.0
X11.0Y-6.0
X11.0Y-60.0
X16.0Y-6.0
X21.0Y-6.0
X40.0Y-6.0
X45.0Y-6.0
X50.0Y-6.0
X66.0Y-60.0
X71.0Y-60.0
X72.0Y-6.0
X76.0Y-60.0
X77.0Y-6.0
X82.0Y-6.0
X87.0Y-6.0
T4
X4.0Y-4.0
X4.0Y-71.0
X96.0Y-4.0
X96.0Y-71.0
M30
