%TF.GenerationSoftware,KiCad,Pcbnew,9.0.9*%
%TF.CreationDate,2026-06-09T22:48:49+03:00*%
%TF.ProjectId,controller,636f6e74-726f-46c6-9c65-722e6b696361,rev?*%
%TF.SameCoordinates,Original*%
%TF.FileFunction,Other,User*%
%FSLAX46Y46*%
G04 Gerber Fmt 4.6, Leading zero omitted, Abs format (unit mm)*
G04 Created by KiCad (PCBNEW 9.0.9) date 2026-06-09 22:48:49*
%MOMM*%
%LPD*%
G01*
G04 APERTURE LIST*
%ADD10C,0.050000*%
G04 APERTURE END LIST*
%TO.C,J3*%
D10*
X68500000Y-1500000D02*
X90000000Y-1500000D01*
X90000000Y-10310000D01*
X68500000Y-10310000D01*
X68500000Y-1500000D01*
%TO.C,REF\u002A\u002A*%
X7450000Y-4000000D02*
G75*
G02*
X550000Y-4000000I-3450000J0D01*
G01*
X550000Y-4000000D02*
G75*
G02*
X7450000Y-4000000I3450000J0D01*
G01*
%TO.C,A2*%
X75660000Y-18200000D02*
X81760000Y-18200000D01*
X75660000Y-39550000D02*
X75660000Y-18200000D01*
X81760000Y-18200000D02*
X81760000Y-39550000D01*
X81760000Y-39550000D02*
X75660000Y-39550000D01*
%TO.C,C1*%
X59750000Y-47000000D02*
G75*
G02*
X49250000Y-47000000I-5250000J0D01*
G01*
X49250000Y-47000000D02*
G75*
G02*
X59750000Y-47000000I5250000J0D01*
G01*
%TO.C,BK1*%
X34200000Y-54200000D02*
X37750000Y-54200000D01*
X34200000Y-65400000D02*
X34200000Y-54200000D01*
X37750000Y-54200000D02*
X37750000Y-65400000D01*
X37750000Y-65400000D02*
X34200000Y-65400000D01*
%TO.C,C3*%
X86300000Y-41020000D02*
X89700000Y-41020000D01*
X89700000Y-42980000D01*
X86300000Y-42980000D01*
X86300000Y-41020000D01*
%TO.C,A1*%
X5660000Y-18200000D02*
X11760000Y-18200000D01*
X5660000Y-39550000D02*
X5660000Y-18200000D01*
X11760000Y-18200000D02*
X11760000Y-39550000D01*
X11760000Y-39550000D02*
X5660000Y-39550000D01*
%TO.C,REF\u002A\u002A*%
X99450000Y-4000000D02*
G75*
G02*
X92550000Y-4000000I-3450000J0D01*
G01*
X92550000Y-4000000D02*
G75*
G02*
X99450000Y-4000000I3450000J0D01*
G01*
%TO.C,C2*%
X22300000Y-41020000D02*
X25700000Y-41020000D01*
X25700000Y-42980000D01*
X22300000Y-42980000D01*
X22300000Y-41020000D01*
%TO.C,U1R*%
X53600000Y-10200000D02*
X57150000Y-10200000D01*
X53600000Y-49300000D02*
X53600000Y-10200000D01*
X57150000Y-10200000D02*
X57150000Y-49300000D01*
X57150000Y-49300000D02*
X53600000Y-49300000D01*
%TO.C,REF\u002A\u002A*%
X99450000Y-71000000D02*
G75*
G02*
X92550000Y-71000000I-3450000J0D01*
G01*
X92550000Y-71000000D02*
G75*
G02*
X99450000Y-71000000I3450000J0D01*
G01*
%TO.C,U1L*%
X28200000Y-10200000D02*
X31750000Y-10200000D01*
X28200000Y-49300000D02*
X28200000Y-10200000D01*
X31750000Y-10200000D02*
X31750000Y-49300000D01*
X31750000Y-49300000D02*
X28200000Y-49300000D01*
%TO.C,REF\u002A\u002A*%
X7450000Y-71000000D02*
G75*
G02*
X550000Y-71000000I-3450000J0D01*
G01*
X550000Y-71000000D02*
G75*
G02*
X7450000Y-71000000I3450000J0D01*
G01*
%TO.C,R1*%
X62320000Y-46050000D02*
X65680000Y-46050000D01*
X65680000Y-47950000D01*
X62320000Y-47950000D01*
X62320000Y-46050000D01*
%TO.C,J1*%
X2500000Y-55500000D02*
X14000000Y-55500000D01*
X14000000Y-64310000D01*
X2500000Y-64310000D01*
X2500000Y-55500000D01*
%TO.C,J4*%
X62500000Y-55500000D02*
X79000000Y-55500000D01*
X79000000Y-64310000D01*
X62500000Y-64310000D01*
X62500000Y-55500000D01*
%TO.C,J5*%
X36500000Y-1500000D02*
X53000000Y-1500000D01*
X53000000Y-10310000D01*
X36500000Y-10310000D01*
X36500000Y-1500000D01*
%TO.C,J2*%
X2500000Y-1500000D02*
X24000000Y-1500000D01*
X24000000Y-10310000D01*
X2500000Y-10310000D01*
X2500000Y-1500000D01*
%TD*%
M02*
