%TF.GenerationSoftware,KiCad,Pcbnew,9.0.9*%
%TF.CreationDate,2026-06-09T22:48:49+03:00*%
%TF.ProjectId,controller,636f6e74-726f-46c6-9c65-722e6b696361,rev?*%
%TF.SameCoordinates,Original*%
%TF.FileFunction,Legend,Top*%
%TF.FilePolarity,Positive*%
%FSLAX46Y46*%
G04 Gerber Fmt 4.6, Leading zero omitted, Abs format (unit mm)*
G04 Created by KiCad (PCBNEW 9.0.9) date 2026-06-09 22:48:49*
%MOMM*%
%LPD*%
G01*
G04 APERTURE LIST*
%ADD10C,0.150000*%
%ADD11C,0.120000*%
G04 APERTURE END LIST*
D10*
X2666666Y-304819D02*
X2333333Y171371D01*
X2095238Y-304819D02*
X2095238Y695180D01*
X2095238Y695180D02*
X2476190Y695180D01*
X2476190Y695180D02*
X2571428Y647561D01*
X2571428Y647561D02*
X2619047Y599942D01*
X2619047Y599942D02*
X2666666Y504704D01*
X2666666Y504704D02*
X2666666Y361847D01*
X2666666Y361847D02*
X2619047Y266609D01*
X2619047Y266609D02*
X2571428Y218990D01*
X2571428Y218990D02*
X2476190Y171371D01*
X2476190Y171371D02*
X2095238Y171371D01*
X3095238Y218990D02*
X3428571Y218990D01*
X3571428Y-304819D02*
X3095238Y-304819D01*
X3095238Y-304819D02*
X3095238Y695180D01*
X3095238Y695180D02*
X3571428Y695180D01*
X4333333Y218990D02*
X4000000Y218990D01*
X4000000Y-304819D02*
X4000000Y695180D01*
X4000000Y695180D02*
X4476190Y695180D01*
X5000000Y695180D02*
X5000000Y457085D01*
X4761905Y552323D02*
X5000000Y457085D01*
X5000000Y457085D02*
X5238095Y552323D01*
X4857143Y266609D02*
X5000000Y457085D01*
X5000000Y457085D02*
X5142857Y266609D01*
X5761905Y695180D02*
X5761905Y457085D01*
X5523810Y552323D02*
X5761905Y457085D01*
X5761905Y457085D02*
X6000000Y552323D01*
X5619048Y266609D02*
X5761905Y457085D01*
X5761905Y457085D02*
X5904762Y266609D01*
X94666666Y-304819D02*
X94333333Y171371D01*
X94095238Y-304819D02*
X94095238Y695180D01*
X94095238Y695180D02*
X94476190Y695180D01*
X94476190Y695180D02*
X94571428Y647561D01*
X94571428Y647561D02*
X94619047Y599942D01*
X94619047Y599942D02*
X94666666Y504704D01*
X94666666Y504704D02*
X94666666Y361847D01*
X94666666Y361847D02*
X94619047Y266609D01*
X94619047Y266609D02*
X94571428Y218990D01*
X94571428Y218990D02*
X94476190Y171371D01*
X94476190Y171371D02*
X94095238Y171371D01*
X95095238Y218990D02*
X95428571Y218990D01*
X95571428Y-304819D02*
X95095238Y-304819D01*
X95095238Y-304819D02*
X95095238Y695180D01*
X95095238Y695180D02*
X95571428Y695180D01*
X96333333Y218990D02*
X96000000Y218990D01*
X96000000Y-304819D02*
X96000000Y695180D01*
X96000000Y695180D02*
X96476190Y695180D01*
X97000000Y695180D02*
X97000000Y457085D01*
X96761905Y552323D02*
X97000000Y457085D01*
X97000000Y457085D02*
X97238095Y552323D01*
X96857143Y266609D02*
X97000000Y457085D01*
X97000000Y457085D02*
X97142857Y266609D01*
X97761905Y695180D02*
X97761905Y457085D01*
X97523810Y552323D02*
X97761905Y457085D01*
X97761905Y457085D02*
X98000000Y552323D01*
X97619048Y266609D02*
X97761905Y457085D01*
X97761905Y457085D02*
X97904762Y266609D01*
X94666666Y-67304819D02*
X94333333Y-66828628D01*
X94095238Y-67304819D02*
X94095238Y-66304819D01*
X94095238Y-66304819D02*
X94476190Y-66304819D01*
X94476190Y-66304819D02*
X94571428Y-66352438D01*
X94571428Y-66352438D02*
X94619047Y-66400057D01*
X94619047Y-66400057D02*
X94666666Y-66495295D01*
X94666666Y-66495295D02*
X94666666Y-66638152D01*
X94666666Y-66638152D02*
X94619047Y-66733390D01*
X94619047Y-66733390D02*
X94571428Y-66781009D01*
X94571428Y-66781009D02*
X94476190Y-66828628D01*
X94476190Y-66828628D02*
X94095238Y-66828628D01*
X95095238Y-66781009D02*
X95428571Y-66781009D01*
X95571428Y-67304819D02*
X95095238Y-67304819D01*
X95095238Y-67304819D02*
X95095238Y-66304819D01*
X95095238Y-66304819D02*
X95571428Y-66304819D01*
X96333333Y-66781009D02*
X96000000Y-66781009D01*
X96000000Y-67304819D02*
X96000000Y-66304819D01*
X96000000Y-66304819D02*
X96476190Y-66304819D01*
X97000000Y-66304819D02*
X97000000Y-66542914D01*
X96761905Y-66447676D02*
X97000000Y-66542914D01*
X97000000Y-66542914D02*
X97238095Y-66447676D01*
X96857143Y-66733390D02*
X97000000Y-66542914D01*
X97000000Y-66542914D02*
X97142857Y-66733390D01*
X97761905Y-66304819D02*
X97761905Y-66542914D01*
X97523810Y-66447676D02*
X97761905Y-66542914D01*
X97761905Y-66542914D02*
X98000000Y-66447676D01*
X97619048Y-66733390D02*
X97761905Y-66542914D01*
X97761905Y-66542914D02*
X97904762Y-66733390D01*
X2666666Y-67304819D02*
X2333333Y-66828628D01*
X2095238Y-67304819D02*
X2095238Y-66304819D01*
X2095238Y-66304819D02*
X2476190Y-66304819D01*
X2476190Y-66304819D02*
X2571428Y-66352438D01*
X2571428Y-66352438D02*
X2619047Y-66400057D01*
X2619047Y-66400057D02*
X2666666Y-66495295D01*
X2666666Y-66495295D02*
X2666666Y-66638152D01*
X2666666Y-66638152D02*
X2619047Y-66733390D01*
X2619047Y-66733390D02*
X2571428Y-66781009D01*
X2571428Y-66781009D02*
X2476190Y-66828628D01*
X2476190Y-66828628D02*
X2095238Y-66828628D01*
X3095238Y-66781009D02*
X3428571Y-66781009D01*
X3571428Y-67304819D02*
X3095238Y-67304819D01*
X3095238Y-67304819D02*
X3095238Y-66304819D01*
X3095238Y-66304819D02*
X3571428Y-66304819D01*
X4333333Y-66781009D02*
X4000000Y-66781009D01*
X4000000Y-67304819D02*
X4000000Y-66304819D01*
X4000000Y-66304819D02*
X4476190Y-66304819D01*
X5000000Y-66304819D02*
X5000000Y-66542914D01*
X4761905Y-66447676D02*
X5000000Y-66542914D01*
X5000000Y-66542914D02*
X5238095Y-66447676D01*
X4857143Y-66733390D02*
X5000000Y-66542914D01*
X5000000Y-66542914D02*
X5142857Y-66733390D01*
X5761905Y-66304819D02*
X5761905Y-66542914D01*
X5523810Y-66447676D02*
X5761905Y-66542914D01*
X5761905Y-66542914D02*
X6000000Y-66447676D01*
X5619048Y-66733390D02*
X5761905Y-66542914D01*
X5761905Y-66542914D02*
X5904762Y-66733390D01*
D11*
%TO.C,J3*%
X68880000Y-1880000D02*
X89620000Y-1880000D01*
X68880000Y-5500000D02*
X70120000Y-5500000D01*
X68880000Y-6500000D02*
X70120000Y-6500000D01*
X68880000Y-7800000D02*
X70120000Y-7800000D01*
X68880000Y-9920000D02*
X68880000Y-1880000D01*
X71700000Y-9920000D02*
X68880000Y-9920000D01*
X73880000Y-5500000D02*
X75188000Y-5500000D01*
X73880000Y-6500000D02*
X75188000Y-6500000D01*
X73880000Y-7800000D02*
X76457000Y-7800000D01*
X77543000Y-7800000D02*
X81457000Y-7800000D01*
X78812000Y-5500000D02*
X80188000Y-5500000D01*
X78812000Y-6500000D02*
X80188000Y-6500000D01*
X82543000Y-7800000D02*
X86457000Y-7800000D01*
X83812000Y-5500000D02*
X85188000Y-5500000D01*
X83812000Y-6500000D02*
X85188000Y-6500000D01*
X87543000Y-7800000D02*
X89620000Y-7800000D01*
X88812000Y-5500000D02*
X89620000Y-5500000D01*
X88812000Y-6500000D02*
X89620000Y-6500000D01*
X89620000Y-1880000D02*
X89620000Y-9920000D01*
X89620000Y-9920000D02*
X72300000Y-9920000D01*
X72440000Y-10530000D02*
X71560000Y-10530000D01*
X72000000Y-9920000D01*
X72440000Y-10530000D01*
G36*
X72440000Y-10530000D02*
G01*
X71560000Y-10530000D01*
X72000000Y-9920000D01*
X72440000Y-10530000D01*
G37*
%TO.C,A2*%
X76130000Y-18670000D02*
X76130000Y-39110000D01*
X76130000Y-18670000D02*
X78730000Y-18670000D01*
X76130000Y-39110000D02*
X81330000Y-39110000D01*
X78730000Y-18670000D02*
X78730000Y-21270000D01*
X78730000Y-21270000D02*
X81330000Y-21270000D01*
X80000000Y-18670000D02*
X81330000Y-18670000D01*
X81330000Y-18670000D02*
X81330000Y-20000000D01*
X81330000Y-21270000D02*
X81330000Y-39110000D01*
%TO.C,C1*%
X49020354Y-44125000D02*
X50020354Y-44125000D01*
X49520354Y-43625000D02*
X49520354Y-44625000D01*
X54500000Y-41920000D02*
X54500000Y-52080000D01*
X54540000Y-41920000D02*
X54540000Y-52080000D01*
X54580000Y-41921000D02*
X54580000Y-52079000D01*
X54620000Y-41921000D02*
X54620000Y-52079000D01*
X54660000Y-41923000D02*
X54660000Y-52077000D01*
X54700000Y-41924000D02*
X54700000Y-52076000D01*
X54740000Y-41926000D02*
X54740000Y-52074000D01*
X54780000Y-41928000D02*
X54780000Y-52072000D01*
X54820000Y-41930000D02*
X54820000Y-52070000D01*
X54860000Y-41933000D02*
X54860000Y-52067000D01*
X54900000Y-41936000D02*
X54900000Y-52064000D01*
X54940000Y-41939000D02*
X54940000Y-52061000D01*
X54980000Y-41943000D02*
X54980000Y-52057000D01*
X55020000Y-41946000D02*
X55020000Y-52054000D01*
X55060000Y-41951000D02*
X55060000Y-52049000D01*
X55100000Y-41955000D02*
X55100000Y-52045000D01*
X55140000Y-41960000D02*
X55140000Y-52040000D01*
X55180000Y-41965000D02*
X55180000Y-52035000D01*
X55220000Y-41971000D02*
X55220000Y-52029000D01*
X55260000Y-41977000D02*
X55260000Y-52023000D01*
X55300000Y-41983000D02*
X55300000Y-52017000D01*
X55340000Y-41989000D02*
X55340000Y-52011000D01*
X55380000Y-41996000D02*
X55380000Y-52004000D01*
X55420000Y-42003000D02*
X55420000Y-51997000D01*
X55460000Y-42011000D02*
X55460000Y-51989000D01*
X55500000Y-42019000D02*
X55500000Y-51981000D01*
X55540000Y-42027000D02*
X55540000Y-51973000D01*
X55580000Y-42035000D02*
X55580000Y-51965000D01*
X55620000Y-42044000D02*
X55620000Y-51956000D01*
X55660000Y-42053000D02*
X55660000Y-51947000D01*
X55700000Y-42063000D02*
X55700000Y-51937000D01*
X55740000Y-42072000D02*
X55740000Y-51928000D01*
X55780000Y-42083000D02*
X55780000Y-45760000D01*
X55780000Y-48240000D02*
X55780000Y-51917000D01*
X55820000Y-42093000D02*
X55820000Y-45760000D01*
X55820000Y-48240000D02*
X55820000Y-51907000D01*
X55860000Y-42104000D02*
X55860000Y-45760000D01*
X55860000Y-48240000D02*
X55860000Y-51896000D01*
X55900000Y-42115000D02*
X55900000Y-45760000D01*
X55900000Y-48240000D02*
X55900000Y-51885000D01*
X55940000Y-42127000D02*
X55940000Y-45760000D01*
X55940000Y-48240000D02*
X55940000Y-51873000D01*
X55980000Y-42139000D02*
X55980000Y-45760000D01*
X55980000Y-48240000D02*
X55980000Y-51861000D01*
X56020000Y-42151000D02*
X56020000Y-45760000D01*
X56020000Y-48240000D02*
X56020000Y-51849000D01*
X56060000Y-42163000D02*
X56060000Y-45760000D01*
X56060000Y-48240000D02*
X56060000Y-51837000D01*
X56100000Y-42176000D02*
X56100000Y-45760000D01*
X56100000Y-48240000D02*
X56100000Y-51824000D01*
X56140000Y-42190000D02*
X56140000Y-45760000D01*
X56140000Y-48240000D02*
X56140000Y-51810000D01*
X56180000Y-42203000D02*
X56180000Y-45760000D01*
X56180000Y-48240000D02*
X56180000Y-51797000D01*
X56220000Y-42218000D02*
X56220000Y-45760000D01*
X56220000Y-48240000D02*
X56220000Y-51782000D01*
X56260000Y-42232000D02*
X56260000Y-45760000D01*
X56260000Y-48240000D02*
X56260000Y-51768000D01*
X56300000Y-42247000D02*
X56300000Y-45760000D01*
X56300000Y-48240000D02*
X56300000Y-51753000D01*
X56340000Y-42262000D02*
X56340000Y-45760000D01*
X56340000Y-48240000D02*
X56340000Y-51738000D01*
X56380000Y-42278000D02*
X56380000Y-45760000D01*
X56380000Y-48240000D02*
X56380000Y-51722000D01*
X56420000Y-42294000D02*
X56420000Y-45760000D01*
X56420000Y-48240000D02*
X56420000Y-51706000D01*
X56460000Y-42310000D02*
X56460000Y-45760000D01*
X56460000Y-48240000D02*
X56460000Y-51690000D01*
X56500000Y-42327000D02*
X56500000Y-45760000D01*
X56500000Y-48240000D02*
X56500000Y-51673000D01*
X56540000Y-42344000D02*
X56540000Y-45760000D01*
X56540000Y-48240000D02*
X56540000Y-51656000D01*
X56580000Y-42362000D02*
X56580000Y-45760000D01*
X56580000Y-48240000D02*
X56580000Y-51638000D01*
X56620000Y-42380000D02*
X56620000Y-45760000D01*
X56620000Y-48240000D02*
X56620000Y-51620000D01*
X56660000Y-42398000D02*
X56660000Y-45760000D01*
X56660000Y-48240000D02*
X56660000Y-51602000D01*
X56700000Y-42417000D02*
X56700000Y-45760000D01*
X56700000Y-48240000D02*
X56700000Y-51583000D01*
X56740000Y-42436000D02*
X56740000Y-45760000D01*
X56740000Y-48240000D02*
X56740000Y-51564000D01*
X56780000Y-42456000D02*
X56780000Y-45760000D01*
X56780000Y-48240000D02*
X56780000Y-51544000D01*
X56820000Y-42476000D02*
X56820000Y-45760000D01*
X56820000Y-48240000D02*
X56820000Y-51524000D01*
X56860000Y-42496000D02*
X56860000Y-45760000D01*
X56860000Y-48240000D02*
X56860000Y-51504000D01*
X56900000Y-42517000D02*
X56900000Y-45760000D01*
X56900000Y-48240000D02*
X56900000Y-51483000D01*
X56940000Y-42539000D02*
X56940000Y-45760000D01*
X56940000Y-48240000D02*
X56940000Y-51461000D01*
X56980000Y-42561000D02*
X56980000Y-45760000D01*
X56980000Y-48240000D02*
X56980000Y-51439000D01*
X57020000Y-42583000D02*
X57020000Y-45760000D01*
X57020000Y-48240000D02*
X57020000Y-51417000D01*
X57060000Y-42606000D02*
X57060000Y-45760000D01*
X57060000Y-48240000D02*
X57060000Y-51394000D01*
X57100000Y-42629000D02*
X57100000Y-45760000D01*
X57100000Y-48240000D02*
X57100000Y-51371000D01*
X57140000Y-42653000D02*
X57140000Y-45760000D01*
X57140000Y-48240000D02*
X57140000Y-51347000D01*
X57180000Y-42677000D02*
X57180000Y-45760000D01*
X57180000Y-48240000D02*
X57180000Y-51323000D01*
X57220000Y-42702000D02*
X57220000Y-45760000D01*
X57220000Y-48240000D02*
X57220000Y-51298000D01*
X57260000Y-42728000D02*
X57260000Y-45760000D01*
X57260000Y-48240000D02*
X57260000Y-51272000D01*
X57300000Y-42753000D02*
X57300000Y-45760000D01*
X57300000Y-48240000D02*
X57300000Y-51247000D01*
X57340000Y-42780000D02*
X57340000Y-45760000D01*
X57340000Y-48240000D02*
X57340000Y-51220000D01*
X57380000Y-42807000D02*
X57380000Y-45760000D01*
X57380000Y-48240000D02*
X57380000Y-51193000D01*
X57420000Y-42834000D02*
X57420000Y-45760000D01*
X57420000Y-48240000D02*
X57420000Y-51166000D01*
X57460000Y-42862000D02*
X57460000Y-45760000D01*
X57460000Y-48240000D02*
X57460000Y-51138000D01*
X57500000Y-42891000D02*
X57500000Y-45760000D01*
X57500000Y-48240000D02*
X57500000Y-51109000D01*
X57540000Y-42920000D02*
X57540000Y-45760000D01*
X57540000Y-48240000D02*
X57540000Y-51080000D01*
X57580000Y-42950000D02*
X57580000Y-45760000D01*
X57580000Y-48240000D02*
X57580000Y-51050000D01*
X57620000Y-42980000D02*
X57620000Y-45760000D01*
X57620000Y-48240000D02*
X57620000Y-51020000D01*
X57660000Y-43012000D02*
X57660000Y-45760000D01*
X57660000Y-48240000D02*
X57660000Y-50988000D01*
X57700000Y-43043000D02*
X57700000Y-45760000D01*
X57700000Y-48240000D02*
X57700000Y-50957000D01*
X57740000Y-43076000D02*
X57740000Y-45760000D01*
X57740000Y-48240000D02*
X57740000Y-50924000D01*
X57780000Y-43109000D02*
X57780000Y-45760000D01*
X57780000Y-48240000D02*
X57780000Y-50891000D01*
X57820000Y-43142000D02*
X57820000Y-45760000D01*
X57820000Y-48240000D02*
X57820000Y-50858000D01*
X57860000Y-43177000D02*
X57860000Y-45760000D01*
X57860000Y-48240000D02*
X57860000Y-50823000D01*
X57900000Y-43212000D02*
X57900000Y-45760000D01*
X57900000Y-48240000D02*
X57900000Y-50788000D01*
X57940000Y-43248000D02*
X57940000Y-45760000D01*
X57940000Y-48240000D02*
X57940000Y-50752000D01*
X57980000Y-43284000D02*
X57980000Y-45760000D01*
X57980000Y-48240000D02*
X57980000Y-50716000D01*
X58020000Y-43322000D02*
X58020000Y-45760000D01*
X58020000Y-48240000D02*
X58020000Y-50678000D01*
X58060000Y-43360000D02*
X58060000Y-45760000D01*
X58060000Y-48240000D02*
X58060000Y-50640000D01*
X58100000Y-43399000D02*
X58100000Y-45760000D01*
X58100000Y-48240000D02*
X58100000Y-50601000D01*
X58140000Y-43439000D02*
X58140000Y-45760000D01*
X58140000Y-48240000D02*
X58140000Y-50561000D01*
X58180000Y-43480000D02*
X58180000Y-45760000D01*
X58180000Y-48240000D02*
X58180000Y-50520000D01*
X58220000Y-43522000D02*
X58220000Y-45760000D01*
X58220000Y-48240000D02*
X58220000Y-50478000D01*
X58260000Y-43565000D02*
X58260000Y-50435000D01*
X58300000Y-43609000D02*
X58300000Y-50391000D01*
X58340000Y-43653000D02*
X58340000Y-50347000D01*
X58380000Y-43699000D02*
X58380000Y-50301000D01*
X58420000Y-43746000D02*
X58420000Y-50254000D01*
X58460000Y-43795000D02*
X58460000Y-50205000D01*
X58500000Y-43844000D02*
X58500000Y-50156000D01*
X58540000Y-43895000D02*
X58540000Y-50105000D01*
X58580000Y-43947000D02*
X58580000Y-50053000D01*
X58620000Y-44000000D02*
X58620000Y-50000000D01*
X58660000Y-44055000D02*
X58660000Y-49945000D01*
X58700000Y-44112000D02*
X58700000Y-49888000D01*
X58740000Y-44170000D02*
X58740000Y-49830000D01*
X58780000Y-44230000D02*
X58780000Y-49770000D01*
X58820000Y-44292000D02*
X58820000Y-49708000D01*
X58860000Y-44356000D02*
X58860000Y-49644000D01*
X58900000Y-44422000D02*
X58900000Y-49578000D01*
X58940000Y-44490000D02*
X58940000Y-49510000D01*
X58980000Y-44561000D02*
X58980000Y-49439000D01*
X59020000Y-44635000D02*
X59020000Y-49365000D01*
X59060000Y-44712000D02*
X59060000Y-49288000D01*
X59100000Y-44792000D02*
X59100000Y-49208000D01*
X59140000Y-44876000D02*
X59140000Y-49124000D01*
X59180000Y-44963000D02*
X59180000Y-49037000D01*
X59220000Y-45056000D02*
X59220000Y-48944000D01*
X59260000Y-45154000D02*
X59260000Y-48846000D01*
X59300000Y-45258000D02*
X59300000Y-48742000D01*
X59340000Y-45370000D02*
X59340000Y-48630000D01*
X59380000Y-45491000D02*
X59380000Y-48509000D01*
X59420000Y-45623000D02*
X59420000Y-48377000D01*
X59460000Y-45770000D02*
X59460000Y-48230000D01*
X59500000Y-45938000D02*
X59500000Y-48062000D01*
X59540000Y-46138000D02*
X59540000Y-47862000D01*
X59580000Y-46401000D02*
X59580000Y-47599000D01*
X59620000Y-47000000D02*
G75*
G02*
X49380000Y-47000000I-5120000J0D01*
G01*
X49380000Y-47000000D02*
G75*
G02*
X59620000Y-47000000I5120000J0D01*
G01*
%TO.C,BK1*%
X34670000Y-57270000D02*
X34670000Y-64950000D01*
X34670000Y-57270000D02*
X37330000Y-57270000D01*
X34670000Y-64950000D02*
X37330000Y-64950000D01*
X36000000Y-54670000D02*
X37330000Y-54670000D01*
X37330000Y-54670000D02*
X37330000Y-56000000D01*
X37330000Y-57270000D02*
X37330000Y-64950000D01*
%TO.C,C3*%
X87738748Y-41265000D02*
X88261252Y-41265000D01*
X87738748Y-42735000D02*
X88261252Y-42735000D01*
%TO.C,A1*%
X6130000Y-18670000D02*
X6130000Y-39110000D01*
X6130000Y-18670000D02*
X8730000Y-18670000D01*
X6130000Y-39110000D02*
X11330000Y-39110000D01*
X8730000Y-18670000D02*
X8730000Y-21270000D01*
X8730000Y-21270000D02*
X11330000Y-21270000D01*
X10000000Y-18670000D02*
X11330000Y-18670000D01*
X11330000Y-18670000D02*
X11330000Y-20000000D01*
X11330000Y-21270000D02*
X11330000Y-39110000D01*
%TO.C,C2*%
X23738748Y-41265000D02*
X24261252Y-41265000D01*
X23738748Y-42735000D02*
X24261252Y-42735000D01*
%TO.C,U1R*%
X54070000Y-13270000D02*
X54070000Y-48890000D01*
X54070000Y-13270000D02*
X56730000Y-13270000D01*
X54070000Y-48890000D02*
X56730000Y-48890000D01*
X55400000Y-10670000D02*
X56730000Y-10670000D01*
X56730000Y-10670000D02*
X56730000Y-12000000D01*
X56730000Y-13270000D02*
X56730000Y-48890000D01*
%TO.C,U1L*%
X28670000Y-13270000D02*
X28670000Y-48890000D01*
X28670000Y-13270000D02*
X31330000Y-13270000D01*
X28670000Y-48890000D02*
X31330000Y-48890000D01*
X30000000Y-10670000D02*
X31330000Y-10670000D01*
X31330000Y-10670000D02*
X31330000Y-12000000D01*
X31330000Y-13270000D02*
X31330000Y-48890000D01*
%TO.C,R1*%
X63772936Y-46265000D02*
X64227064Y-46265000D01*
X63772936Y-47735000D02*
X64227064Y-47735000D01*
%TO.C,J1*%
X2880000Y-55880000D02*
X13620000Y-55880000D01*
X2880000Y-59500000D02*
X4120000Y-59500000D01*
X2880000Y-60500000D02*
X4120000Y-60500000D01*
X2880000Y-61800000D02*
X4120000Y-61800000D01*
X2880000Y-63920000D02*
X2880000Y-55880000D01*
X5700000Y-63920000D02*
X2880000Y-63920000D01*
X7880000Y-59500000D02*
X9188000Y-59500000D01*
X7880000Y-60500000D02*
X9188000Y-60500000D01*
X7880000Y-61800000D02*
X10457000Y-61800000D01*
X11543000Y-61800000D02*
X13620000Y-61800000D01*
X12812000Y-59500000D02*
X13620000Y-59500000D01*
X12812000Y-60500000D02*
X13620000Y-60500000D01*
X13620000Y-55880000D02*
X13620000Y-63920000D01*
X13620000Y-63920000D02*
X6300000Y-63920000D01*
X6440000Y-64530000D02*
X5560000Y-64530000D01*
X6000000Y-63920000D01*
X6440000Y-64530000D01*
G36*
X6440000Y-64530000D02*
G01*
X5560000Y-64530000D01*
X6000000Y-63920000D01*
X6440000Y-64530000D01*
G37*
%TO.C,J4*%
X62880000Y-55880000D02*
X78620000Y-55880000D01*
X62880000Y-59500000D02*
X64120000Y-59500000D01*
X62880000Y-60500000D02*
X64120000Y-60500000D01*
X62880000Y-61800000D02*
X64120000Y-61800000D01*
X62880000Y-63920000D02*
X62880000Y-55880000D01*
X65700000Y-63920000D02*
X62880000Y-63920000D01*
X67880000Y-59500000D02*
X69188000Y-59500000D01*
X67880000Y-60500000D02*
X69188000Y-60500000D01*
X67880000Y-61800000D02*
X70457000Y-61800000D01*
X71543000Y-61800000D02*
X75457000Y-61800000D01*
X72812000Y-59500000D02*
X74188000Y-59500000D01*
X72812000Y-60500000D02*
X74188000Y-60500000D01*
X76543000Y-61800000D02*
X78620000Y-61800000D01*
X77812000Y-59500000D02*
X78620000Y-59500000D01*
X77812000Y-60500000D02*
X78620000Y-60500000D01*
X78620000Y-55880000D02*
X78620000Y-63920000D01*
X78620000Y-63920000D02*
X66300000Y-63920000D01*
X66440000Y-64530000D02*
X65560000Y-64530000D01*
X66000000Y-63920000D01*
X66440000Y-64530000D01*
G36*
X66440000Y-64530000D02*
G01*
X65560000Y-64530000D01*
X66000000Y-63920000D01*
X66440000Y-64530000D01*
G37*
%TO.C,J5*%
X36880000Y-1880000D02*
X52620000Y-1880000D01*
X36880000Y-5500000D02*
X38120000Y-5500000D01*
X36880000Y-6500000D02*
X38120000Y-6500000D01*
X36880000Y-7800000D02*
X38120000Y-7800000D01*
X36880000Y-9920000D02*
X36880000Y-1880000D01*
X39700000Y-9920000D02*
X36880000Y-9920000D01*
X41880000Y-5500000D02*
X43188000Y-5500000D01*
X41880000Y-6500000D02*
X43188000Y-6500000D01*
X41880000Y-7800000D02*
X44457000Y-7800000D01*
X45543000Y-7800000D02*
X49457000Y-7800000D01*
X46812000Y-5500000D02*
X48188000Y-5500000D01*
X46812000Y-6500000D02*
X48188000Y-6500000D01*
X50543000Y-7800000D02*
X52620000Y-7800000D01*
X51812000Y-5500000D02*
X52620000Y-5500000D01*
X51812000Y-6500000D02*
X52620000Y-6500000D01*
X52620000Y-1880000D02*
X52620000Y-9920000D01*
X52620000Y-9920000D02*
X40300000Y-9920000D01*
X40440000Y-10530000D02*
X39560000Y-10530000D01*
X40000000Y-9920000D01*
X40440000Y-10530000D01*
G36*
X40440000Y-10530000D02*
G01*
X39560000Y-10530000D01*
X40000000Y-9920000D01*
X40440000Y-10530000D01*
G37*
%TO.C,J2*%
X2880000Y-1880000D02*
X23620000Y-1880000D01*
X2880000Y-5500000D02*
X4120000Y-5500000D01*
X2880000Y-6500000D02*
X4120000Y-6500000D01*
X2880000Y-7800000D02*
X4120000Y-7800000D01*
X2880000Y-9920000D02*
X2880000Y-1880000D01*
X5700000Y-9920000D02*
X2880000Y-9920000D01*
X7880000Y-5500000D02*
X9188000Y-5500000D01*
X7880000Y-6500000D02*
X9188000Y-6500000D01*
X7880000Y-7800000D02*
X10457000Y-7800000D01*
X11543000Y-7800000D02*
X15457000Y-7800000D01*
X12812000Y-5500000D02*
X14188000Y-5500000D01*
X12812000Y-6500000D02*
X14188000Y-6500000D01*
X16543000Y-7800000D02*
X20457000Y-7800000D01*
X17812000Y-5500000D02*
X19188000Y-5500000D01*
X17812000Y-6500000D02*
X19188000Y-6500000D01*
X21543000Y-7800000D02*
X23620000Y-7800000D01*
X22812000Y-5500000D02*
X23620000Y-5500000D01*
X22812000Y-6500000D02*
X23620000Y-6500000D01*
X23620000Y-1880000D02*
X23620000Y-9920000D01*
X23620000Y-9920000D02*
X6300000Y-9920000D01*
X6440000Y-10530000D02*
X5560000Y-10530000D01*
X6000000Y-9920000D01*
X6440000Y-10530000D01*
G36*
X6440000Y-10530000D02*
G01*
X5560000Y-10530000D01*
X6000000Y-9920000D01*
X6440000Y-10530000D01*
G37*
%TD*%
M02*
