G04 Gerber file generated by Gerbonara*
%MOMM*%
%FSLAX45Y45*%
%IPPOS*%
G75
%LPD*%
%ADD10C,0.15*%
%ADD11C,0.5*%
%ADD12C,6.5*%
%ADD13C,0.1*%
D10*
X003470000Y001373000D02*
X006270000Y001373000D01*
X006270000Y005383000D01*
X003470000Y005383000D01*
X003470000Y001373000D01*
D11*
X003460000Y001460000D03*
D10*
X000600000Y002423000D02*
X002270000Y002423000D01*
X002270000Y004555000D01*
X000600000Y004555000D01*
X000600000Y002423000D01*
D11*
X000660000Y002460000D03*
D10*
X007600000Y002423000D02*
X009270000Y002423000D01*
X009270000Y004555000D01*
X007600000Y004555000D01*
X007600000Y002423000D01*
D11*
X007660000Y002460000D03*
D10*
X003569000Y006150000D02*
X004685000Y006150000D01*
X004685000Y006650000D01*
X003569000Y006650000D01*
X003569000Y006150000D01*
D11*
X003860000Y006260000D03*
D10*
X000246000Y006050000D02*
X001462000Y006050000D01*
X001462000Y006750000D01*
X000246000Y006750000D01*
X000246000Y006050000D01*
D11*
X000460000Y006260000D03*
D10*
X-000262000Y000450000D02*
X001970000Y000450000D01*
X001970000Y001150000D01*
X-000262000Y001150000D01*
X-000262000Y000450000D01*
D11*
X000460000Y000660000D03*
D10*
X006538000Y000450000D02*
X008770000Y000450000D01*
X008770000Y001150000D01*
X006538000Y001150000D01*
X006538000Y000450000D01*
D11*
X007260000Y000660000D03*
D10*
X006392000Y006050000D02*
X008116000Y006050000D01*
X008116000Y006750000D01*
X006392000Y006750000D01*
X006392000Y006050000D01*
D11*
X006860000Y006260000D03*
D10*
X005900000Y005900000D02*
X006300000Y005900000D01*
X006300000Y006100000D01*
X005900000Y006100000D01*
X005900000Y005900000D01*
X004650000Y005600000D02*
X005750000Y005600000D01*
X005750000Y006700000D01*
X004650000Y006700000D01*
X004650000Y005600000D01*
X003392000Y000450000D02*
X005116000Y000450000D01*
X005116000Y001150000D01*
X003392000Y001150000D01*
X003392000Y000450000D01*
D11*
X003860000Y000660000D03*
D10*
X001800000Y004900000D02*
X002200000Y004900000D01*
X002200000Y005100000D01*
X001800000Y005100000D01*
X001800000Y004900000D01*
X008800000Y004900000D02*
X009200000Y004900000D01*
X009200000Y005100000D01*
X008800000Y005100000D01*
X008800000Y004900000D01*
D12*
X000400000Y000400000D03*
X009600000Y000400000D03*
X009600000Y007100000D03*
X000400000Y007100000D03*
D13*
X006140000Y003632000D02*
X004508000Y000800000D01*
X002070000Y003362000D02*
X001108000Y000800000D01*
X002070000Y003616000D02*
X001616000Y000800000D01*
X009070000Y003616000D02*
X008416000Y000800000D01*
X009070000Y003870000D02*
X008924000Y000800000D01*
X003600000Y003632000D02*
X000800000Y004378000D01*
M02*