G04 Gerber file generated by Gerbonara*
%MOMM*%
%FSLAX45Y45*%
%IPPOS*%
G75
%LPD*%
%ADD10R,1.7X1.7*%
%ADD11C,1.7*%
%ADD12R,2.4X2.4*%
%ADD13C,2.4*%
%ADD14R,1.3X1.0*%
%ADD15C,0.6*%
%ADD16C,0.3*%
%ADD17C,0.8*%
D10*
X003600000Y001600000D03*
D11*
X006140000Y001600000D03*
X003600000Y001854000D03*
X006140000Y001854000D03*
X003600000Y002108000D03*
X006140000Y002108000D03*
X003600000Y002362000D03*
X006140000Y002362000D03*
X003600000Y002616000D03*
X006140000Y002616000D03*
X003600000Y002870000D03*
X006140000Y002870000D03*
X003600000Y003124000D03*
X006140000Y003124000D03*
X003600000Y003378000D03*
X006140000Y003378000D03*
X003600000Y003632000D03*
X006140000Y003632000D03*
X003600000Y003886000D03*
X006140000Y003886000D03*
X003600000Y004140000D03*
X006140000Y004140000D03*
X003600000Y004394000D03*
X006140000Y004394000D03*
X003600000Y004648000D03*
X006140000Y004648000D03*
X003600000Y004902000D03*
X006140000Y004902000D03*
X003600000Y005156000D03*
X006140000Y005156000D03*
D10*
X000800000Y002600000D03*
D11*
X002070000Y002600000D03*
X000800000Y002854000D03*
X002070000Y002854000D03*
X000800000Y003108000D03*
X002070000Y003108000D03*
X000800000Y003362000D03*
X002070000Y003362000D03*
X000800000Y003616000D03*
X002070000Y003616000D03*
X000800000Y003870000D03*
X002070000Y003870000D03*
X000800000Y004124000D03*
X002070000Y004124000D03*
X000800000Y004378000D03*
X002070000Y004378000D03*
D10*
X007800000Y002600000D03*
D11*
X009070000Y002600000D03*
X007800000Y002854000D03*
X009070000Y002854000D03*
X007800000Y003108000D03*
X009070000Y003108000D03*
X007800000Y003362000D03*
X009070000Y003362000D03*
X007800000Y003616000D03*
X009070000Y003616000D03*
X007800000Y003870000D03*
X009070000Y003870000D03*
X007800000Y004124000D03*
X009070000Y004124000D03*
X007800000Y004378000D03*
X009070000Y004378000D03*
D10*
X004000000Y006400000D03*
D11*
X004254000Y006400000D03*
X004508000Y006400000D03*
X004762000Y006400000D03*
D12*
X000600000Y006400000D03*
D13*
X001108000Y006400000D03*
D12*
X000600000Y000800000D03*
D13*
X001108000Y000800000D03*
X001616000Y000800000D03*
X002124000Y000800000D03*
D12*
X007400000Y000800000D03*
D13*
X007908000Y000800000D03*
X008416000Y000800000D03*
X008924000Y000800000D03*
D12*
X007000000Y006400000D03*
D13*
X007508000Y006400000D03*
X008016000Y006400000D03*
D14*
X006000000Y006000000D03*
X006200000Y006000000D03*
D11*
X005200000Y006400000D03*
X005200000Y005900000D03*
D12*
X004000000Y000800000D03*
D13*
X004508000Y000800000D03*
X005016000Y000800000D03*
D14*
X001900000Y005000000D03*
X002100000Y005000000D03*
X008900000Y005000000D03*
X009100000Y005000000D03*
D15*
X007800000Y002854000D02*
X008900000Y005000000D01*
X004508000Y006400000D02*
X001900000Y005000000D01*
X000800000Y002854000D01*
D16*
X003600000Y003124000D02*
X007800000Y003108000D01*
X006140000Y003124000D02*
X007800000Y003362000D01*
X003600000Y003886000D02*
X006000000Y006000000D01*
X002070000Y003108000D02*
X000600000Y000800000D01*
X002070000Y003870000D02*
X002124000Y000800000D01*
X009070000Y003108000D02*
X007400000Y000800000D01*
X007508000Y006400000D02*
X006200000Y006000000D01*
D17*
X002100000Y005000000D03*
X009100000Y005000000D03*
M02*