; XNC file generated by gerbonara
M48
METRIC
T01C0000.40000
T02C0001.00000
T03C0001.30000
%
T02
G05
X0036.00000Y0016.00000
X0061.40000Y0016.00000
X0036.00000Y0018.54000
X0061.40000Y0018.54000
X0036.00000Y0021.08000
X0061.40000Y0021.08000
X0036.00000Y0023.62000
X0061.40000Y0023.62000
X0036.00000Y0026.16000
X0061.40000Y0026.16000
X0036.00000Y0028.70000
X0061.40000Y0028.70000
X0036.00000Y0031.24000
X0061.40000Y0031.24000
X0036.00000Y0033.78000
X0061.40000Y0033.78000
X0036.00000Y0036.32000
X0061.40000Y0036.32000
X0036.00000Y0038.86000
X0061.40000Y0038.86000
X0036.00000Y0041.40000
X0061.40000Y0041.40000
X0036.00000Y0043.94000
X0061.40000Y0043.94000
X0036.00000Y0046.48000
X0061.40000Y0046.48000
X0036.00000Y0049.02000
X0061.40000Y0049.02000
X0036.00000Y0051.56000
X0061.40000Y0051.56000
X0008.00000Y0026.00000
X0020.70000Y0026.00000
X0008.00000Y0028.54000
X0020.70000Y0028.54000
X0008.00000Y0031.08000
X0020.70000Y0031.08000
X0008.00000Y0033.62000
X0020.70000Y0033.62000
X0008.00000Y0036.16000
X0020.70000Y0036.16000
X0008.00000Y0038.70000
X0020.70000Y0038.70000
X0008.00000Y0041.24000
X0020.70000Y0041.24000
X0008.00000Y0043.78000
X0020.70000Y0043.78000
X0078.00000Y0026.00000
X0090.70000Y0026.00000
X0078.00000Y0028.54000
X0090.70000Y0028.54000
X0078.00000Y0031.08000
X0090.70000Y0031.08000
X0078.00000Y0033.62000
X0090.70000Y0033.62000
X0078.00000Y0036.16000
X0090.70000Y0036.16000
X0078.00000Y0038.70000
X0090.70000Y0038.70000
X0078.00000Y0041.24000
X0090.70000Y0041.24000
X0078.00000Y0043.78000
X0090.70000Y0043.78000
X0040.00000Y0064.00000
X0042.54000Y0064.00000
X0045.08000Y0064.00000
X0047.62000Y0064.00000
T03
X0006.00000Y0064.00000
X0011.08000Y0064.00000
X0006.00000Y0008.00000
X0011.08000Y0008.00000
X0016.16000Y0008.00000
X0021.24000Y0008.00000
X0074.00000Y0008.00000
X0079.08000Y0008.00000
X0084.16000Y0008.00000
X0089.24000Y0008.00000
X0070.00000Y0064.00000
X0075.08000Y0064.00000
X0080.16000Y0064.00000
T02
X0052.00000Y0064.00000
X0052.00000Y0059.00000
T03
X0040.00000Y0008.00000
X0045.08000Y0008.00000
X0050.16000Y0008.00000
T01
X0021.00000Y0050.00000
X0091.00000Y0050.00000
M30